SplineFontDB: 3.0
FontName: Monacal-Italic
FullName: Monacal Italic
FamilyName: Monacal
Weight: Book
Copyright: Copyright (c) 2012 Fontstage (info@fontstage.com), with Reserved Font Names, 'Monacal'
Version: 1.001
ItalicAngle: -14
UnderlinePosition: -195
UnderlineWidth: 102
Ascent: 1638
Descent: 410
sfntRevision: 0x00010042
LayerCount: 2
Layer: 0 1 "Back"  1
Layer: 1 1 "Fore"  0
XUID: [1021 923 160785010 15681842]
FSType: 0
OS2Version: 3
OS2_WeightWidthSlopeOnly: 0
OS2_UseTypoMetrics: 1
CreationTime: 1337871660
ModificationTime: 1354984377
PfmFamily: 17
TTFWeight: 400
TTFWidth: 5
LineGap: 0
VLineGap: 0
Panose: 2 0 5 6 0 0 0 9 0 3
OS2TypoAscent: 1411
OS2TypoAOffset: 0
OS2TypoDescent: -530
OS2TypoDOffset: 0
OS2TypoLinegap: 250
OS2WinAscent: 1618
OS2WinAOffset: 0
OS2WinDescent: 621
OS2WinDOffset: 0
HheadAscent: 1618
HheadAOffset: 0
HheadDescent: -621
HheadDOffset: 0
OS2SubXSize: 1331
OS2SubYSize: 1228
OS2SubXOff: -38
OS2SubYOff: 153
OS2SupXSize: 1331
OS2SupYSize: 1228
OS2SupXOff: 179
OS2SupYOff: 716
OS2StrikeYSize: 102
OS2StrikeYPos: 532
OS2CodePages: 20000093.00000000
OS2UnicodeRanges: a000002f.400000eb.00000000.00000000
DEI: 91125
TtTable: prep
PUSHW_1
 511
SCANCTRL
PUSHB_1
 4
SCANTYPE
EndTTInstrs
ShortTable: maxp 16
  1
  0
  415
  133
  6
  0
  0
  2
  0
  1
  1
  0
  64
  0
  0
  0
EndShort
LangName: 1033 "" "" "" "Fontstage: Monacal Italic: 2012" "" "Version 1.001" "" "Monacal is a trademark of Fontstage." "Fontstage" "Fontstage" "" "http://www.fontstage.com" "http://www.fontstage.com" "This Font Software is licensed under the SIL Open Font License, Version 1.1. This license is available with a FAQ at: http://scripts.sil.org/OFL" "http://scripts.sil.org/OFL" 
GaspTable: 1 65535 15 1
Encoding: UnicodeBmp
UnicodeInterp: none
NameList: AGL For New Fonts
DisplaySize: -24
AntiAlias: 1
FitToEm: 1
BeginChars: 65542 415

StartChar: .notdef
Encoding: 65536 -1 0
Width: 1536
Flags: W
LayerCount: 2
Fore
SplineSet
256 0 m 1,0,-1
 256 1203 l 1,1,-1
 1218 1203 l 1,2,-1
 1218 0 l 1,3,-1
 256 0 l 1,0,-1
286 30 m 1,4,-1
 1188 30 l 1,5,-1
 1188 1173 l 1,6,-1
 286 1173 l 1,7,-1
 286 30 l 1,4,-1
EndSplineSet
EndChar

StartChar: exclam
Encoding: 33 33 5
Width: 526
GlyphClass: 2
Flags: W
LayerCount: 2
Fore
SplineSet
421 355 m 1,0,-1
 362 355 l 1,1,2
 483 910 483 910 578 1429 c 1,3,-1
 754 1466 l 1,4,-1
 421 355 l 1,0,-1
315 -4 m 0,5,6
 250 -4 250 -4 250 77 c 0,7,8
 250 147 250 147 283.5 192.5 c 128,-1,9
 317 238 317 238 368 238 c 0,10,11
 396 238 396 238 413.5 218.5 c 128,-1,12
 431 199 431 199 431 160 c 0,13,14
 431 94 431 94 398.5 45 c 128,-1,15
 366 -4 366 -4 315 -4 c 0,5,6
EndSplineSet
EndChar

StartChar: quotedbl
Encoding: 34 34 6
Width: 530
GlyphClass: 2
Flags: W
LayerCount: 2
Fore
SplineSet
443 1453 m 1,0,-1
 574 1426 l 1,1,2
 546 1310 546 1310 504.5 1197 c 128,-1,3
 463 1084 463 1084 424 1008 c 1,4,-1
 387 1008 l 1,5,6
 402 1303 402 1303 443 1453 c 1,0,-1
732 1454 m 1,7,-1
 863 1427 l 1,8,9
 835 1311 835 1311 793.5 1198 c 128,-1,10
 752 1085 752 1085 713 1009 c 1,11,-1
 676 1009 l 1,12,13
 691 1304 691 1304 732 1454 c 1,7,-1
EndSplineSet
EndChar

StartChar: numbersign
Encoding: 35 35 7
Width: 1253
GlyphClass: 2
Flags: W
LayerCount: 2
Fore
SplineSet
1270 1308 m 1,0,-1
 1184 948 l 1,1,-1
 1474 948 l 1,2,-1
 1360 844 l 1,3,-1
 1159 844 l 1,4,-1
 1071 488 l 1,5,-1
 1392 488 l 1,6,-1
 1278 384 l 1,7,-1
 1047 384 l 1,8,-1
 964 43 l 1,9,-1
 843 -60 l 1,10,-1
 949 384 l 1,11,-1
 721 384 l 1,12,-1
 639 43 l 1,13,-1
 515 -60 l 1,14,-1
 622 384 l 1,15,-1
 350 384 l 1,16,-1
 464 488 l 1,17,-1
 648 488 l 1,18,-1
 734 844 l 1,19,-1
 399 844 l 1,20,-1
 513 948 l 1,21,-1
 760 948 l 1,22,-1
 820 1204 l 1,23,-1
 945 1308 l 1,24,-1
 858 948 l 1,25,-1
 1088 948 l 1,26,-1
 1148 1204 l 1,27,-1
 1270 1308 l 1,0,-1
834 844 m 1,28,-1
 745 488 l 1,29,-1
 975 488 l 1,30,-1
 1061 844 l 1,31,-1
 834 844 l 1,28,-1
EndSplineSet
EndChar

StartChar: dollar
Encoding: 36 36 8
Width: 821
GlyphClass: 2
Flags: W
LayerCount: 2
Fore
SplineSet
390 -18 m 0,0,1
 291 -18 291 -18 227.5 39 c 128,-1,2
 164 96 164 96 164 216 c 0,3,4
 164 276 164 276 198 326 c 128,-1,5
 232 376 232 376 284 376 c 0,6,7
 317 376 317 376 326 348 c 1,8,9
 277 286 277 286 277 218.5 c 128,-1,10
 277 151 277 151 317.5 94.5 c 128,-1,11
 358 38 358 38 430 38 c 2,12,-1
 437 38 l 1,13,-1
 586 653 l 1,14,15
 546 699 546 699 524 726.5 c 128,-1,16
 502 754 502 754 474 797 c 0,17,18
 420 880 420 880 420 974 c 0,19,20
 420 1111 420 1111 515 1211 c 128,-1,21
 610 1311 610 1311 750 1329 c 1,22,-1
 781 1455 l 1,23,-1
 828 1455 l 1,24,-1
 798 1333 l 1,25,-1
 803 1333 l 2,26,27
 887 1333 887 1333 953 1300.5 c 128,-1,28
 1019 1268 1019 1268 1019 1213 c 0,29,30
 1019 1146 1019 1146 957 1102 c 1,31,32
 909 1243 909 1243 782 1266 c 1,33,-1
 664 782 l 1,34,35
 674 771 674 771 703.5 740 c 128,-1,36
 733 709 733 709 745 695.5 c 128,-1,37
 757 682 757 682 781 653.5 c 128,-1,38
 805 625 805 625 816 605 c 128,-1,39
 827 585 827 585 840 556 c 1,40,41
 865 505 865 505 865 423.5 c 128,-1,42
 865 342 865 342 831 260.5 c 128,-1,43
 797 179 797 179 740 124 c 0,44,45
 624 13 624 13 471 -11 c 1,46,-1
 436 -158 l 1,47,-1
 389 -158 l 1,48,-1
 423 -17 l 1,49,50
 412 -18 412 -18 390 -18 c 0,0,1
715.5 242.5 m 128,-1,52
 738 304 738 304 738 371 c 128,-1,53
 738 438 738 438 708.5 492 c 128,-1,54
 679 546 679 546 623 612 c 1,55,-1
 485 44 l 1,56,57
 580 62 580 62 656 142 c 0,58,51
 693 181 693 181 715.5 242.5 c 128,-1,52
533 1046 m 0,59,60
 533 936 533 936 628 823 c 1,61,-1
 736 1271 l 1,62,-1
 733 1271 l 2,63,64
 646 1271 646 1271 589.5 1204 c 128,-1,65
 533 1137 533 1137 533 1046 c 0,59,60
EndSplineSet
EndChar

StartChar: percent
Encoding: 37 37 9
Width: 1280
GlyphClass: 2
Flags: W
LayerCount: 2
Fore
SplineSet
1345 40 m 0,0,1
 1401 40 1401 40 1444 86 c 128,-1,2
 1487 132 1487 132 1510 202 c 0,3,4
 1556 340 1556 340 1556 461 c 0,5,6
 1556 608 1556 608 1460 608 c 0,7,8
 1404 608 1404 608 1361 562 c 128,-1,9
 1318 516 1318 516 1295 446 c 0,10,11
 1249 308 1249 308 1249 187 c 0,12,13
 1249 40 1249 40 1345 40 c 0,0,1
1484.5 50 m 128,-1,15
 1395 -22 1395 -22 1297 -22 c 128,-1,16
 1199 -22 1199 -22 1156 26.5 c 128,-1,17
 1113 75 1113 75 1113 162 c 0,18,19
 1113 284 1113 284 1168.5 400.5 c 128,-1,20
 1224 517 1224 517 1313.5 589 c 128,-1,21
 1403 661 1403 661 1501 661 c 128,-1,22
 1599 661 1599 661 1642 612.5 c 128,-1,23
 1685 564 1685 564 1685 477 c 0,24,25
 1685 355 1685 355 1629.5 238.5 c 128,-1,14
 1574 122 1574 122 1484.5 50 c 128,-1,15
638 851 m 0,26,27
 694 851 694 851 737 897 c 128,-1,28
 780 943 780 943 803 1012 c 0,29,30
 849 1152 849 1152 849 1272 c 0,31,32
 849 1419 849 1419 753 1419 c 0,33,34
 697 1419 697 1419 654 1373 c 128,-1,35
 611 1327 611 1327 588 1258 c 0,36,37
 542 1118 542 1118 542 998 c 0,38,39
 542 851 542 851 638 851 c 0,26,27
777.5 861 m 128,-1,41
 688 789 688 789 590 789 c 128,-1,42
 492 789 492 789 449 837.5 c 128,-1,43
 406 886 406 886 406 973 c 0,44,45
 406 1095 406 1095 461.5 1211.5 c 128,-1,46
 517 1328 517 1328 606.5 1400 c 128,-1,47
 696 1472 696 1472 794 1472 c 128,-1,48
 892 1472 892 1472 935 1423.5 c 128,-1,49
 978 1375 978 1375 978 1288 c 0,50,51
 978 1166 978 1166 922.5 1049.5 c 128,-1,40
 867 933 867 933 777.5 861 c 128,-1,41
1712 1474 m 1,52,-1
 498 0 l 1,53,-1
 379 0 l 1,54,-1
 1592 1474 l 1,55,-1
 1712 1474 l 1,52,-1
EndSplineSet
EndChar

StartChar: ampersand
Encoding: 38 38 10
Width: 1454
GlyphClass: 2
Flags: W
LayerCount: 2
Fore
SplineSet
787 859 m 1,0,1
 933 873 933 873 1181.5 873 c 128,-1,2
 1430 873 1430 873 1505 872 c 1,3,4
 1498 826 1498 826 1469 792 c 1,5,-1
 1135 792 l 1,6,7
 1098 714 1098 714 1046 528 c 128,-1,8
 994 342 994 342 994 225 c 0,9,10
 994 90 994 90 1069 90 c 0,11,12
 1127 90 1127 90 1210 149.5 c 128,-1,13
 1293 209 1293 209 1360 300 c 1,14,-1
 1375 287 l 1,15,16
 1290 162 1290 162 1173.5 71 c 128,-1,17
 1057 -20 1057 -20 983 -20 c 128,-1,18
 909 -20 909 -20 884 57 c 0,19,20
 863 121 863 121 858 193 c 1,21,22
 773 101 773 101 667 42 c 128,-1,23
 561 -17 561 -17 465 -17 c 0,24,25
 341 -17 341 -17 276.5 62.5 c 128,-1,26
 212 142 212 142 212 299 c 0,27,28
 212 494 212 494 318 738 c 0,29,30
 368 853 368 853 441.5 960 c 128,-1,31
 515 1067 515 1067 600 1149.5 c 128,-1,32
 685 1232 685 1232 790.5 1282 c 128,-1,33
 896 1332 896 1332 1003 1332 c 0,34,35
 1064 1332 1064 1332 1099.5 1294.5 c 128,-1,36
 1135 1257 1135 1257 1135 1200 c 128,-1,37
 1135 1143 1135 1143 1109 1093.5 c 128,-1,38
 1083 1044 1083 1044 1032 1002 c 0,39,40
 946 931 946 931 789 863 c 1,41,-1
 787 859 l 1,0,1
368 353 m 0,42,43
 368 222 368 222 416 156 c 128,-1,44
 464 90 464 90 548 90 c 0,45,46
 612 90 612 90 703 129 c 128,-1,47
 794 168 794 168 856 229 c 1,48,49
 889 497 889 497 1009 788 c 1,50,51
 755 788 755 788 445 748 c 1,52,53
 368 529 368 529 368 353 c 0,42,43
911 1245 m 0,54,55
 836 1245 836 1245 767 1208 c 128,-1,56
 698 1171 698 1171 642 1106 c 0,57,58
 538 985 538 985 464 802 c 1,59,60
 597 824 597 824 721 876.5 c 128,-1,61
 845 929 845 929 925.5 1001.5 c 128,-1,62
 1006 1074 1006 1074 1006 1144 c 0,63,64
 1006 1185 1006 1185 979.5 1215 c 128,-1,65
 953 1245 953 1245 911 1245 c 0,54,55
EndSplineSet
EndChar

StartChar: quotesingle
Encoding: 39 39 11
Width: 297
GlyphClass: 2
Flags: W
LayerCount: 2
Fore
SplineSet
464 1465 m 1,0,-1
 595 1438 l 1,1,2
 567 1322 567 1322 525.5 1209 c 128,-1,3
 484 1096 484 1096 445 1020 c 1,4,-1
 408 1020 l 1,5,6
 423 1315 423 1315 464 1465 c 1,0,-1
EndSplineSet
EndChar

StartChar: parenleft
Encoding: 40 40 12
Width: 485
GlyphClass: 2
Flags: W
LayerCount: 2
Fore
SplineSet
179 366 m 0,0,1
 179 501 179 501 213 626 c 1,2,3
 276 884 276 884 438 1120.5 c 128,-1,4
 600 1357 600 1357 798 1467 c 1,5,-1
 815 1439 l 1,6,7
 719 1370 719 1370 621 1232 c 128,-1,8
 523 1094 523 1094 448 928.5 c 128,-1,9
 373 763 373 763 342 631 c 128,-1,10
 311 499 311 499 302 415 c 128,-1,11
 293 331 293 331 293 277 c 128,-1,12
 293 223 293 223 294 186 c 1,13,14
 300 76 300 76 341.5 -18 c 128,-1,15
 383 -112 383 -112 459 -170 c 1,16,-1
 431 -200 l 1,17,18
 341 -141 341 -141 282 -44 c 0,19,20
 179 124 179 124 179 366 c 0,0,1
EndSplineSet
EndChar

StartChar: parenright
Encoding: 41 41 13
Width: 412
GlyphClass: 2
Flags: W
LayerCount: 2
Fore
SplineSet
726 901 m 0,0,1
 726 766 726 766 692 641 c 1,2,3
 629 383 629 383 467 146.5 c 128,-1,4
 305 -90 305 -90 107 -200 c 1,5,-1
 90 -172 l 1,6,7
 186 -103 186 -103 284 35 c 128,-1,8
 382 173 382 173 457 338.5 c 128,-1,9
 532 504 532 504 563 636 c 128,-1,10
 594 768 594 768 603 852 c 128,-1,11
 612 936 612 936 612 990 c 128,-1,12
 612 1044 612 1044 610 1080 c 0,13,14
 605 1191 605 1191 563.5 1285 c 128,-1,15
 522 1379 522 1379 446 1437 c 1,16,-1
 474 1467 l 1,17,18
 564 1408 564 1408 624 1310 c 0,19,20
 726 1143 726 1143 726 901 c 0,0,1
EndSplineSet
EndChar

StartChar: asterisk
Encoding: 42 42 14
Width: 782
GlyphClass: 2
Flags: W
LayerCount: 2
Fore
SplineSet
873 1513 m 1,0,-1
 771 1272 l 1,1,-1
 783 1259 l 1,2,3
 807 1274 807 1274 888 1326.5 c 128,-1,4
 969 1379 969 1379 1027 1412 c 1,5,-1
 1018 1276 l 1,6,-1
 787 1199 l 1,7,-1
 777 1171 l 1,8,-1
 938 1046 l 1,9,-1
 834 980 l 1,10,-1
 729 1112 l 1,11,-1
 708 1105 l 1,12,-1
 645 908 l 1,13,-1
 534 877 l 1,14,-1
 642 1109 l 1,15,-1
 632 1122 l 1,16,-1
 392 1016 l 1,17,-1
 375 1050 l 1,18,-1
 617 1171 l 1,19,-1
 631 1206 l 1,20,21
 604 1229 604 1229 541 1282 c 128,-1,22
 478 1335 478 1335 446 1364 c 1,23,-1
 568 1421 l 1,24,-1
 685 1263 l 1,25,-1
 708 1274 l 1,26,-1
 751 1465 l 1,27,-1
 873 1513 l 1,0,-1
EndSplineSet
EndChar

StartChar: plus
Encoding: 43 43 15
Width: 1065
GlyphClass: 2
Flags: W
LayerCount: 2
Fore
SplineSet
830 565 m 1,0,-1
 786 190 l 1,1,-1
 677 146 l 1,2,-1
 727 565 l 1,3,-1
 298 565 l 1,4,-1
 355 663 l 1,5,-1
 734 663 l 1,6,-1
 778 1038 l 1,7,-1
 887 1082 l 1,8,-1
 837 663 l 1,9,-1
 1275 663 l 1,10,-1
 1218 565 l 1,11,-1
 830 565 l 1,0,-1
EndSplineSet
EndChar

StartChar: comma
Encoding: 44 44 16
Width: 412
GlyphClass: 2
Flags: W
LayerCount: 2
Fore
SplineSet
170 -39 m 0,0,1
 170 -14 170 -14 135.5 29 c 128,-1,2
 101 72 101 72 101 100 c 0,3,4
 101 151 101 151 130.5 181 c 128,-1,5
 160 211 160 211 199.5 211 c 128,-1,6
 239 211 239 211 268 180 c 128,-1,7
 297 149 297 149 297 91 c 0,8,9
 297 -102 297 -102 22 -289 c 1,10,-1
 8 -252 l 1,11,12
 67 -208 67 -208 118.5 -149 c 128,-1,13
 170 -90 170 -90 170 -39 c 0,0,1
EndSplineSet
EndChar

StartChar: hyphen
Encoding: 45 45 17
Width: 528
GlyphClass: 2
Flags: W
LayerCount: 2
Fore
SplineSet
243 533 m 1,0,1
 536 533 536 533 742 560 c 1,2,-1
 682 456 l 1,3,4
 477 431 477 431 188 431 c 1,5,-1
 243 533 l 1,0,1
EndSplineSet
EndChar

StartChar: period
Encoding: 46 46 18
Width: 412
GlyphClass: 2
Flags: W
LayerCount: 2
Fore
SplineSet
253 219 m 0,0,1
 315 219 315 219 315 140 c 0,2,3
 315 71 315 71 282.5 26 c 128,-1,4
 250 -19 250 -19 202 -19 c 0,5,6
 175 -19 175 -19 158 0.5 c 128,-1,7
 141 20 141 20 141 58 c 0,8,9
 141 123 141 123 172.5 171 c 128,-1,10
 204 219 204 219 253 219 c 0,0,1
EndSplineSet
EndChar

StartChar: slash
Encoding: 47 47 19
Width: 627
GlyphClass: 2
Flags: W
LayerCount: 2
Fore
SplineSet
806 1474 m 1,0,-1
 45 -340 l 1,1,-1
 -61 -340 l 1,2,-1
 698 1474 l 1,3,-1
 806 1474 l 1,0,-1
EndSplineSet
EndChar

StartChar: zero
Encoding: 48 48 20
Width: 823
GlyphClass: 2
Flags: W
LayerCount: 2
Fore
SplineSet
736 1165 m 0,0,1
 653 1165 653 1165 582.5 1106 c 128,-1,2
 512 1047 512 1047 466 952 c 0,3,4
 374 765 374 765 349 533 c 0,5,6
 341 457 341 457 341 394 c 0,7,8
 341 98 341 98 519 98 c 0,9,10
 583 98 583 98 638 129 c 128,-1,11
 693 160 693 160 732.5 214.5 c 128,-1,12
 772 269 772 269 803 335 c 128,-1,13
 834 401 834 401 856 480 c 0,14,15
 895 625 895 625 911 777 c 0,16,17
 917 838 917 838 917 889 c 0,18,19
 917 1165 917 1165 736 1165 c 0,0,1
803 1264 m 0,20,21
 1054 1264 1054 1264 1054 940 c 0,22,23
 1054 732 1054 732 974 514 c 0,24,25
 855 192 855 192 651 52 c 0,26,27
 546 -19 546 -19 438 -19 c 0,28,29
 368 -19 368 -19 320 16 c 128,-1,30
 272 51 272 51 250 112 c 0,31,32
 220 197 220 197 220 310 c 0,33,34
 220 365 220 365 228 424 c 1,35,36
 250 641 250 641 332.5 833.5 c 128,-1,37
 415 1026 415 1026 541 1145 c 128,-1,38
 667 1264 667 1264 803 1264 c 0,20,21
EndSplineSet
EndChar

StartChar: one
Encoding: 49 49 21
Width: 823
GlyphClass: 2
Flags: W
LayerCount: 2
Fore
SplineSet
834 -10 m 1,0,1
 721 0 721 0 528 0 c 128,-1,2
 335 0 335 0 188 -12 c 1,3,-1
 192 18 l 1,4,5
 300 39 300 39 343.5 56 c 128,-1,6
 387 73 387 73 408 91 c 0,7,8
 457 131 457 131 477 202 c 0,9,10
 526 373 526 373 599 683 c 128,-1,11
 672 993 672 993 683 1057 c 1,12,-1
 679 1059 l 1,13,14
 643 1047 643 1047 437 976 c 1,15,-1
 429 1001 l 1,16,17
 599 1090 599 1090 687.5 1147.5 c 128,-1,18
 776 1205 776 1205 863 1275 c 1,19,-1
 888 1264 l 1,20,21
 882 1243 882 1243 853.5 1149.5 c 128,-1,22
 825 1056 825 1056 785.5 898 c 128,-1,23
 746 740 746 740 682.5 451 c 128,-1,24
 619 162 619 162 613 101 c 1,25,26
 604 61 604 61 630 54 c 0,27,28
 653 47 653 47 737.5 38 c 128,-1,29
 822 29 822 29 845 26 c 1,30,-1
 834 -10 l 1,0,1
EndSplineSet
EndChar

StartChar: two
Encoding: 50 50 22
Width: 823
GlyphClass: 2
Flags: W
LayerCount: 2
Fore
SplineSet
1019 1026 m 0,0,1
 1019 946 1019 946 985 859.5 c 128,-1,2
 951 773 951 773 901 701 c 128,-1,3
 851 629 851 629 775.5 545.5 c 128,-1,4
 700 462 700 462 636.5 401.5 c 128,-1,5
 573 341 573 341 491.5 264 c 128,-1,6
 410 187 410 187 366 141 c 1,7,-1
 367 129 l 1,8,-1
 740 129 l 2,9,10
 860 129 860 129 920 181 c 0,11,12
 946 204 946 204 983 251 c 1,13,-1
 1001 242 l 1,14,-1
 859 -16 l 1,15,16
 717 0 717 0 617 0 c 2,17,-1
 142 0 l 1,18,-1
 135 33 l 1,19,20
 335 184 335 184 518 372 c 0,21,22
 619 476 619 476 696 575 c 128,-1,23
 773 674 773 674 822 777 c 128,-1,24
 871 880 871 880 871 967.5 c 128,-1,25
 871 1055 871 1055 821.5 1101.5 c 128,-1,26
 772 1148 772 1148 698 1148 c 0,27,28
 590 1148 590 1148 503.5 1074.5 c 128,-1,29
 417 1001 417 1001 417 901 c 0,30,31
 417 857 417 857 439.5 828.5 c 128,-1,32
 462 800 462 800 503 800 c 128,-1,33
 544 800 544 800 585 831 c 1,34,-1
 595 819 l 1,35,36
 546 765 546 765 482 765 c 0,37,38
 435 765 435 765 400.5 804 c 128,-1,39
 366 843 366 843 366 906 c 0,40,41
 366 1005 366 1005 430 1088 c 128,-1,42
 494 1171 494 1171 588 1215.5 c 128,-1,43
 682 1260 682 1260 782 1260 c 128,-1,44
 882 1260 882 1260 950.5 1201.5 c 128,-1,45
 1019 1143 1019 1143 1019 1026 c 0,0,1
EndSplineSet
EndChar

StartChar: three
Encoding: 51 51 23
Width: 823
GlyphClass: 2
Flags: W
LayerCount: 2
Fore
SplineSet
773 1263 m 0,0,1
 877 1263 877 1263 944.5 1208 c 128,-1,2
 1012 1153 1012 1153 1012 1047 c 0,3,4
 1012 834 1012 834 716 696 c 1,5,-1
 718 690 l 1,6,7
 830 681 830 681 889.5 610 c 128,-1,8
 949 539 949 539 949 432.5 c 128,-1,9
 949 326 949 326 904.5 237 c 128,-1,10
 860 148 860 148 784 94 c 1,11,12
 629 -19 629 -19 422 -19 c 0,13,14
 249 -19 249 -19 141 56 c 1,15,16
 157 142 157 142 215 185 c 1,17,18
 357 83 357 83 514 83 c 0,19,20
 648 83 648 83 730 173.5 c 128,-1,21
 812 264 812 264 812 376 c 128,-1,22
 812 488 812 488 739 554.5 c 128,-1,23
 666 621 666 621 522 621 c 1,24,-1
 522 656 l 1,25,26
 676 705 676 705 770 788.5 c 128,-1,27
 864 872 864 872 864 989 c 0,28,29
 864 1068 864 1068 814 1109.5 c 128,-1,30
 764 1151 764 1151 687 1151 c 128,-1,31
 610 1151 610 1151 552.5 1128.5 c 128,-1,32
 495 1106 495 1106 419 1050 c 1,33,-1
 402 1070 l 1,34,35
 563 1263 563 1263 773 1263 c 0,0,1
EndSplineSet
EndChar

StartChar: four
Encoding: 52 52 24
Width: 823
GlyphClass: 2
Flags: W
LayerCount: 2
Fore
SplineSet
690 303 m 1,0,1
 651 307 651 307 475.5 307 c 128,-1,2
 300 307 300 307 178 299 c 1,3,-1
 172 330 l 1,4,5
 197 356 197 356 290.5 451.5 c 128,-1,6
 384 547 384 547 460.5 628 c 128,-1,7
 537 709 537 709 628 812 c 1,8,9
 824 1030 824 1030 878 1163 c 1,10,11
 958 1221 958 1221 1039 1262 c 1,12,-1
 1063 1254 l 1,13,14
 998 1020 998 1020 927 717 c 128,-1,15
 856 414 856 414 855 408 c 1,16,17
 1030 408 1030 408 1104 438 c 1,18,-1
 1113 420 l 1,19,20
 1050 357 1050 357 984 330 c 128,-1,21
 918 303 918 303 831 303 c 1,22,-1
 759 -27 l 1,23,-1
 613 -50 l 1,24,-1
 690 303 l 1,0,1
344 408 m 1,25,-1
 712 408 l 1,26,-1
 866 1021 l 1,27,-1
 863 1023 l 1,28,29
 658 751 658 751 342 416 c 1,30,-1
 344 408 l 1,25,-1
EndSplineSet
EndChar

StartChar: five
Encoding: 53 53 25
Width: 823
GlyphClass: 2
Flags: W
LayerCount: 2
Fore
SplineSet
714 1247 m 2,0,-1
 980 1243 l 2,1,2
 1020 1243 1020 1243 1040.5 1252 c 128,-1,3
 1061 1261 1061 1261 1089 1291 c 1,4,-1
 1108 1290 l 1,5,6
 1083 1188 1083 1188 991 1106 c 1,7,8
 752 1106 752 1106 582 1123 c 1,9,-1
 569 1115 l 1,10,11
 500 895 500 895 463 692 c 1,12,-1
 467 687 l 1,13,14
 559 710 559 710 661 710 c 0,15,16
 803 710 803 710 876 638 c 0,17,18
 937 577 937 577 937 471 c 0,19,20
 937 450 937 450 934 426 c 0,21,22
 922 312 922 312 868 223 c 128,-1,23
 814 134 814 134 737 83 c 0,24,25
 583 -19 583 -19 411.5 -19 c 128,-1,26
 240 -19 240 -19 127 56 c 1,27,28
 142 143 142 143 200 185 c 1,29,30
 357 73 357 73 513 73 c 0,31,32
 630 73 630 73 706.5 145.5 c 128,-1,33
 783 218 783 218 798 352 c 0,34,35
 801 379 801 379 801 403 c 0,36,37
 801 635 801 635 541 635 c 0,38,39
 460 635 460 635 374 607 c 1,40,-1
 357 625 l 1,41,42
 402 834 402 834 528 1157 c 1,43,44
 550 1181 550 1181 589.5 1205.5 c 128,-1,45
 629 1230 629 1230 654 1238.5 c 128,-1,46
 679 1247 679 1247 714 1247 c 2,0,-1
EndSplineSet
EndChar

StartChar: six
Encoding: 54 54 26
Width: 823
GlyphClass: 2
Flags: W
LayerCount: 2
Fore
SplineSet
1011 1259 m 0,0,1
 1071 1259 1071 1259 1125 1248 c 1,2,3
 1119 1212 1119 1212 1097 1187 c 1,4,5
 1055 1193 1055 1193 1014 1193 c 0,6,7
 880 1193 880 1193 762.5 1122.5 c 128,-1,8
 645 1052 645 1052 566 938.5 c 128,-1,9
 487 825 487 825 442 683 c 128,-1,10
 397 541 397 541 397 396.5 c 128,-1,11
 397 252 397 252 456 171 c 128,-1,12
 515 90 515 90 626.5 90 c 128,-1,13
 738 90 738 90 811 180.5 c 128,-1,14
 884 271 884 271 884 407 c 0,15,16
 884 507 884 507 827.5 564.5 c 128,-1,17
 771 622 771 622 674 622 c 128,-1,18
 577 622 577 622 501 587 c 1,19,-1
 491 615 l 1,20,21
 611 740 611 740 767 740 c 0,22,23
 874 740 874 740 931 672 c 128,-1,24
 988 604 988 604 988 478 c 128,-1,25
 988 352 988 352 931 236.5 c 128,-1,26
 874 121 874 121 771 51 c 128,-1,27
 668 -19 668 -19 544 -19 c 0,28,29
 464 -19 464 -19 404 18 c 1,30,31
 293 84 293 84 266 247 c 0,32,33
 259 288 259 288 259 325.5 c 128,-1,34
 259 363 259 363 263 398 c 0,35,36
 281 572 281 572 347 730 c 128,-1,37
 413 888 413 888 511 1004.5 c 128,-1,38
 609 1121 609 1121 739.5 1190 c 128,-1,39
 870 1259 870 1259 1011 1259 c 0,0,1
EndSplineSet
EndChar

StartChar: seven
Encoding: 55 55 27
Width: 823
GlyphClass: 2
Flags: W
LayerCount: 2
Fore
SplineSet
413 1263 m 1,0,1
 604 1245 604 1245 827.5 1245 c 128,-1,2
 1051 1245 1051 1245 1164 1253 c 1,3,-1
 1176 1233 l 1,4,5
 932 940 932 940 742 610.5 c 128,-1,6
 552 281 552 281 457 13 c 1,7,8
 354 -16 354 -16 287 -55 c 1,9,-1
 272 -35 l 1,10,11
 403 267 403 267 622 580 c 0,12,13
 730 736 730 736 816.5 850.5 c 128,-1,14
 903 965 903 965 1025 1118 c 1,15,-1
 1022 1125 l 1,16,17
 846 1117 846 1117 509 1117 c 0,18,19
 423 1117 423 1117 339 1002 c 1,20,-1
 310 1005 l 1,21,-1
 413 1263 l 1,0,1
EndSplineSet
EndChar

StartChar: eight
Encoding: 56 56 28
Width: 823
GlyphClass: 2
Flags: W
LayerCount: 2
Fore
SplineSet
418 921 m 0,0,1
 418 1056 418 1056 526.5 1160 c 128,-1,2
 635 1264 635 1264 795 1264 c 0,3,4
 896 1264 896 1264 958 1213 c 128,-1,5
 1020 1162 1020 1162 1020 1075 c 0,6,7
 1020 955 1020 955 944 872 c 1,8,9
 903 829 903 829 861 796.5 c 128,-1,10
 819 764 819 764 748 717 c 1,11,12
 914 610 914 610 956 504 c 0,13,14
 974 456 974 456 974 402 c 0,15,16
 974 219 974 219 838 100 c 128,-1,17
 702 -19 702 -19 490 -19 c 0,18,19
 360 -19 360 -19 278.5 47.5 c 128,-1,20
 197 114 197 114 197 227 c 0,21,22
 197 344 197 344 250 424 c 0,23,24
 277 464 277 464 307.5 496 c 128,-1,25
 338 528 338 528 384 559 c 0,26,27
 466 613 466 613 569 663 c 1,28,29
 418 763 418 763 418 921 c 0,0,1
338 268 m 0,30,31
 338 175 338 175 399.5 114.5 c 128,-1,32
 461 54 461 54 557 54 c 0,33,34
 676 54 676 54 759.5 119.5 c 128,-1,35
 843 185 843 185 855 305 c 0,36,37
 860 348 860 348 841 402 c 0,38,39
 834 422 834 422 813.5 448 c 128,-1,40
 793 474 793 474 782 487.5 c 128,-1,41
 771 501 771 501 740.5 527.5 c 128,-1,42
 710 554 710 554 700 562 c 128,-1,43
 690 570 690 570 654.5 597 c 128,-1,44
 619 624 619 624 614 628 c 1,45,46
 494 564 494 564 422 486 c 1,47,48
 338 397 338 397 338 268 c 0,30,31
885 1029 m 0,49,50
 885 1105 885 1105 838 1146.5 c 128,-1,51
 791 1188 791 1188 718.5 1188 c 128,-1,52
 646 1188 646 1188 587.5 1135.5 c 128,-1,53
 529 1083 529 1083 529 991 c 0,54,55
 529 913 529 913 588 852 c 0,56,57
 619 820 619 820 642 801 c 128,-1,58
 665 782 665 782 709 749 c 1,59,60
 885 880 885 880 885 1029 c 0,49,50
EndSplineSet
EndChar

StartChar: nine
Encoding: 57 57 29
Width: 823
GlyphClass: 2
Flags: W
LayerCount: 2
Fore
SplineSet
384 3 m 0,0,1
 315 -15 315 -15 251 -15 c 128,-1,2
 187 -15 187 -15 129 -3 c 1,3,4
 135 33 135 33 157 58 c 1,5,6
 200 51 200 51 256.5 51 c 128,-1,7
 313 51 313 51 380 70 c 0,8,9
 486 101 486 101 565 168.5 c 128,-1,10
 644 236 644 236 706 331 c 0,11,12
 827 518 827 518 852 766 c 0,13,14
 856 807 856 807 856 845 c 0,15,16
 856 970 856 970 808 1051 c 0,17,18
 745 1157 745 1157 624 1157 c 0,19,20
 521 1157 521 1157 454.5 1078 c 128,-1,21
 388 999 388 999 375 874 c 0,22,23
 373 853 373 853 373 834 c 0,24,25
 373 746 373 746 419 694 c 0,26,27
 475 631 475 631 597 631 c 0,28,29
 689 631 689 631 759 663 c 1,30,-1
 769 635 l 1,31,32
 704 573 704 573 647 546 c 128,-1,33
 590 519 590 519 510 519 c 0,34,35
 387 519 387 519 328 606 c 0,36,37
 280 675 280 675 280 779 c 0,38,39
 280 805 280 805 283 834 c 0,40,41
 302 1016 302 1016 423.5 1140 c 128,-1,42
 545 1264 545 1264 710 1264 c 0,43,44
 860 1264 860 1264 936 1148 c 0,45,46
 997 1054 997 1054 997 918 c 0,47,48
 997 884 997 884 993 847 c 0,49,50
 977 698 977 698 926 558.5 c 128,-1,51
 875 419 875 419 794 306 c 0,52,53
 618 63 618 63 384 3 c 0,0,1
EndSplineSet
EndChar

StartChar: colon
Encoding: 58 58 30
Width: 485
GlyphClass: 2
Flags: W
LayerCount: 2
Fore
SplineSet
483 891 m 0,0,1
 545 891 545 891 545 812 c 0,2,3
 545 743 545 743 512.5 698 c 128,-1,4
 480 653 480 653 432 653 c 0,5,6
 405 653 405 653 388 672.5 c 128,-1,7
 371 692 371 692 371 730 c 0,8,9
 371 795 371 795 402.5 843 c 128,-1,10
 434 891 434 891 483 891 c 0,0,1
326 219 m 0,11,12
 388 219 388 219 388 140 c 0,13,14
 388 71 388 71 355.5 26 c 128,-1,15
 323 -19 323 -19 275 -19 c 0,16,17
 248 -19 248 -19 231 0.5 c 128,-1,18
 214 20 214 20 214 58 c 0,19,20
 214 123 214 123 245.5 171 c 128,-1,21
 277 219 277 219 326 219 c 0,11,12
EndSplineSet
EndChar

StartChar: semicolon
Encoding: 59 59 31
Width: 449
GlyphClass: 2
Flags: W
LayerCount: 2
Fore
SplineSet
170 -39 m 0,0,1
 170 -14 170 -14 135.5 29 c 128,-1,2
 101 72 101 72 101 100 c 0,3,4
 101 151 101 151 130.5 181 c 128,-1,5
 160 211 160 211 199.5 211 c 128,-1,6
 239 211 239 211 268 180 c 128,-1,7
 297 149 297 149 297 91 c 0,8,9
 297 -102 297 -102 22 -289 c 1,10,-1
 8 -252 l 1,11,12
 67 -208 67 -208 118.5 -149 c 128,-1,13
 170 -90 170 -90 170 -39 c 0,0,1
462 889 m 0,14,15
 524 889 524 889 524 810 c 0,16,17
 524 741 524 741 491.5 696 c 128,-1,18
 459 651 459 651 411 651 c 0,19,20
 384 651 384 651 367 670.5 c 128,-1,21
 350 690 350 690 350 728 c 0,22,23
 350 793 350 793 381.5 841 c 128,-1,24
 413 889 413 889 462 889 c 0,14,15
EndSplineSet
EndChar

StartChar: less
Encoding: 60 60 32
Width: 1065
GlyphClass: 2
Flags: W
LayerCount: 2
Fore
SplineSet
1213 231 m 1,0,-1
 1199 123 l 1,1,-1
 357 533 l 1,2,-1
 368 628 l 1,3,-1
 1312 1037 l 1,4,-1
 1298 930 l 1,5,-1
 504 579 l 1,6,-1
 1213 231 l 1,0,-1
EndSplineSet
EndChar

StartChar: equal
Encoding: 61 61 33
Width: 1065
GlyphClass: 2
Flags: W
LayerCount: 2
Fore
SplineSet
1106 565 m 1,0,-1
 186 565 l 1,1,-1
 243 663 l 1,2,-1
 1163 663 l 1,3,-1
 1106 565 l 1,0,-1
1074 201 m 1,4,-1
 154 201 l 1,5,-1
 211 299 l 1,6,-1
 1131 299 l 1,7,-1
 1074 201 l 1,4,-1
EndSplineSet
EndChar

StartChar: greater
Encoding: 62 62 34
Width: 1065
GlyphClass: 2
Flags: W
LayerCount: 2
Fore
SplineSet
141 231 m 1,0,-1
 934 579 l 1,1,-1
 226 930 l 1,2,-1
 240 1037 l 1,3,-1
 1082 628 l 1,4,-1
 1071 533 l 1,5,-1
 127 123 l 1,6,-1
 141 231 l 1,0,-1
EndSplineSet
EndChar

StartChar: question
Encoding: 63 63 35
Width: 711
GlyphClass: 2
Flags: W
LayerCount: 2
Fore
SplineSet
297 570 m 128,-1,1
 328 622 328 622 370 663.5 c 128,-1,2
 412 705 412 705 462.5 747.5 c 128,-1,3
 513 790 513 790 563.5 836 c 128,-1,4
 614 882 614 882 656.5 929.5 c 128,-1,5
 699 977 699 977 728 1037 c 0,6,7
 765 1111 765 1111 765 1197 c 128,-1,8
 765 1283 765 1283 718.5 1335.5 c 128,-1,9
 672 1388 672 1388 589.5 1388 c 128,-1,10
 507 1388 507 1388 425 1341 c 128,-1,11
 343 1294 343 1294 295 1216 c 1,12,-1
 272 1231 l 1,13,14
 332 1340 332 1340 447.5 1407.5 c 128,-1,15
 563 1475 563 1475 673.5 1475 c 128,-1,16
 784 1475 784 1475 848 1408 c 0,17,18
 903 1351 903 1351 903 1246 c 0,19,20
 903 1145 903 1145 864 1063.5 c 128,-1,21
 825 982 825 982 775.5 927.5 c 128,-1,22
 726 873 726 873 667 823 c 128,-1,23
 608 773 608 773 550 729 c 128,-1,24
 492 685 492 685 444 644 c 0,25,26
 327 543 327 543 327 450 c 0,27,28
 327 409 327 409 355 368 c 1,29,-1
 312 359 l 1,30,31
 266 399 266 399 266 458.5 c 128,-1,0
 266 518 266 518 297 570 c 128,-1,1
290 218 m 0,32,33
 358 218 358 218 358 141 c 0,34,35
 358 73 358 73 322.5 29 c 128,-1,36
 287 -15 287 -15 235 -15 c 0,37,38
 206 -15 206 -15 187 4 c 128,-1,39
 168 23 168 23 168 61 c 0,40,41
 168 124 168 124 202 171 c 128,-1,42
 236 218 236 218 290 218 c 0,32,33
EndSplineSet
EndChar

StartChar: at
Encoding: 64 64 36
Width: 1309
GlyphClass: 2
Flags: W
LayerCount: 2
Fore
SplineSet
837 828 m 0,0,1
 773 828 773 828 723.5 784.5 c 128,-1,2
 674 741 674 741 646 672 c 0,3,4
 592 537 592 537 592 385 c 0,5,6
 592 322 592 322 623 322 c 0,7,8
 669 322 669 322 737 408.5 c 128,-1,9
 805 495 805 495 861 607 c 128,-1,10
 917 719 917 719 946 813 c 1,11,12
 929 815 929 815 895.5 821.5 c 128,-1,13
 862 828 862 828 837 828 c 0,0,1
914 902 m 2,14,-1
 1034 901 l 1,15,-1
 1045 901 l 2,16,17
 1074 901 1074 901 1074 873 c 0,18,19
 1074 850 1074 850 1006 601 c 128,-1,20
 938 352 938 352 926.5 312 c 128,-1,21
 915 272 915 272 948 268 c 0,22,23
 968 266 968 266 1003.5 266 c 128,-1,24
 1039 266 1039 266 1093 286.5 c 128,-1,25
 1147 307 1147 307 1187.5 351.5 c 128,-1,26
 1228 396 1228 396 1256 456 c 0,27,28
 1310 570 1310 570 1310 699 c 0,29,30
 1310 920 1310 920 1194 1041 c 128,-1,31
 1078 1162 1078 1162 848 1162 c 0,32,33
 744 1162 744 1162 653.5 1125 c 128,-1,34
 563 1088 563 1088 497 1025 c 128,-1,35
 431 962 431 962 383 879 c 0,36,37
 288 715 288 715 288 513 c 0,38,39
 288 244 288 244 414 90 c 0,40,41
 478 11 478 11 583 -30.5 c 128,-1,42
 688 -72 688 -72 821 -72 c 128,-1,43
 954 -72 954 -72 1064.5 -14.5 c 128,-1,44
 1175 43 1175 43 1289 155 c 1,45,-1
 1304 134 l 1,46,47
 1078 -128 1078 -128 787 -128 c 0,48,49
 661 -128 661 -128 557.5 -96 c 128,-1,50
 454 -64 454 -64 384.5 -9.5 c 128,-1,51
 315 45 315 45 266 118 c 1,52,53
 175 257 175 257 175 440 c 0,54,55
 175 675 175 675 306 874 c 0,56,57
 372 975 372 975 461.5 1052.5 c 128,-1,58
 551 1130 551 1130 674.5 1176 c 128,-1,59
 798 1222 798 1222 926 1222 c 128,-1,60
 1054 1222 1054 1222 1145.5 1185 c 128,-1,61
 1237 1148 1237 1148 1292 1084 c 0,62,63
 1404 955 1404 955 1404 773 c 0,64,65
 1404 666 1404 666 1369.5 561 c 128,-1,66
 1335 456 1335 456 1273 372 c 128,-1,67
 1211 288 1211 288 1112 235.5 c 128,-1,68
 1013 183 1013 183 935 183 c 0,69,70
 930 183 930 183 914.5 182.5 c 128,-1,71
 899 182 899 182 881.5 188 c 128,-1,72
 864 194 864 194 858 206 c 0,73,74
 847 227 847 227 847 255.5 c 128,-1,75
 847 284 847 284 865 388.5 c 128,-1,76
 883 493 883 493 891 566 c 1,77,-1
 889 567 l 1,78,79
 863 509 863 509 805.5 423 c 128,-1,80
 748 337 748 337 674 262 c 128,-1,81
 600 187 600 187 553 187 c 0,82,83
 520 187 520 187 500 229.5 c 128,-1,84
 480 272 480 272 480 334.5 c 128,-1,85
 480 397 480 397 498.5 476.5 c 128,-1,86
 517 556 517 556 554 631.5 c 128,-1,87
 591 707 591 707 642 767.5 c 128,-1,88
 693 828 693 828 764 865 c 128,-1,89
 835 902 835 902 914 902 c 2,14,-1
EndSplineSet
EndChar

StartChar: A
Encoding: 65 65 37
Width: 1155
GlyphClass: 2
Flags: W
LayerCount: 2
Fore
SplineSet
1017 1208 m 1,0,-1
 833 1213 l 1,1,2
 702 1213 702 1213 646 1195 c 0,3,4
 572 1171 572 1171 534 1133 c 0,5,6
 476 1075 476 1075 450 1001 c 0,7,8
 416 907 416 907 406 769 c 1,9,10
 388 736 388 736 351.5 714.5 c 128,-1,11
 315 693 315 693 276 691 c 1,12,13
 311 1027 311 1027 551 1206 c 0,14,15
 689 1310 689 1310 915 1310 c 0,16,17
 979 1310 979 1310 1075 1303.5 c 128,-1,18
 1171 1297 1171 1297 1201 1295 c 1,19,20
 1171 1245 1171 1245 1142 1091 c 128,-1,21
 1113 937 1113 937 1087 678.5 c 128,-1,22
 1061 420 1061 420 1061 296 c 128,-1,23
 1061 172 1061 172 1077.5 133.5 c 128,-1,24
 1094 95 1094 95 1130 95 c 0,25,26
 1188 95 1188 95 1274 144 c 1,27,-1
 1279 130 l 1,28,29
 1212 76 1212 76 1172.5 49.5 c 128,-1,30
 1133 23 1133 23 1060 -20 c 1,31,32
 988 -20 988 -20 960 34 c 128,-1,33
 932 88 932 88 932 204 c 0,34,35
 932 247 932 247 947 477 c 1,36,-1
 670 477 l 1,37,38
 577 316 577 316 481 156 c 1,39,40
 368 6 368 6 261 -66 c 128,-1,41
 154 -138 154 -138 40 -138 c 2,42,-1
 -67 -138 l 1,43,44
 -40 -48 -40 -48 24 -15 c 1,45,46
 85 -32 85 -32 145 -32 c 128,-1,47
 205 -32 205 -32 238.5 -17 c 128,-1,48
 272 -2 272 -2 308.5 40.5 c 128,-1,49
 345 83 345 83 402 172.5 c 128,-1,50
 459 262 459 262 690 663.5 c 128,-1,51
 921 1065 921 1065 1017 1208 c 1,0,-1
1006 1059 m 1,52,53
 934 941 934 941 852 795.5 c 128,-1,54
 770 650 770 650 719 562 c 1,55,-1
 954 562 l 1,56,57
 978 864 978 864 1006 1059 c 1,52,53
EndSplineSet
EndChar

StartChar: B
Encoding: 66 66 38
Width: 1118
GlyphClass: 2
Flags: W
LayerCount: 2
Fore
SplineSet
805 682 m 2,0,-1
 760 682 l 1,1,2
 762 715 762 715 780 739 c 128,-1,3
 798 763 798 763 836.5 763 c 128,-1,4
 875 763 875 763 920 757 c 1,5,6
 1007 757 1007 757 1075 842 c 128,-1,7
 1143 927 1143 927 1143 1019.5 c 128,-1,8
 1143 1112 1143 1112 1087.5 1168 c 128,-1,9
 1032 1224 1032 1224 915 1224 c 0,10,11
 612 1224 612 1224 450.5 1096 c 128,-1,12
 289 968 289 968 263 702 c 1,13,14
 229 640 229 640 144 635 c 1,15,16
 182 926 182 926 382 1112 c 0,17,18
 481 1205 481 1205 628.5 1257 c 128,-1,19
 776 1309 776 1309 950.5 1309 c 128,-1,20
 1125 1309 1125 1309 1206.5 1254.5 c 128,-1,21
 1288 1200 1288 1200 1288 1109 c 0,22,23
 1288 1032 1288 1032 1214.5 924 c 128,-1,24
 1141 816 1141 816 1035 749 c 1,25,26
 1148 730 1148 730 1202 674.5 c 128,-1,27
 1256 619 1256 619 1256 535 c 128,-1,28
 1256 451 1256 451 1196.5 353 c 128,-1,29
 1137 255 1137 255 1046 178 c 128,-1,30
 955 101 955 101 839.5 50.5 c 128,-1,31
 724 0 724 0 618 0 c 2,32,-1
 242 0 l 1,33,-1
 236 14 l 1,34,35
 276 22 276 22 310.5 45.5 c 128,-1,36
 345 69 345 69 368 97 c 128,-1,37
 391 125 391 125 411 164 c 0,38,39
 441 223 441 223 464 306 c 0,40,41
 550 611 550 611 617 941 c 0,42,43
 631 1010 631 1010 682.5 1082 c 128,-1,44
 734 1154 734 1154 799 1179 c 1,45,-1
 808 1173 l 1,46,47
 771 1128 771 1128 744.5 1017 c 128,-1,48
 718 906 718 906 697.5 776.5 c 128,-1,49
 677 647 677 647 650 516 c 128,-1,50
 623 385 623 385 570 274 c 128,-1,51
 517 163 517 163 441 113 c 1,52,-1
 447 100 l 1,53,-1
 705 100 l 2,54,55
 800 100 800 100 880.5 130.5 c 128,-1,56
 961 161 961 161 1013 210.5 c 128,-1,57
 1065 260 1065 260 1094 322.5 c 128,-1,58
 1123 385 1123 385 1123 450 c 0,59,60
 1123 682 1123 682 805 682 c 2,0,-1
EndSplineSet
EndChar

StartChar: C
Encoding: 67 67 39
Width: 967
GlyphClass: 2
Flags: W
LayerCount: 2
Fore
SplineSet
843 768 m 0,0,1
 936 768 936 768 995.5 847 c 128,-1,2
 1055 926 1055 926 1055 1015.5 c 128,-1,3
 1055 1105 1055 1105 1010.5 1159.5 c 128,-1,4
 966 1214 966 1214 884 1214 c 128,-1,5
 802 1214 802 1214 726 1170.5 c 128,-1,6
 650 1127 650 1127 586 1047 c 128,-1,7
 522 967 522 967 472 863.5 c 128,-1,8
 422 760 422 760 394 631.5 c 128,-1,9
 366 503 366 503 366 370 c 0,10,11
 366 226 366 226 418 124 c 0,12,13
 444 71 444 71 490 40 c 128,-1,14
 536 9 536 9 596 9 c 0,15,16
 701 9 701 9 795 81.5 c 128,-1,17
 889 154 889 154 962 282 c 1,18,-1
 988 265 l 1,19,20
 914 121 914 121 803 14 c 0,21,22
 746 -41 746 -41 677.5 -73.5 c 128,-1,23
 609 -106 609 -106 540.5 -106 c 128,-1,24
 472 -106 472 -106 418.5 -83.5 c 128,-1,25
 365 -61 365 -61 331.5 -24.5 c 128,-1,26
 298 12 298 12 276 64 c 0,27,28
 237 155 237 155 237 282 c 128,-1,29
 237 409 237 409 266 539 c 128,-1,30
 295 669 295 669 344.5 781 c 128,-1,31
 394 893 394 893 462 990.5 c 128,-1,32
 530 1088 530 1088 606.5 1156.5 c 128,-1,33
 683 1225 683 1225 767.5 1264.5 c 128,-1,34
 852 1304 852 1304 932 1304 c 0,35,36
 1044 1304 1044 1304 1100 1246.5 c 128,-1,37
 1156 1189 1156 1189 1156 1101.5 c 128,-1,38
 1156 1014 1156 1014 1113 926.5 c 128,-1,39
 1070 839 1070 839 994.5 779 c 128,-1,40
 919 719 919 719 838 719 c 0,41,42
 784 719 784 719 746.5 750.5 c 128,-1,43
 709 782 709 782 709 835 c 0,44,45
 709 847 709 847 710 853 c 1,46,-1
 730 862 l 1,47,48
 735 819 735 819 762.5 793.5 c 128,-1,49
 790 768 790 768 843 768 c 0,0,1
EndSplineSet
EndChar

StartChar: D
Encoding: 68 68 40
Width: 1303
GlyphClass: 2
Flags: W
LayerCount: 2
Fore
SplineSet
650 100 m 2,0,1
 756 100 756 100 853 145.5 c 128,-1,2
 950 191 950 191 1022.5 266.5 c 128,-1,3
 1095 342 1095 342 1149.5 436 c 128,-1,4
 1204 530 1204 530 1231.5 631 c 128,-1,5
 1259 732 1259 732 1259 822.5 c 128,-1,6
 1259 913 1259 913 1234 984 c 128,-1,7
 1209 1055 1209 1055 1156.5 1110 c 128,-1,8
 1104 1165 1104 1165 1014.5 1195.5 c 128,-1,9
 925 1226 925 1226 805 1226 c 0,10,11
 595 1226 595 1226 459.5 1091 c 128,-1,12
 324 956 324 956 299 702 c 1,13,14
 265 640 265 640 180 635 c 1,15,16
 209 919 209 919 392 1106 c 0,17,18
 484 1200 484 1200 629 1254.5 c 128,-1,19
 774 1309 774 1309 956 1309 c 0,20,21
 1071 1309 1071 1309 1157 1278.5 c 128,-1,22
 1243 1248 1243 1248 1292 1193 c 0,23,24
 1388 1085 1388 1085 1388 919 c 0,25,26
 1388 734 1388 734 1276 516 c 0,27,28
 1223 415 1223 415 1146 321 c 128,-1,29
 1069 227 1069 227 979.5 156 c 128,-1,30
 890 85 890 85 781.5 42.5 c 128,-1,31
 673 0 673 0 563 0 c 2,32,-1
 187 0 l 1,33,-1
 181 14 l 1,34,35
 221 22 221 22 255.5 45.5 c 128,-1,36
 290 69 290 69 313 97 c 128,-1,37
 336 125 336 125 356 164 c 0,38,39
 386 223 386 223 409 306 c 0,40,41
 495 611 495 611 562 941 c 0,42,43
 576 1010 576 1010 627.5 1082 c 128,-1,44
 679 1154 679 1154 744 1179 c 1,45,-1
 753 1173 l 1,46,47
 716 1128 716 1128 689.5 1017 c 128,-1,48
 663 906 663 906 642.5 776.5 c 128,-1,49
 622 647 622 647 595 516 c 128,-1,50
 568 385 568 385 515 274 c 128,-1,51
 462 163 462 163 386 113 c 1,52,-1
 392 100 l 1,53,-1
 650 100 l 2,0,1
EndSplineSet
EndChar

StartChar: E
Encoding: 69 69 41
Width: 1147
GlyphClass: 2
Flags: W
LayerCount: 2
Fore
SplineSet
925 661 m 2,0,-1
 693 664 l 1,1,2
 611 362 611 362 599 323 c 0,3,4
 563 201 563 201 451 105 c 1,5,-1
 454 98 l 1,6,-1
 904 98 l 2,7,8
 1035 98 1035 98 1194 222 c 1,9,-1
 1211 199 l 1,10,11
 1193 182 1193 182 1141.5 131.5 c 128,-1,12
 1090 81 1090 81 1051.5 50.5 c 128,-1,13
 1013 20 1013 20 984.5 5.5 c 128,-1,14
 956 -9 956 -9 934.5 -9 c 128,-1,15
 913 -9 913 -9 869.5 -4.5 c 128,-1,16
 826 0 826 0 787 0 c 2,17,-1
 247 0 l 1,18,-1
 242 14 l 1,19,20
 282 22 282 22 316.5 45.5 c 128,-1,21
 351 69 351 69 374 97 c 128,-1,22
 397 125 397 125 417 164 c 0,23,24
 450 230 450 230 484 349.5 c 128,-1,25
 518 469 518 469 564.5 650 c 128,-1,26
 611 831 611 831 633 920 c 0,27,28
 686 1133 686 1133 739 1204 c 1,29,-1
 667 1204 l 2,30,31
 492 1204 492 1204 412.5 1110 c 128,-1,32
 333 1016 333 1016 311 785 c 1,33,34
 285 695 285 695 182 691 c 1,35,36
 201 887 201 887 287 1029 c 128,-1,37
 373 1171 373 1171 553 1269 c 0,38,39
 590 1289 590 1289 647 1297 c 128,-1,40
 704 1305 704 1305 815 1305 c 2,41,-1
 1354 1305 l 1,42,43
 1328 1272 1328 1272 1283 1237.5 c 128,-1,44
 1238 1203 1238 1203 1204 1203 c 2,45,-1
 842 1204 l 1,46,47
 825 1174 825 1174 820 1145 c 1,48,-1
 722 772 l 1,49,-1
 747 772 l 1,50,-1
 951 766 l 1,51,52
 1050 766 1050 766 1121 784 c 1,53,-1
 1130 776 l 1,54,55
 1094 731 1094 731 1039 696 c 128,-1,56
 984 661 984 661 925 661 c 2,0,-1
EndSplineSet
EndChar

StartChar: F
Encoding: 70 70 42
Width: 1073
GlyphClass: 2
Flags: W
LayerCount: 2
Fore
SplineSet
1097 661 m 2,0,-1
 864 664 l 1,1,2
 847 599 847 599 819 498.5 c 128,-1,3
 791 398 791 398 786 380 c 0,4,5
 732 182 732 182 626.5 83 c 128,-1,6
 521 -16 521 -16 386 -16 c 0,7,8
 380 -16 380 -16 375 -16 c 2,9,-1
 270 -13 l 1,10,11
 289 67 289 67 352 98 c 1,12,13
 416 81 416 81 491 81 c 0,14,15
 537 81 537 81 568 109.5 c 128,-1,16
 599 138 599 138 624 223 c 0,17,18
 681 417 681 417 742 663 c 128,-1,19
 803 909 803 909 838.5 1031.5 c 128,-1,20
 874 1154 874 1154 910 1204 c 1,21,-1
 839 1204 l 2,22,23
 664 1204 664 1204 581 1108.5 c 128,-1,24
 498 1013 498 1013 482 785 c 1,25,26
 447 736 447 736 358 736 c 1,27,28
 367 912 367 912 457 1041 c 128,-1,29
 547 1170 547 1170 726 1268 c 0,30,31
 763 1288 763 1288 819 1296 c 128,-1,32
 875 1304 875 1304 986 1304 c 2,33,-1
 1259 1304 l 2,34,35
 1467 1304 1467 1304 1525 1306 c 1,36,37
 1503 1273 1503 1273 1456.5 1238 c 128,-1,38
 1410 1203 1410 1203 1376 1203 c 2,39,-1
 1014 1204 l 1,40,41
 994 1161 994 1161 990 1146 c 2,42,-1
 895 772 l 1,43,44
 952 772 952 772 1022.5 768.5 c 128,-1,45
 1093 765 1093 765 1122 765 c 0,46,47
 1212 765 1212 765 1293 783 c 1,48,-1
 1301 776 l 1,49,50
 1265 731 1265 731 1210 696 c 128,-1,51
 1155 661 1155 661 1097 661 c 2,0,-1
EndSplineSet
EndChar

StartChar: G
Encoding: 71 71 43
Width: 1155
GlyphClass: 2
Flags: W
LayerCount: 2
Fore
SplineSet
1039 630 m 2,0,-1
 1101 631 l 2,1,2
 1160 631 1160 631 1244 629 c 1,3,-1
 1246 620 l 1,4,5
 1220 606 1220 606 1192 566.5 c 128,-1,6
 1164 527 1164 527 1147 469 c 2,7,-1
 1054 140 l 2,8,9
 986 -100 986 -100 850.5 -232 c 128,-1,10
 715 -364 715 -364 540 -364 c 0,11,12
 508 -364 508 -364 462 -356 c 1,13,14
 486 -284 486 -284 536 -261 c 1,15,16
 601 -275 601 -275 644 -275 c 0,17,18
 734 -275 734 -275 796 -217.5 c 128,-1,19
 858 -160 858 -160 901 -13 c 2,20,-1
 949 149 l 1,21,-1
 936 154 l 1,22,23
 849 72 849 72 764 31.5 c 128,-1,24
 679 -9 679 -9 563 -9 c 0,25,26
 425 -9 425 -9 347.5 84 c 128,-1,27
 270 177 270 177 270 340 c 0,28,29
 270 455 270 455 306 576.5 c 128,-1,30
 342 698 342 698 402 804 c 128,-1,31
 462 910 462 910 543 1006 c 128,-1,32
 624 1102 624 1102 711.5 1170 c 128,-1,33
 799 1238 799 1238 892.5 1278 c 128,-1,34
 986 1318 986 1318 1076 1318 c 128,-1,35
 1166 1318 1166 1318 1221.5 1304.5 c 128,-1,36
 1277 1291 1277 1291 1344 1255 c 1,37,38
 1339 1210 1339 1210 1313.5 1180 c 128,-1,39
 1288 1150 1288 1150 1239 1116 c 1,40,41
 1142 1223 1142 1223 1010.5 1223 c 128,-1,42
 879 1223 879 1223 755.5 1120.5 c 128,-1,43
 632 1018 632 1018 545 849.5 c 128,-1,44
 458 681 458 681 427 488 c 0,45,46
 417 429 417 429 417 375 c 0,47,48
 417 236 417 236 480.5 161 c 128,-1,49
 544 86 544 86 655 86 c 0,50,51
 920 86 920 86 993 342 c 2,52,-1
 1048 533 l 1,53,54
 969 533 969 533 920.5 527 c 128,-1,55
 872 521 872 521 828 502 c 1,56,-1
 811 517 l 1,57,58
 864 568 864 568 911 594.5 c 128,-1,59
 958 621 958 621 981.5 625 c 128,-1,60
 1005 629 1005 629 1039 630 c 2,0,-1
EndSplineSet
EndChar

StartChar: H
Encoding: 72 72 44
Width: 1266
GlyphClass: 2
Flags: W
LayerCount: 2
Fore
SplineSet
1372 1304 m 2,0,-1
 1571 1304 l 1,1,-1
 1572 1299 l 1,2,3
 1496 1255 1496 1255 1465 1146 c 2,4,-1
 1234 323 l 2,5,6
 1211 241 1211 241 1185 191.5 c 128,-1,7
 1159 142 1159 142 1108 106 c 1,8,-1
 1110 98 l 1,9,-1
 1170 98 l 2,10,11
 1233 98 1233 98 1271 107.5 c 128,-1,12
 1309 117 1309 117 1351 144 c 1,13,-1
 1358 133 l 1,14,15
 1306 61 1306 61 1258.5 30.5 c 128,-1,16
 1211 0 1211 0 1138 0 c 2,17,-1
 872 0 l 1,18,-1
 871 14 l 1,19,20
 973 34 973 34 1026 120 c 0,21,22
 1052 164 1052 164 1068.5 205 c 128,-1,23
 1085 246 1085 246 1103 307 c 2,24,-1
 1207 664 l 1,25,-1
 708 664 l 1,26,27
 654 463 654 463 630 381 c 0,28,29
 572 182 572 182 465 83 c 128,-1,30
 358 -16 358 -16 210 -16 c 2,31,-1
 107 -16 l 1,32,33
 135 67 135 67 202 97 c 1,34,35
 266 80 266 80 322.5 80 c 128,-1,36
 379 80 379 80 405.5 107 c 128,-1,37
 432 134 432 134 459 222 c 0,38,39
 514 407 514 407 587 673.5 c 128,-1,40
 660 940 660 940 696 1052 c 128,-1,41
 732 1164 732 1164 765 1206 c 1,42,-1
 631 1206 l 2,43,44
 545 1206 545 1206 484 1186.5 c 128,-1,45
 423 1167 423 1167 376 1122 c 0,46,47
 283 1033 283 1033 263 798 c 1,48,49
 248 773 248 773 212 755.5 c 128,-1,50
 176 738 176 738 139 738 c 1,51,52
 154 897 154 897 238 1028.5 c 128,-1,53
 322 1160 322 1160 440 1231 c 128,-1,54
 558 1302 558 1302 680 1302 c 2,55,-1
 945 1302 l 1,56,-1
 945 1296 l 1,57,58
 927 1284 927 1284 899 1244.5 c 128,-1,59
 871 1205 871 1205 850 1155 c 0,60,61
 799 1032 799 1032 733 748 c 1,62,-1
 1229 748 l 1,63,-1
 1274 909 l 2,64,65
 1308 1029 1308 1029 1337.5 1095.5 c 128,-1,66
 1367 1162 1367 1162 1404 1206 c 1,67,-1
 1279 1206 l 2,68,69
 1216 1206 1216 1206 1143 1196 c 1,70,-1
 1137 1205 l 1,71,72
 1177 1263 1177 1263 1224.5 1283.5 c 128,-1,73
 1272 1304 1272 1304 1372 1304 c 2,0,-1
EndSplineSet
EndChar

StartChar: I
Encoding: 73 73 45
Width: 713
GlyphClass: 2
Flags: W
LayerCount: 2
Fore
SplineSet
667 1204 m 2,0,1
 498 1204 498 1204 418.5 1117.5 c 128,-1,2
 339 1031 339 1031 314 820 c 1,3,4
 311 810 311 810 311 764 c 1,5,6
 275 694 275 694 183 691 c 1,7,8
 202 888 202 888 287 1029.5 c 128,-1,9
 372 1171 372 1171 554 1269 c 0,10,11
 621 1305 621 1305 808 1305 c 2,12,-1
 964 1305 l 1,13,-1
 966 1298 l 1,14,15
 938 1283 938 1283 908.5 1243 c 128,-1,16
 879 1203 879 1203 861.5 1137 c 128,-1,17
 844 1071 844 1071 774 816 c 128,-1,18
 704 561 704 561 657.5 379.5 c 128,-1,19
 611 198 611 198 495.5 89 c 128,-1,20
 380 -20 380 -20 261 -20 c 2,21,-1
 121 -20 l 1,22,23
 144 66 144 66 216 101 c 1,24,25
 304 81 304 81 374 81 c 0,26,27
 468 81 468 81 524 306 c 0,28,29
 575 507 575 507 608 644.5 c 128,-1,30
 641 782 641 782 661.5 862.5 c 128,-1,31
 682 943 682 943 695 988.5 c 128,-1,32
 708 1034 708 1034 724 1080 c 0,33,34
 752 1165 752 1165 781 1204 c 1,35,-1
 667 1204 l 2,0,1
EndSplineSet
EndChar

StartChar: J
Encoding: 74 74 46
Width: 750
GlyphClass: 2
Flags: W
LayerCount: 2
Fore
SplineSet
752 1204 m 2,0,1
 585 1204 585 1204 505.5 1117.5 c 128,-1,2
 426 1031 426 1031 401 820 c 0,3,4
 398 799 398 799 398 764 c 1,5,6
 360 693 360 693 269 690 c 1,7,8
 288 888 288 888 373.5 1029.5 c 128,-1,9
 459 1171 459 1171 641 1269 c 0,10,11
 705 1304 705 1304 894 1304 c 2,12,-1
 1049 1304 l 1,13,-1
 1051 1298 l 1,14,15
 1024 1282 1024 1282 995 1242 c 128,-1,16
 966 1202 966 1202 952 1145 c 0,17,18
 812 575 812 575 643 5 c 0,19,20
 627 -49 627 -49 584 -113.5 c 128,-1,21
 541 -178 541 -178 485 -234.5 c 128,-1,22
 429 -291 429 -291 360.5 -328.5 c 128,-1,23
 292 -366 292 -366 232 -366 c 0,24,25
 81 -366 81 -366 -30 -234 c 1,26,27
 -28 -203 -28 -203 0 -178.5 c 128,-1,28
 28 -154 28 -154 55 -154 c 0,29,30
 60 -154 60 -154 65 -155 c 1,31,32
 148 -241 148 -241 206 -262 c 1,33,34
 237 -272 237 -272 269 -272 c 0,35,36
 359 -272 359 -272 432.5 -196 c 128,-1,37
 506 -120 506 -120 543 31 c 0,38,39
 627 377 627 377 716.5 703.5 c 128,-1,40
 806 1030 806 1030 828 1116 c 1,41,42
 847 1178 847 1178 873 1204 c 1,43,-1
 752 1204 l 2,0,1
EndSplineSet
EndChar

StartChar: K
Encoding: 75 75 47
Width: 1229
GlyphClass: 2
Flags: W
LayerCount: 2
Fore
SplineSet
1453 1304 m 0,0,1
 1489 1304 1489 1304 1558 1273 c 1,2,3
 1558 1207 1558 1207 1501 1173 c 1,4,5
 1437 1211 1437 1211 1382 1211 c 0,6,7
 1265 1211 1265 1211 1178 1061 c 1,8,9
 1067 867 1067 867 1020 810 c 0,10,11
 961 738 961 738 913 713 c 1,12,-1
 914 709 l 1,13,-1
 909 709 l 1,14,15
 965 694 965 694 1012.5 639 c 128,-1,16
 1060 584 1060 584 1087 522 c 128,-1,17
 1114 460 1114 460 1135 374 c 128,-1,18
 1156 288 1156 288 1173.5 224 c 128,-1,19
 1191 160 1191 160 1211 102 c 128,-1,20
 1231 44 1231 44 1248 14 c 128,-1,21
 1265 -16 1265 -16 1288 -39.5 c 128,-1,22
 1311 -63 1311 -63 1336.5 -70.5 c 128,-1,23
 1362 -78 1362 -78 1397 -78 c 0,24,25
 1456 -78 1456 -78 1514 -44 c 1,26,-1
 1524 -61 l 1,27,28
 1472 -111 1472 -111 1423 -137 c 128,-1,29
 1374 -163 1374 -163 1320 -163 c 128,-1,30
 1266 -163 1266 -163 1235.5 -152 c 128,-1,31
 1205 -141 1205 -141 1174 -110.5 c 128,-1,32
 1143 -80 1143 -80 1118 -24 c 0,33,34
 1066 90 1066 90 1014 342 c 1,35,36
 972 537 972 537 932 605 c 0,37,38
 915 635 915 635 889 656.5 c 128,-1,39
 863 678 863 678 832 678 c 2,40,-1
 782 678 l 1,41,42
 712 395 712 395 706 372 c 0,43,44
 651 175 651 175 545.5 77 c 128,-1,45
 440 -21 440 -21 296 -21 c 2,46,-1
 190 -21 l 1,47,48
 229 59 229 59 281 90 c 1,49,50
 339 74 339 74 413 74 c 0,51,52
 457 74 457 74 485.5 101.5 c 128,-1,53
 514 129 514 129 539 215 c 0,54,55
 600 424 600 424 663.5 675 c 128,-1,56
 727 926 727 926 760.5 1040 c 128,-1,57
 794 1154 794 1154 826 1198 c 1,58,-1
 687 1198 l 2,59,60
 496 1198 496 1198 412 1044 c 0,61,62
 367 961 367 961 346 823 c 1,63,-1
 343 756 l 1,64,65
 304 686 304 686 212 683 c 1,66,67
 233 881 233 881 318 1022.5 c 128,-1,68
 403 1164 403 1164 584 1262 c 0,69,70
 619 1280 619 1280 675.5 1287 c 128,-1,71
 732 1294 732 1294 845 1294 c 2,72,-1
 1009 1294 l 1,73,-1
 1010 1289 l 1,74,75
 991 1277 991 1277 962.5 1237.5 c 128,-1,76
 934 1198 934 1198 915 1148 c 0,77,78
 872 1038 872 1038 793 724 c 1,79,-1
 813 723 l 1,80,81
 865 735 865 735 912 773.5 c 128,-1,82
 959 812 959 812 995 864 c 128,-1,83
 1031 916 1031 916 1067 976 c 128,-1,84
 1103 1036 1103 1036 1142 1093.5 c 128,-1,85
 1181 1151 1181 1151 1224 1198.5 c 128,-1,86
 1267 1246 1267 1246 1325.5 1275 c 128,-1,87
 1384 1304 1384 1304 1453 1304 c 0,0,1
EndSplineSet
EndChar

StartChar: L
Encoding: 76 76 48
Width: 1081
GlyphClass: 2
Flags: W
LayerCount: 2
Fore
SplineSet
1216 -312 m 128,-1,1
 1138 -352 1138 -352 1062.5 -352 c 128,-1,2
 987 -352 987 -352 912.5 -315.5 c 128,-1,3
 838 -279 838 -279 771 -227.5 c 128,-1,4
 704 -176 704 -176 637 -124.5 c 128,-1,5
 570 -73 570 -73 496.5 -36.5 c 128,-1,6
 423 0 423 0 366 0 c 128,-1,7
 309 0 309 0 251 -14 c 1,8,-1
 246 0 l 1,9,10
 347 20 347 20 402 118 c 1,11,12
 446 194 446 194 483.5 321.5 c 128,-1,13
 521 449 521 449 554 578.5 c 128,-1,14
 587 708 587 708 610 809.5 c 128,-1,15
 633 911 633 911 645 958 c 0,16,17
 680 1087 680 1087 817.5 1189.5 c 128,-1,18
 955 1292 955 1292 1096 1292 c 0,19,20
 1189 1292 1189 1292 1262 1231 c 1,21,22
 1232 1163 1232 1163 1151 1145 c 1,23,24
 1054 1224 1054 1224 974 1224 c 0,25,26
 845 1224 845 1224 786 1007 c 0,27,28
 748 866 748 866 685 617 c 128,-1,29
 622 368 622 368 604 310 c 1,30,31
 574 207 574 207 451 99 c 1,32,-1
 457 85 l 1,33,34
 516 85 516 85 579.5 58.5 c 128,-1,35
 643 32 643 32 696 -7.5 c 128,-1,36
 749 -47 749 -47 808.5 -93 c 128,-1,37
 868 -139 868 -139 920 -178.5 c 128,-1,38
 972 -218 972 -218 1032 -244.5 c 128,-1,39
 1092 -271 1092 -271 1147 -271 c 0,40,41
 1239 -271 1239 -271 1323 -192 c 1,42,-1
 1335 -207 l 1,43,0
 1294 -272 1294 -272 1216 -312 c 128,-1,1
EndSplineSet
EndChar

StartChar: M
Encoding: 77 77 49
Width: 1563
GlyphClass: 2
Flags: W
LayerCount: 2
Fore
SplineSet
926 1210 m 1,0,-1
 744 1215 l 1,1,2
 611 1215 611 1215 557 1197 c 0,3,4
 483 1172 483 1172 449 1138 c 0,5,6
 391 1078 391 1078 366 1010 c 0,7,8
 330 915 330 915 317 786 c 1,9,10
 306 742 306 742 268.5 716.5 c 128,-1,11
 231 691 231 691 189 691 c 1,12,13
 221 1026 221 1026 462 1208 c 0,14,15
 601 1312 601 1312 827 1312 c 0,16,17
 866 1312 866 1312 928.5 1306 c 128,-1,18
 991 1300 991 1300 1009.5 1300 c 128,-1,19
 1028 1300 1028 1300 1116 1308 c 1,20,21
 1111 1289 1111 1289 1104.5 1254.5 c 128,-1,22
 1098 1220 1098 1220 1092.5 1184 c 128,-1,23
 1087 1148 1087 1148 1072 860.5 c 128,-1,24
 1057 573 1057 573 1034 394 c 1,25,-1
 1039 394 l 1,26,27
 1195 659 1195 659 1285 801 c 128,-1,28
 1375 943 1375 943 1432 1040 c 0,29,30
 1555 1252 1555 1252 1579 1264 c 0,31,32
 1636 1290 1636 1290 1742 1309 c 1,33,-1
 1755 1287 l 1,34,35
 1730 1268 1730 1268 1705.5 1230.5 c 128,-1,36
 1681 1193 1681 1193 1668 1149 c 0,37,38
 1608 945 1608 945 1559 698.5 c 128,-1,39
 1510 452 1510 452 1510 291 c 128,-1,40
 1510 130 1510 130 1552 87 c 1,41,42
 1561 80 1561 80 1610 80 c 128,-1,43
 1659 80 1659 80 1707 96 c 1,44,-1
 1714 81 l 1,45,46
 1655 35 1655 35 1592 3 c 128,-1,47
 1529 -29 1529 -29 1490 -29 c 0,48,49
 1372 -29 1372 -29 1372 226 c 0,50,51
 1372 527 1372 527 1523 1069 c 1,52,-1
 1519 1070 l 1,53,54
 1257 659 1257 659 926 79 c 1,55,56
 914 74 914 74 901 74 c 128,-1,57
 888 74 888 74 880 79 c 1,58,59
 928 402 928 402 962 923 c 0,60,61
 972 1066 972 1066 975 1104 c 1,62,-1
 969 1104 l 1,63,-1
 581 300 l 2,64,65
 516 165 516 165 390.5 76 c 128,-1,66
 265 -13 265 -13 110 -13 c 2,67,-1
 5 -13 l 1,68,-1
 98 98 l 1,69,70
 151 82 151 82 208 82 c 128,-1,71
 265 82 265 82 303 93.5 c 128,-1,72
 341 105 341 105 365 119.5 c 128,-1,73
 389 134 389 134 412 164 c 128,-1,74
 435 194 435 194 446.5 216 c 128,-1,75
 458 238 458 238 477 278 c 2,76,-1
 899 1169 l 2,77,78
 913 1199 913 1199 926 1210 c 1,0,-1
EndSplineSet
EndChar

StartChar: N
Encoding: 78 78 50
Width: 1303
GlyphClass: 2
Flags: W
LayerCount: 2
Fore
SplineSet
921 1280 m 0,0,1
 940 1124 940 1124 985.5 938.5 c 128,-1,2
 1031 753 1031 753 1050 681 c 0,3,4
 1105 465 1105 465 1156 278 c 1,5,-1
 1162 278 l 1,6,7
 1295 811 1295 811 1372 1053 c 0,8,9
 1390 1108 1390 1108 1410.5 1152.5 c 128,-1,10
 1431 1197 1431 1197 1466.5 1242.5 c 128,-1,11
 1502 1288 1502 1288 1547 1318.5 c 128,-1,12
 1592 1349 1592 1349 1658.5 1368.5 c 128,-1,13
 1725 1388 1725 1388 1783.5 1388 c 128,-1,14
 1842 1388 1842 1388 1877 1382 c 1,15,16
 1877 1302 1877 1302 1831 1260 c 1,17,18
 1819 1264 1819 1264 1795.5 1272 c 128,-1,19
 1772 1280 1772 1280 1762 1283 c 128,-1,20
 1752 1286 1752 1286 1736 1290 c 0,21,22
 1708 1298 1708 1298 1681 1298 c 0,23,24
 1600 1298 1600 1298 1538.5 1231.5 c 128,-1,25
 1477 1165 1477 1165 1439 1053.5 c 128,-1,26
 1401 942 1401 942 1303.5 555 c 128,-1,27
 1206 168 1206 168 1141 -17 c 1,28,29
 1129 -22 1129 -22 1114 -22 c 128,-1,30
 1099 -22 1099 -22 1091 -17 c 1,31,32
 1064 92 1064 92 997 330.5 c 128,-1,33
 930 569 930 569 885 757.5 c 128,-1,34
 840 946 840 946 814 1126 c 1,35,-1
 808 1127 l 1,36,37
 689 510 689 510 555 153 c 0,38,39
 511 35 511 35 407 -39.5 c 128,-1,40
 303 -114 303 -114 153 -114 c 0,41,42
 120 -114 120 -114 80 -108 c 1,43,44
 80 -26 80 -26 122 9 c 1,45,46
 224 -28 224 -28 268 -28 c 0,47,48
 339 -28 339 -28 400.5 29.5 c 128,-1,49
 462 87 462 87 494 180 c 0,50,51
 644 624 644 624 737 1087 c 0,52,53
 756 1181 756 1181 770 1209 c 1,54,-1
 618 1209 l 2,55,56
 472 1209 472 1209 393 1107 c 128,-1,57
 314 1005 314 1005 292 785 c 1,58,59
 281 741 281 741 243.5 716 c 128,-1,60
 206 691 206 691 164 691 c 1,61,62
 182 888 182 888 267.5 1030 c 128,-1,63
 353 1172 353 1172 535 1269 c 0,64,65
 572 1288 572 1288 627.5 1295.5 c 128,-1,66
 683 1303 683 1303 795 1303 c 1,67,-1
 887 1298 l 2,68,69
 905 1298 905 1298 923 1301 c 1,70,71
 921 1287 921 1287 921 1280 c 0,0,1
EndSplineSet
EndChar

StartChar: O
Encoding: 79 79 51
Width: 1122
GlyphClass: 2
Flags: W
LayerCount: 2
Fore
SplineSet
998 1283 m 0,0,1
 1213 1283 1213 1283 1213 963 c 0,2,3
 1213 785 1213 785 1151 604.5 c 128,-1,4
 1089 424 1089 424 991 288 c 128,-1,5
 893 152 893 152 764 66.5 c 128,-1,6
 635 -19 635 -19 507 -19 c 128,-1,7
 379 -19 379 -19 305 97 c 128,-1,8
 231 213 231 213 231 407 c 0,9,10
 231 543 231 543 281 695.5 c 128,-1,11
 331 848 331 848 414.5 982.5 c 128,-1,12
 498 1117 498 1117 620.5 1217.5 c 128,-1,13
 743 1318 743 1318 875 1347 c 1,14,-1
 883 1321 l 1,15,16
 759 1284 759 1284 659 1198 c 128,-1,17
 559 1112 559 1112 498 999 c 0,18,19
 371 767 371 767 371 501 c 0,20,21
 371 331 371 331 423 213 c 0,22,23
 449 154 449 154 493 120 c 128,-1,24
 537 86 537 86 595 86 c 0,25,26
 685 86 685 86 783.5 159 c 128,-1,27
 882 232 882 232 940 341.5 c 128,-1,28
 998 451 998 451 1034.5 606 c 128,-1,29
 1071 761 1071 761 1071 920 c 0,30,31
 1071 1042 1071 1042 1029.5 1113 c 128,-1,32
 988 1184 988 1184 907 1184 c 128,-1,33
 826 1184 826 1184 754.5 1102.5 c 128,-1,34
 683 1021 683 1021 683 907 c 0,35,36
 683 833 683 833 710.5 783.5 c 128,-1,37
 738 734 738 734 796 734 c 0,38,39
 833 734 833 734 871 755 c 1,40,-1
 875 740 l 1,41,42
 831 697 831 697 772.5 697 c 128,-1,43
 714 697 714 697 672 743.5 c 128,-1,44
 630 790 630 790 630 880 c 128,-1,45
 630 970 630 970 684 1066 c 128,-1,46
 738 1162 738 1162 824 1222.5 c 128,-1,47
 910 1283 910 1283 998 1283 c 0,0,1
EndSplineSet
EndChar

StartChar: P
Encoding: 80 80 52
Width: 1061
GlyphClass: 2
Flags: W
LayerCount: 2
Fore
SplineSet
595 98 m 2,0,1
 658 98 658 98 695.5 107.5 c 128,-1,2
 733 117 733 117 771 143 c 1,3,-1
 779 132 l 1,4,5
 735 61 735 61 691.5 30.5 c 128,-1,6
 648 0 648 0 575 0 c 2,7,-1
 296 0 l 1,8,-1
 292 20 l 1,9,10
 449 52 449 52 520 306 c 0,11,12
 566 468 566 468 616 660 c 128,-1,13
 666 852 666 852 688 938 c 0,14,15
 744 1151 744 1151 805 1221 c 1,16,17
 616 1221 616 1221 479 1098 c 0,18,19
 411 1037 411 1037 365.5 935.5 c 128,-1,20
 320 834 320 834 307 702 c 1,21,22
 273 640 273 640 188 635 c 1,23,24
 217 858 217 858 346 1022 c 0,25,26
 489 1204 489 1204 724 1272 c 0,27,28
 851 1309 851 1309 1000 1309 c 0,29,30
 1180 1309 1180 1309 1275.5 1244 c 128,-1,31
 1371 1179 1371 1179 1371 1071 c 0,32,33
 1371 1021 1371 1021 1348 956.5 c 128,-1,34
 1325 892 1325 892 1279 825.5 c 128,-1,35
 1233 759 1233 759 1173 703 c 128,-1,36
 1113 647 1113 647 1031 611.5 c 128,-1,37
 949 576 949 576 861 576 c 0,38,39
 825 576 825 576 809 577 c 1,40,41
 830 633 830 633 846 649.5 c 128,-1,42
 862 666 862 666 886 666 c 128,-1,43
 910 666 910 666 938 659.5 c 128,-1,44
 966 653 966 653 982 653 c 0,45,46
 1052 653 1052 653 1110.5 701.5 c 128,-1,47
 1169 750 1169 750 1200.5 821.5 c 128,-1,48
 1232 893 1232 893 1232 965 c 0,49,50
 1232 1076 1232 1076 1156 1150 c 128,-1,51
 1080 1224 1080 1224 935 1224 c 2,52,-1
 902 1224 l 1,53,54
 879 1187 879 1187 869 1146 c 0,55,56
 693 474 693 474 665.5 378 c 128,-1,57
 638 282 638 282 624.5 251 c 128,-1,58
 611 220 611 220 578 180 c 128,-1,59
 545 140 545 140 497 109 c 1,60,-1
 503 98 l 1,61,-1
 595 98 l 2,0,1
EndSplineSet
EndChar

StartChar: Q
Encoding: 81 81 53
Width: 1122
GlyphClass: 2
Flags: W
LayerCount: 2
Fore
SplineSet
582 399 m 0,0,1
 486 399 486 399 430.5 459.5 c 128,-1,2
 375 520 375 520 375 623 c 0,3,4
 375 697 375 697 408.5 791.5 c 128,-1,5
 442 886 442 886 502.5 979 c 128,-1,6
 563 1072 563 1072 639.5 1151 c 128,-1,7
 716 1230 716 1230 812 1279 c 128,-1,8
 908 1328 908 1328 990.5 1328 c 128,-1,9
 1073 1328 1073 1328 1125 1302 c 128,-1,10
 1177 1276 1177 1276 1204 1230 c 0,11,12
 1257 1141 1257 1141 1257 1007 c 0,13,14
 1257 810 1257 810 1174 611 c 128,-1,15
 1091 412 1091 412 946 259 c 128,-1,16
 801 106 801 106 628 44 c 1,17,18
 647 14 647 14 680.5 -40.5 c 128,-1,19
 714 -95 714 -95 734 -127 c 128,-1,20
 754 -159 754 -159 785.5 -200.5 c 128,-1,21
 817 -242 817 -242 842 -264 c 0,22,23
 902 -320 902 -320 964 -320 c 0,24,25
 1011 -320 1011 -320 1043 -304 c 128,-1,26
 1075 -288 1075 -288 1090 -264.5 c 128,-1,27
 1105 -241 1105 -241 1115 -218 c 128,-1,28
 1125 -195 1125 -195 1137.5 -179 c 128,-1,29
 1150 -163 1150 -163 1166 -163 c 128,-1,30
 1182 -163 1182 -163 1198 -187 c 128,-1,31
 1214 -211 1214 -211 1214 -231 c 0,32,33
 1214 -268 1214 -268 1172.5 -299 c 128,-1,34
 1131 -330 1131 -330 1071.5 -346.5 c 128,-1,35
 1012 -363 1012 -363 954 -363 c 0,36,37
 811 -363 811 -363 724 -303 c 128,-1,38
 637 -243 637 -243 551 -84 c 2,39,-1
 499 12 l 2,40,41
 498 12 498 12 498 13 c 1,42,43
 458 8 458 8 426 8 c 0,44,45
 334 8 334 8 282.5 38 c 128,-1,46
 231 68 231 68 231 112 c 128,-1,47
 231 156 231 156 265 184 c 128,-1,48
 299 212 299 212 360 212 c 128,-1,49
 421 212 421 212 488 177.5 c 128,-1,50
 555 143 555 143 604 80 c 1,51,52
 734 135 734 135 848 265.5 c 128,-1,53
 962 396 962 396 1033.5 577 c 128,-1,54
 1105 758 1105 758 1105 942 c 0,55,56
 1105 1071 1105 1071 1054 1154 c 128,-1,57
 1003 1237 1003 1237 904 1237 c 0,58,59
 828 1237 828 1237 751 1180.5 c 128,-1,60
 674 1124 674 1124 618 1039.5 c 128,-1,61
 562 955 562 955 527 854 c 128,-1,62
 492 753 492 753 492 665 c 0,63,64
 492 521 492 521 558 476 c 0,65,66
 585 457 585 457 623 457 c 0,67,68
 716 457 716 457 831 572 c 1,69,-1
 842 561 l 1,70,71
 728 399 728 399 582 399 c 0,0,1
271 122 m 0,72,73
 271 89 271 89 320 68.5 c 128,-1,74
 369 48 369 48 456 48 c 0,75,76
 470 48 470 48 478 49 c 1,77,78
 439 114 439 114 405 143 c 128,-1,79
 371 172 371 172 338.5 172 c 128,-1,80
 306 172 306 172 288.5 158.5 c 128,-1,81
 271 145 271 145 271 122 c 0,72,73
EndSplineSet
EndChar

StartChar: R
Encoding: 82 82 54
Width: 1114
GlyphClass: 2
Flags: W
LayerCount: 2
Fore
SplineSet
494 96 m 2,0,1
 557 96 557 96 594.5 105.5 c 128,-1,2
 632 115 632 115 670 141 c 1,3,-1
 678 130 l 1,4,5
 633 58 633 58 590 27.5 c 128,-1,6
 547 -3 547 -3 474 -3 c 2,7,-1
 195 -3 l 1,8,-1
 190 11 l 1,9,10
 230 19 230 19 264.5 42.5 c 128,-1,11
 299 66 299 66 322 94 c 128,-1,12
 345 122 345 122 365 162 c 0,13,14
 395 220 395 220 418 303 c 0,15,16
 504 603 504 603 572 938 c 0,17,18
 586 1007 586 1007 637.5 1079 c 128,-1,19
 689 1151 689 1151 754 1176 c 1,20,-1
 763 1170 l 1,21,22
 726 1125 726 1125 699.5 1014 c 128,-1,23
 673 903 673 903 652.5 773.5 c 128,-1,24
 632 644 632 644 605 513 c 128,-1,25
 578 382 578 382 525 271 c 128,-1,26
 472 160 472 160 396 110 c 1,27,-1
 402 96 l 1,28,-1
 494 96 l 2,0,1
764 703 m 1,29,-1
 821 700 l 1,30,31
 966 700 966 700 1042.5 783 c 128,-1,32
 1119 866 1119 866 1119 1008 c 0,33,34
 1119 1246 1119 1246 795 1246 c 0,35,36
 583 1246 583 1246 413 1112 c 0,37,38
 330 1046 330 1046 274 939 c 128,-1,39
 218 832 218 832 205 699 c 1,40,41
 171 635 171 635 87 632 c 1,42,43
 106 859 106 859 249 1028 c 0,44,45
 403 1211 403 1211 656 1280 c 1,46,47
 792 1316 792 1316 946 1316 c 128,-1,48
 1100 1316 1100 1316 1185 1247 c 128,-1,49
 1270 1178 1270 1178 1270 1061 c 0,50,51
 1270 903 1270 903 1158 792.5 c 128,-1,52
 1046 682 1046 682 850 654 c 1,53,54
 979 604 979 604 1038 367 c 1,55,56
 1111 65 1111 65 1154 -10 c 0,57,58
 1194 -80 1194 -80 1244 -94 c 0,59,60
 1269 -102 1269 -102 1304 -102 c 0,61,62
 1363 -102 1363 -102 1421 -68 c 1,63,-1
 1431 -85 l 1,64,65
 1379 -135 1379 -135 1330 -161 c 128,-1,66
 1281 -187 1281 -187 1227 -187 c 128,-1,67
 1173 -187 1173 -187 1142.5 -176 c 128,-1,68
 1112 -165 1112 -165 1081 -134.5 c 128,-1,69
 1050 -104 1050 -104 1024 -48 c 0,70,71
 973 66 973 66 921 318 c 1,72,73
 880 509 880 509 831 569 c 0,74,75
 809 596 809 596 774.5 615.5 c 128,-1,76
 740 635 740 635 696 635 c 1,77,78
 698 666 698 666 715 684.5 c 128,-1,79
 732 703 732 703 764 703 c 1,29,-1
EndSplineSet
EndChar

StartChar: S
Encoding: 83 83 55
Width: 860
GlyphClass: 2
Flags: W
LayerCount: 2
Fore
SplineSet
869 1332 m 0,0,1
 952 1332 952 1332 1013 1299.5 c 128,-1,2
 1074 1267 1074 1267 1074 1212 c 0,3,4
 1074 1145 1074 1145 1012 1101 c 1,5,6
 956 1270 956 1270 799 1270 c 0,7,8
 712 1270 712 1270 655.5 1203 c 128,-1,9
 599 1136 599 1136 599 1045 c 0,10,11
 599 955 599 955 660 878 c 0,12,13
 687 843 687 843 719.5 808.5 c 128,-1,14
 752 774 752 774 785 737 c 128,-1,15
 818 700 818 700 845 660 c 0,16,17
 906 571 906 571 906 458 c 0,18,19
 906 323 906 323 828 211.5 c 128,-1,20
 750 100 750 100 627 40 c 128,-1,21
 504 -20 504 -20 370.5 -20 c 128,-1,22
 237 -20 237 -20 164 46 c 128,-1,23
 91 112 91 112 91 218 c 0,24,25
 91 351 91 351 176 439.5 c 128,-1,26
 261 528 261 528 386 528 c 0,27,28
 462 528 462 528 500 487 c 128,-1,29
 538 446 538 446 538 377 c 0,30,31
 538 356 538 356 535 334 c 1,32,-1
 509 331 l 1,33,34
 509 389 509 389 478.5 427 c 128,-1,35
 448 465 448 465 391 465 c 0,36,37
 309 465 309 465 252 401.5 c 128,-1,38
 195 338 195 338 195 239.5 c 128,-1,39
 195 141 195 141 257.5 88 c 128,-1,40
 320 35 320 35 419 35 c 0,41,42
 564 35 564 35 673 143.5 c 128,-1,43
 782 252 782 252 782 396 c 0,44,45
 782 463 782 463 751.5 525 c 128,-1,46
 721 587 721 587 677.5 636 c 128,-1,47
 634 685 634 685 590.5 734.5 c 128,-1,48
 547 784 547 784 516.5 845.5 c 128,-1,49
 486 907 486 907 486 973 c 0,50,51
 486 1124 486 1124 599.5 1228 c 128,-1,52
 713 1332 713 1332 869 1332 c 0,0,1
EndSplineSet
EndChar

StartChar: T
Encoding: 84 84 56
Width: 934
GlyphClass: 2
Flags: W
LayerCount: 2
Fore
SplineSet
1324 1195 m 2,0,-1
 999 1197 l 1,1,2
 983 1160 983 1160 972.5 1121.5 c 128,-1,3
 962 1083 962 1083 760 323 c 1,4,5
 739 267 739 267 705.5 219 c 128,-1,6
 672 171 672 171 606 113 c 1,7,-1
 611 100 l 1,8,-1
 710 100 l 2,9,10
 774 100 774 100 811.5 108.5 c 128,-1,11
 849 117 849 117 886 143 c 1,12,-1
 894 132 l 1,13,14
 850 61 850 61 806.5 30.5 c 128,-1,15
 763 0 763 0 690 0 c 2,16,-1
 406 0 l 1,17,-1
 399 14 l 1,18,19
 439 22 439 22 473.5 45.5 c 128,-1,20
 508 69 508 69 531 97 c 128,-1,21
 554 125 554 125 574 164 c 0,22,23
 604 223 604 223 638.5 345 c 128,-1,24
 673 467 673 467 720.5 649 c 128,-1,25
 768 831 768 831 790 916 c 0,26,27
 844 1126 844 1126 896 1197 c 1,28,-1
 703 1197 l 2,29,30
 527 1197 527 1197 448 1106 c 128,-1,31
 369 1015 369 1015 347 785 c 1,32,33
 300 698 300 698 219 691 c 1,34,35
 238 884 238 884 324 1024.5 c 128,-1,36
 410 1165 410 1165 590 1269 c 0,37,38
 640 1297 640 1297 760 1303 c 0,39,40
 800 1305 800 1305 972 1305 c 2,41,-1
 1245 1305 l 2,42,43
 1423 1305 1423 1305 1476 1306 c 1,44,45
 1467 1264 1467 1264 1417.5 1229.5 c 128,-1,46
 1368 1195 1368 1195 1324 1195 c 2,0,-1
EndSplineSet
EndChar

StartChar: U
Encoding: 85 85 57
Width: 1374
GlyphClass: 2
Flags: W
LayerCount: 2
Fore
SplineSet
1298.5 595 m 128,-1,1
 1247 381 1247 381 1234 329.5 c 128,-1,2
 1221 278 1221 278 1221 235 c 128,-1,3
 1221 192 1221 192 1248 153.5 c 128,-1,4
 1275 115 1275 115 1332.5 115 c 128,-1,5
 1390 115 1390 115 1467 163 c 1,6,-1
 1471 149 l 1,7,8
 1404 93 1404 93 1364 66 c 128,-1,9
 1324 39 1324 39 1253 0 c 1,10,11
 1097 3 1097 3 1097 188 c 0,12,13
 1097 278 1097 278 1140 444 c 1,14,-1
 1132 444 l 1,15,16
 1053 277 1053 277 898.5 137.5 c 128,-1,17
 744 -2 744 -2 635 -2 c 0,18,19
 497 -2 497 -2 497 202 c 0,20,21
 497 319 497 319 529 442 c 128,-1,22
 561 565 561 565 591.5 692 c 128,-1,23
 622 819 622 819 638.5 886.5 c 128,-1,24
 655 954 655 954 674 1024 c 0,25,26
 710 1153 710 1153 749 1207 c 1,27,-1
 611 1207 l 2,28,29
 447 1207 447 1207 368 1109 c 128,-1,30
 289 1011 289 1011 266 785 c 1,31,32
 222 698 222 698 139 691 c 1,33,34
 158 888 158 888 243 1029.5 c 128,-1,35
 328 1171 328 1171 509 1269 c 0,36,37
 544 1289 544 1289 599.5 1296 c 128,-1,38
 655 1303 655 1303 769 1303 c 2,39,-1
 933 1303 l 1,40,-1
 933 1296 l 1,41,42
 915 1284 915 1284 887 1244.5 c 128,-1,43
 859 1205 859 1205 840 1156 c 1,44,45
 723 741 723 741 675.5 542.5 c 128,-1,46
 628 344 628 344 628 271 c 0,47,48
 628 113 628 113 749 113 c 0,49,50
 808 113 808 113 880 175 c 128,-1,51
 952 237 952 237 1011 324.5 c 128,-1,52
 1070 412 1070 412 1115 499 c 128,-1,53
 1160 586 1160 586 1177 644 c 2,54,-1
 1328 1173 l 2,55,56
 1358 1280 1358 1280 1522 1303 c 1,57,-1
 1532 1282 l 1,58,59
 1481 1239 1481 1239 1450 1153 c 128,-1,60
 1419 1067 1419 1067 1384.5 938 c 128,-1,0
 1350 809 1350 809 1298.5 595 c 128,-1,1
EndSplineSet
EndChar

StartChar: V
Encoding: 86 86 58
Width: 1192
GlyphClass: 2
Flags: W
LayerCount: 2
Fore
SplineSet
1509 1273 m 0,0,1
 1587 1273 1587 1273 1587 1212 c 0,2,3
 1587 1189 1587 1189 1574 1156 c 0,4,5
 1481 933 1481 933 1326 682 c 0,6,7
 1210 494 1210 494 1114 352 c 128,-1,8
 1018 210 1018 210 996.5 175 c 128,-1,9
 975 140 975 140 957.5 113.5 c 128,-1,10
 940 87 940 87 919 58 c 0,11,12
 875 -1 875 -1 841.5 -1 c 128,-1,13
 808 -1 808 -1 766 -7 c 1,14,-1
 762 19 l 1,15,16
 781 42 781 42 795.5 106 c 128,-1,17
 810 170 810 170 816 219 c 128,-1,18
 822 268 822 268 836 405.5 c 128,-1,19
 850 543 850 543 850 685 c 128,-1,20
 850 827 850 827 841.5 912 c 128,-1,21
 833 997 833 997 815 1068 c 128,-1,22
 797 1139 797 1139 764 1178 c 128,-1,23
 731 1217 731 1217 690.5 1217 c 128,-1,24
 650 1217 650 1217 612.5 1206.5 c 128,-1,25
 575 1196 575 1196 530.5 1166 c 128,-1,26
 486 1136 486 1136 450 1090 c 128,-1,27
 414 1044 414 1044 385 965 c 128,-1,28
 356 886 356 886 346 786 c 1,29,30
 287 750 287 750 218 692 c 1,31,32
 233 855 233 855 315.5 998.5 c 128,-1,33
 398 1142 398 1142 524.5 1227.5 c 128,-1,34
 651 1313 651 1313 787 1313 c 0,35,36
 892 1313 892 1313 937 1191 c 0,37,38
 978 1079 978 1079 978 867 c 0,39,40
 978 536 978 536 947 226 c 1,41,-1
 954 220 l 1,42,43
 1328 760 1328 760 1435 1069 c 0,44,45
 1444 1096 1444 1096 1444 1116.5 c 128,-1,46
 1444 1137 1444 1137 1438 1151.5 c 128,-1,47
 1432 1166 1432 1166 1403 1177 c 128,-1,48
 1374 1188 1374 1188 1315 1188 c 1,49,-1
 1314 1195 l 1,50,51
 1342 1227 1342 1227 1393.5 1250 c 128,-1,52
 1445 1273 1445 1273 1509 1273 c 0,0,1
EndSplineSet
EndChar

StartChar: W
Encoding: 87 87 59
Width: 1628
GlyphClass: 2
Flags: W
LayerCount: 2
Fore
SplineSet
1680 1188 m 1,0,-1
 1679 1195 l 1,1,2
 1750 1273 1750 1273 1879 1273 c 0,3,4
 1956 1273 1956 1273 1956 1213 c 0,5,6
 1956 1161 1956 1161 1875 982 c 0,7,8
 1830 882 1830 882 1790 805.5 c 128,-1,9
 1750 729 1750 729 1684.5 621 c 128,-1,10
 1619 513 1619 513 1585.5 460.5 c 128,-1,11
 1552 408 1552 408 1481.5 301.5 c 128,-1,12
 1411 195 1411 195 1401 179.5 c 128,-1,13
 1391 164 1391 164 1375 138.5 c 128,-1,14
 1359 113 1359 113 1351.5 102.5 c 128,-1,15
 1344 92 1344 92 1330 71.5 c 128,-1,16
 1316 51 1316 51 1306.5 41 c 128,-1,17
 1297 31 1297 31 1284 20 c 1,18,19
 1261 -2 1261 -2 1233.5 -2 c 128,-1,20
 1206 -2 1206 -2 1165 -8 c 1,21,-1
 1161 16 l 1,22,23
 1214 50 1214 50 1223 214 c 0,24,25
 1227 271 1227 271 1227 343 c 1,26,-1
 1223 612 l 1,27,28
 1223 778 1223 778 1239 932 c 1,29,30
 1207 869 1207 869 1149.5 755 c 128,-1,31
 1092 641 1092 641 1072.5 603.5 c 128,-1,32
 1053 566 1053 566 1015.5 493.5 c 128,-1,33
 978 421 978 421 957 384 c 0,34,35
 880 249 880 249 856.5 211.5 c 128,-1,36
 833 174 833 174 812.5 138.5 c 128,-1,37
 792 103 792 103 780 85 c 128,-1,38
 768 67 768 67 750 43 c 0,39,40
 718 -2 718 -2 682.5 -2 c 128,-1,41
 647 -2 647 -2 607 -8 c 1,42,-1
 603 16 l 1,43,44
 661 78 661 78 699 371 c 128,-1,45
 737 664 737 664 737 824 c 0,46,47
 737 1216 737 1216 578 1216 c 0,48,49
 498 1216 498 1216 422 1164 c 0,50,51
 377 1134 377 1134 340.5 1088 c 128,-1,52
 304 1042 304 1042 274.5 963 c 128,-1,53
 245 884 245 884 235 784 c 1,54,55
 206 746 206 746 181 727.5 c 128,-1,56
 156 709 156 709 108 690 c 1,57,58
 123 853 123 853 206 997 c 128,-1,59
 289 1141 289 1141 416 1227 c 128,-1,60
 543 1313 543 1313 679 1313 c 0,61,62
 872 1313 872 1313 872 884 c 0,63,64
 872 658 872 658 806 265 c 1,65,66
 870 361 870 361 936.5 484 c 128,-1,67
 1003 607 1003 607 1099 799 c 128,-1,68
 1195 991 1195 991 1243 1084 c 0,69,70
 1246 1090 1246 1090 1256 1126 c 0,71,72
 1281 1222 1281 1222 1323 1266 c 1,73,74
 1366 1309 1366 1309 1462 1309 c 0,75,76
 1475 1309 1475 1309 1503 1307 c 1,77,-1
 1513 1294 l 1,78,79
 1414 1193 1414 1193 1372.5 1034 c 128,-1,80
 1331 875 1331 875 1331 645 c 0,81,82
 1331 574 1331 574 1335.5 436.5 c 128,-1,83
 1340 299 1340 299 1340 237 c 1,84,85
 1404 308 1404 308 1512.5 478.5 c 128,-1,86
 1621 649 1621 649 1715.5 843 c 128,-1,87
 1810 1037 1810 1037 1810 1126 c 0,88,89
 1810 1157 1810 1157 1782.5 1172.5 c 128,-1,90
 1755 1188 1755 1188 1680 1188 c 1,0,-1
EndSplineSet
EndChar

StartChar: X
Encoding: 88 88 60
Width: 1044
GlyphClass: 2
Flags: W
LayerCount: 2
Fore
SplineSet
780 837 m 2,0,-1
 781 830 l 1,1,-1
 785 830 l 1,2,3
 806 864 806 864 845.5 930 c 128,-1,4
 885 996 885 996 904.5 1028.5 c 128,-1,5
 924 1061 924 1061 959.5 1113.5 c 128,-1,6
 995 1166 995 1166 1018.5 1193 c 128,-1,7
 1042 1220 1042 1220 1077.5 1255 c 128,-1,8
 1113 1290 1113 1290 1144 1307 c 0,9,10
 1220 1348 1220 1348 1299 1348 c 0,11,12
 1407 1348 1407 1348 1453 1317 c 1,13,14
 1442 1245 1442 1245 1359 1204 c 1,15,16
 1270 1275 1270 1275 1215 1275 c 0,17,18
 1175 1275 1175 1275 1136 1243.5 c 128,-1,19
 1097 1212 1097 1212 1068 1165 c 2,20,-1
 795 713 l 1,21,22
 824 370 824 370 908 183 c 0,23,24
 950 88 950 88 996 88 c 0,25,26
 1080 88 1080 88 1235 205 c 1,27,-1
 1249 192 l 1,28,29
 1184 124 1184 124 1096 61.5 c 128,-1,30
 1008 -1 1008 -1 922 -23 c 1,31,32
 763 -23 763 -23 677 558 c 1,33,-1
 673 558 l 1,34,35
 518 302 518 302 439 196 c 0,36,37
 253 -55 253 -55 60 -131 c 0,38,39
 -37 -169 -37 -169 -142 -169 c 0,40,41
 -203 -169 -203 -169 -247 -164 c 1,42,43
 -224 -78 -224 -78 -170 -45 c 1,44,45
 -107 -64 -107 -64 -22 -64 c 0,46,47
 115 -64 115 -64 264 97 c 0,48,49
 352 192 352 192 419 291.5 c 128,-1,50
 486 391 486 391 517 440.5 c 128,-1,51
 548 490 548 490 594.5 565.5 c 128,-1,52
 641 641 641 641 665 678 c 1,53,54
 641 962 641 962 616 1067 c 1,55,56
 573 1256 573 1256 479 1256 c 0,57,58
 359 1256 359 1256 298.5 1175 c 128,-1,59
 238 1094 238 1094 221 951 c 0,60,61
 216 914 216 914 216 883 c 1,62,63
 174 812 174 812 85 806 c 1,64,65
 117 1015 117 1015 230 1162 c 0,66,67
 289 1238 289 1238 380 1282 c 128,-1,68
 471 1326 471 1326 584 1326 c 0,69,70
 642 1326 642 1326 683 1273 c 0,71,72
 731 1211 731 1211 756 1042 c 0,73,74
 768 958 768 958 774 898 c 128,-1,75
 780 838 780 838 780 837 c 2,0,-1
EndSplineSet
EndChar

StartChar: Y
Encoding: 89 89 61
Width: 1044
GlyphClass: 2
Flags: W
LayerCount: 2
Fore
SplineSet
593 1322 m 0,0,1
 660 1322 660 1322 713.5 1298 c 128,-1,2
 767 1274 767 1274 801.5 1233 c 128,-1,3
 836 1192 836 1192 859 1134 c 0,4,5
 901 1028 901 1028 901 873 c 0,6,7
 901 774 901 774 881 649 c 128,-1,8
 861 524 861 524 838 452 c 1,9,-1
 844 450 l 1,10,11
 929 550 929 550 976 610.5 c 128,-1,12
 1023 671 1023 671 1087 766 c 0,13,14
 1210 947 1210 947 1236 1128 c 0,15,16
 1238 1146 1238 1146 1238 1154 c 0,17,18
 1238 1234 1238 1234 1145 1234 c 0,19,20
 1140 1234 1140 1234 1141 1242.5 c 128,-1,21
 1142 1251 1142 1251 1165.5 1276.5 c 128,-1,22
 1189 1302 1189 1302 1204 1312 c 1,23,24
 1218 1324 1218 1324 1248.5 1324 c 128,-1,25
 1279 1324 1279 1324 1333 1309.5 c 128,-1,26
 1387 1295 1387 1295 1387 1266 c 2,27,-1
 1387 1263 l 1,28,29
 1359 1062 1359 1062 1212 836.5 c 128,-1,30
 1065 611 1065 611 810 335 c 1,31,-1
 799 294 l 2,32,33
 716 -17 716 -17 598 -190.5 c 128,-1,34
 480 -364 480 -364 356 -364 c 0,35,36
 277 -364 277 -364 182.5 -339.5 c 128,-1,37
 88 -315 88 -315 14 -275 c 1,38,39
 32 -143 32 -143 67 -143 c 0,40,41
 105 -143 105 -143 196 -222 c 0,42,43
 230 -252 230 -252 280.5 -276.5 c 128,-1,44
 331 -301 331 -301 382.5 -301 c 128,-1,45
 434 -301 434 -301 485.5 -246 c 128,-1,46
 537 -191 537 -191 574.5 -106.5 c 128,-1,47
 612 -22 612 -22 644 90 c 0,48,49
 699 281 699 281 727.5 489 c 128,-1,50
 756 697 756 697 756 819 c 0,51,52
 756 1026 756 1026 688.5 1131.5 c 128,-1,53
 621 1237 621 1237 471 1237 c 0,54,55
 346 1237 346 1237 283 1142.5 c 128,-1,56
 220 1048 220 1048 203 876 c 1,57,58
 184 852 184 852 148.5 835 c 128,-1,59
 113 818 113 818 78 813 c 1,60,61
 80 844 80 844 81 848 c 0,62,63
 111 1062 111 1062 248 1192 c 128,-1,64
 385 1322 385 1322 593 1322 c 0,0,1
EndSplineSet
EndChar

StartChar: Z
Encoding: 90 90 62
Width: 1143
GlyphClass: 2
Flags: W
LayerCount: 2
Fore
SplineSet
609 1280 m 128,-1,1
 681 1308 681 1308 766.5 1308 c 128,-1,2
 852 1308 852 1308 963 1275.5 c 128,-1,3
 1074 1243 1074 1243 1138 1243 c 0,4,5
 1249 1243 1249 1243 1391 1308 c 1,6,-1
 1413 1289 l 1,7,8
 1262 1162 1262 1162 982 826 c 0,9,10
 872 693 872 693 760 561.5 c 128,-1,11
 648 430 648 430 537 321 c 128,-1,12
 426 212 426 212 341 161 c 1,13,-1
 346 145 l 1,14,15
 424 145 424 145 500.5 114 c 128,-1,16
 577 83 577 83 640.5 39 c 128,-1,17
 704 -5 704 -5 767.5 -49.5 c 128,-1,18
 831 -94 831 -94 906 -125 c 128,-1,19
 981 -156 981 -156 1056 -156 c 0,20,21
 1145 -156 1145 -156 1212 -62 c 1,22,-1
 1233 -70 l 1,23,24
 1201 -152 1201 -152 1114 -204.5 c 128,-1,25
 1027 -257 1027 -257 929 -257 c 0,26,27
 815 -257 815 -257 652 -142 c 0,28,29
 584 -94 584 -94 516 -46 c 128,-1,30
 448 2 448 2 373.5 35.5 c 128,-1,31
 299 69 299 69 244.5 69 c 128,-1,32
 190 69 190 69 127 56 c 1,33,-1
 121 79 l 1,34,35
 628 571 628 571 790 744 c 0,36,37
 1009 977 1009 977 1139 1146 c 1,38,39
 1083 1142 1083 1142 1041 1142 c 128,-1,40
 999 1142 999 1142 942 1155.5 c 128,-1,41
 885 1169 885 1169 848 1186 c 0,42,43
 752 1229 752 1229 648 1229 c 0,44,45
 572 1229 572 1229 536 1189 c 0,46,47
 523 1174 523 1174 513.5 1161 c 128,-1,48
 504 1148 504 1148 495.5 1124 c 128,-1,49
 487 1100 487 1100 482 1083 c 128,-1,50
 477 1066 477 1066 472 1034 c 1,51,52
 463 988 463 988 455 926 c 1,53,54
 414 843 414 843 326 832 c 1,55,56
 350 1072 350 1072 488 1206 c 1,57,0
 537 1252 537 1252 609 1280 c 128,-1,1
EndSplineSet
EndChar

StartChar: bracketleft
Encoding: 91 91 63
Width: 455
GlyphClass: 2
Flags: W
LayerCount: 2
Fore
SplineSet
502 1468 m 1,0,-1
 865 1468 l 1,1,-1
 829 1428 l 1,2,-1
 604 1428 l 1,3,4
 511 1088 511 1088 359 417.5 c 128,-1,5
 207 -253 207 -253 196 -297 c 1,6,-1
 454 -297 l 1,7,-1
 415 -339 l 1,8,-1
 80 -339 l 1,9,10
 100 -257 100 -257 251.5 422.5 c 128,-1,11
 403 1102 403 1102 502 1468 c 1,0,-1
EndSplineSet
EndChar

StartChar: backslash
Encoding: 92 92 64
Width: 885
GlyphClass: 2
Flags: W
LayerCount: 2
Fore
SplineSet
632 1474 m 1,0,-1
 994 -340 l 1,1,-1
 888 -340 l 1,2,-1
 530 1474 l 1,3,-1
 632 1474 l 1,0,-1
EndSplineSet
EndChar

StartChar: bracketright
Encoding: 93 93 65
Width: 602
GlyphClass: 2
Flags: W
LayerCount: 2
Fore
SplineSet
305 -339 m 1,0,-1
 -58 -339 l 1,1,-1
 -22 -299 l 1,2,-1
 203 -299 l 1,3,4
 296 41 296 41 448 711.5 c 128,-1,5
 600 1382 600 1382 611 1426 c 1,6,-1
 353 1426 l 1,7,-1
 392 1468 l 1,8,-1
 727 1468 l 1,9,10
 707 1386 707 1386 555.5 706.5 c 128,-1,11
 404 27 404 27 305 -339 c 1,0,-1
EndSplineSet
EndChar

StartChar: asciicircum
Encoding: 94 94 66
Width: 958
GlyphClass: 2
Flags: W
LayerCount: 2
Fore
SplineSet
550 1322 m 1,0,1
 565 1326 565 1326 591.5 1326 c 128,-1,2
 618 1326 618 1326 644 1315 c 1,3,4
 676 1170 676 1170 770 1036 c 0,5,6
 818 967 818 967 852 925 c 128,-1,7
 886 883 886 883 946 815 c 1,8,-1
 912 768 l 1,9,10
 778 872 778 872 710.5 956.5 c 128,-1,11
 643 1041 643 1041 586 1177 c 1,12,13
 448 942 448 942 170 781 c 1,14,-1
 149 829 l 1,15,16
 451 1054 451 1054 550 1322 c 1,0,1
EndSplineSet
EndChar

StartChar: underscore
Encoding: 95 95 67
Width: 922
GlyphClass: 2
Flags: W
LayerCount: 2
Fore
SplineSet
21 -151 m 1,0,-1
 1035 -151 l 1,1,-1
 980 -250 l 1,2,-1
 -39 -250 l 1,3,-1
 21 -151 l 1,0,-1
EndSplineSet
EndChar

StartChar: grave
Encoding: 96 96 68
Width: 412
GlyphClass: 2
Flags: W
LayerCount: 2
Fore
SplineSet
412 1355 m 1,0,-1
 519 1373 l 1,1,2
 563 1219 563 1219 758 1091 c 1,3,-1
 735 1069 l 1,4,5
 630 1111 630 1111 538 1185.5 c 128,-1,6
 446 1260 446 1260 412 1355 c 1,0,-1
EndSplineSet
EndChar

StartChar: a
Encoding: 97 97 69
Width: 791
GlyphClass: 2
Flags: W
LayerCount: 2
Fore
SplineSet
571 -21 m 0,0,1
 534 -21 534 -21 534 31 c 0,2,3
 534 80 534 80 572.5 222.5 c 128,-1,4
 611 365 611 365 625 424 c 1,5,-1
 621 426 l 1,6,7
 599 378 599 378 553 305.5 c 128,-1,8
 507 233 507 233 450.5 160 c 128,-1,9
 394 87 394 87 332.5 35 c 128,-1,10
 271 -17 271 -17 232 -17 c 128,-1,11
 193 -17 193 -17 181 26 c 128,-1,12
 169 69 169 69 169 150 c 128,-1,13
 169 231 169 231 188 328.5 c 128,-1,14
 207 426 207 426 247.5 523 c 128,-1,15
 288 620 288 620 344 696.5 c 128,-1,16
 400 773 400 773 482 821 c 128,-1,17
 564 869 564 869 658 869 c 0,18,19
 690 869 690 869 742.5 863.5 c 128,-1,20
 795 858 795 858 809.5 858 c 128,-1,21
 824 858 824 858 844 860 c 1,22,23
 782 550 782 550 638 77 c 1,24,-1
 643 73 l 1,25,26
 794 138 794 138 916 320 c 1,27,-1
 940 303 l 1,28,29
 880 198 880 198 758 88.5 c 128,-1,30
 636 -21 636 -21 571 -21 c 0,0,1
719 775 m 1,31,32
 613 787 613 787 558.5 787 c 128,-1,33
 504 787 504 787 452 748 c 128,-1,34
 400 709 400 709 367 647 c 128,-1,35
 334 585 334 585 312 504 c 0,36,37
 270 356 270 356 270 193 c 0,38,39
 270 109 270 109 306 109 c 0,40,41
 363 109 363 109 451 226 c 128,-1,42
 539 343 539 343 613 498.5 c 128,-1,43
 687 654 687 654 719 775 c 1,31,32
EndSplineSet
EndChar

StartChar: b
Encoding: 98 98 70
Width: 795
GlyphClass: 2
Flags: W
LayerCount: 2
Fore
SplineSet
840 871 m 0,0,1
 908 871 908 871 908 713 c 0,2,3
 908 625 908 625 874.5 524.5 c 128,-1,4
 841 424 841 424 777.5 328.5 c 128,-1,5
 714 233 714 233 631 155 c 128,-1,6
 548 77 548 77 440 29.5 c 128,-1,7
 332 -18 332 -18 219 -18 c 0,8,9
 202 -18 202 -18 202 50 c 0,10,11
 202 102 202 102 280 444 c 1,12,13
 375 853 375 853 420 1055 c 0,14,15
 437 1130 437 1130 482 1207 c 128,-1,16
 527 1284 527 1284 588 1345 c 128,-1,17
 649 1406 649 1406 725.5 1444.5 c 128,-1,18
 802 1483 802 1483 866.5 1483 c 128,-1,19
 931 1483 931 1483 959 1475 c 1,20,21
 933 1424 933 1424 881 1380 c 1,22,23
 821 1390 821 1390 769.5 1390 c 128,-1,24
 718 1390 718 1390 675.5 1357 c 128,-1,25
 633 1324 633 1324 607.5 1286.5 c 128,-1,26
 582 1249 582 1249 555.5 1171 c 128,-1,27
 529 1093 529 1093 520 1056 c 0,28,29
 491 934 491 934 488 917 c 2,30,-1
 377 410 l 1,31,-1
 380 408 l 1,32,33
 405 458 405 458 459.5 533.5 c 128,-1,34
 514 609 514 609 580.5 685.5 c 128,-1,35
 647 762 647 762 719 816.5 c 128,-1,36
 791 871 791 871 840 871 c 0,0,1
300 113 m 1,37,38
 340 90 340 90 393.5 90 c 128,-1,39
 447 90 447 90 510 133.5 c 128,-1,40
 573 177 573 177 622.5 243.5 c 128,-1,41
 672 310 672 310 711.5 386 c 128,-1,42
 751 462 751 462 772 532 c 128,-1,43
 793 602 793 602 793 647 c 0,44,45
 793 744 793 744 750 744 c 0,46,47
 691 744 691 744 598.5 636.5 c 128,-1,48
 506 529 506 529 424 383 c 128,-1,49
 342 237 342 237 300 113 c 1,37,38
EndSplineSet
EndChar

StartChar: c
Encoding: 99 99 71
Width: 639
GlyphClass: 2
Flags: W
LayerCount: 2
Fore
SplineSet
740 759 m 1,0,1
 680 825 680 825 611 825 c 128,-1,2
 542 825 542 825 487 775 c 128,-1,3
 432 725 432 725 398 651 c 128,-1,4
 364 577 364 577 341 487 c 0,5,6
 299 323 299 323 299 193.5 c 128,-1,7
 299 64 299 64 378 64 c 0,8,9
 448 64 448 64 540 128 c 128,-1,10
 632 192 632 192 708 302 c 1,11,-1
 726 290 l 1,12,13
 632 148 632 148 523.5 65 c 128,-1,14
 415 -18 415 -18 319 -18 c 0,15,16
 245 -18 245 -18 209 32.5 c 128,-1,17
 173 83 173 83 173 175 c 128,-1,18
 173 267 173 267 214.5 392.5 c 128,-1,19
 256 518 256 518 321.5 629.5 c 128,-1,20
 387 741 387 741 479 818 c 128,-1,21
 571 895 571 895 668 895 c 128,-1,22
 765 895 765 895 820 859 c 1,23,24
 792 799 792 799 740 759 c 1,0,1
EndSplineSet
EndChar

StartChar: d
Encoding: 100 100 72
Width: 825
GlyphClass: 2
Flags: W
LayerCount: 2
Fore
SplineSet
1101 1437 m 128,-1,1
 1176 1483 1176 1483 1239.5 1483 c 128,-1,2
 1303 1483 1303 1483 1330 1475 c 1,3,4
 1295 1407 1295 1407 1253 1375 c 1,5,6
 1211 1390 1211 1390 1179 1390 c 128,-1,7
 1147 1390 1147 1390 1117 1380.5 c 128,-1,8
 1087 1371 1087 1371 1063.5 1357 c 128,-1,9
 1040 1343 1040 1343 1017.5 1317 c 128,-1,10
 995 1291 995 1291 979.5 1269.5 c 128,-1,11
 964 1248 964 1248 947 1211 c 128,-1,12
 930 1174 930 1174 920.5 1150 c 128,-1,13
 911 1126 911 1126 898 1084 c 0,14,15
 853 936 853 936 774 592.5 c 128,-1,16
 695 249 695 249 650 89 c 1,17,-1
 654 85 l 1,18,19
 799 149 799 149 916 316 c 1,20,-1
 940 294 l 1,21,22
 875 191 875 191 759.5 91 c 128,-1,23
 644 -9 644 -9 582 -9 c 0,24,25
 566 -9 566 -9 554.5 0 c 128,-1,26
 543 9 543 9 543 34.5 c 128,-1,27
 543 60 543 60 555 122.5 c 128,-1,28
 567 185 567 185 581 239.5 c 128,-1,29
 595 294 595 294 627 419 c 1,30,-1
 622 423 l 1,31,32
 574 317 574 317 456 159 c 0,33,34
 402 86 402 86 342 34.5 c 128,-1,35
 282 -17 282 -17 244 -17 c 128,-1,36
 206 -17 206 -17 195 26 c 128,-1,37
 184 69 184 69 184 151 c 128,-1,38
 184 233 184 233 202.5 331 c 128,-1,39
 221 429 221 429 261 526 c 128,-1,40
 301 623 301 623 356.5 700 c 128,-1,41
 412 777 412 777 493 825 c 128,-1,42
 574 873 574 873 667 873 c 0,43,44
 672 873 672 873 750 870 c 1,45,-1
 793 1010 l 2,46,47
 841 1169 841 1169 966 1320 c 0,48,0
 1026 1391 1026 1391 1101 1437 c 128,-1,1
591 790 m 0,49,50
 510 790 510 790 448 732.5 c 128,-1,51
 386 675 386 675 352 583 c 0,52,53
 285 402 285 402 285 193 c 0,54,55
 285 109 285 109 320 109 c 0,56,57
 376 109 376 109 462 226.5 c 128,-1,58
 548 344 548 344 621 499 c 128,-1,59
 694 654 694 654 726 776 c 1,60,61
 648 790 648 790 591 790 c 0,49,50
EndSplineSet
EndChar

StartChar: e
Encoding: 101 101 73
Width: 643
GlyphClass: 2
Flags: W
LayerCount: 2
Fore
SplineSet
627 822 m 0,0,1
 533 822 533 822 459.5 707.5 c 128,-1,2
 386 593 386 593 354 430 c 1,3,4
 491 452 491 452 585.5 551 c 128,-1,5
 680 650 680 650 680 755 c 0,6,7
 680 822 680 822 627 822 c 0,0,1
508 818.5 m 128,-1,9
 602 891 602 891 699 891 c 128,-1,10
 796 891 796 891 796 797 c 0,11,12
 796 716 796 716 757 646.5 c 128,-1,13
 718 577 718 577 652 528 c 0,14,15
 523 433 523 433 344 394 c 1,16,17
 320 285 320 285 320 187 c 0,18,19
 320 61 320 61 378 61 c 0,20,21
 451 61 451 61 546 125 c 128,-1,22
 641 189 641 189 720 298 c 1,23,-1
 737 286 l 1,24,25
 642 145 642 145 530 62 c 128,-1,26
 418 -21 418 -21 320 -21 c 0,27,28
 194 -21 194 -21 194 167 c 0,29,30
 194 275 194 275 236.5 402.5 c 128,-1,31
 279 530 279 530 346.5 638 c 128,-1,8
 414 746 414 746 508 818.5 c 128,-1,9
EndSplineSet
EndChar

StartChar: f
Encoding: 102 102 74
Width: 606
GlyphClass: 2
Flags: W
LayerCount: 2
Fore
SplineSet
967 1476 m 0,0,1
 1042 1476 1042 1476 1092 1451 c 1,2,3
 1076 1383 1076 1383 1024 1355 c 1,4,5
 936 1387 936 1387 872.5 1387 c 128,-1,6
 809 1387 809 1387 770.5 1363.5 c 128,-1,7
 732 1340 732 1340 706 1295 c 0,8,9
 661 1217 661 1217 630 1087 c 2,10,-1
 581 879 l 1,11,-1
 832 890 l 1,12,13
 809 840 809 840 806 840 c 1,14,15
 761 818 761 818 566 801 c 1,16,-1
 414 121 l 2,17,18
 360 -122 360 -122 238 -247 c 128,-1,19
 116 -372 116 -372 -55 -372 c 0,20,21
 -104 -372 -104 -372 -143 -362 c 1,22,23
 -121 -291 -121 -291 -69 -267 c 1,24,25
 -20 -281 -20 -281 44 -281 c 0,26,27
 126 -281 126 -281 183.5 -223 c 128,-1,28
 241 -165 241 -165 275 -19 c 2,29,-1
 467 795 l 1,30,-1
 259 788 l 1,31,32
 273 838 273 838 309 869 c 1,33,34
 408 869 408 869 486 874 c 1,35,-1
 515 997 l 2,36,37
 567 1215 567 1215 690.5 1345.5 c 128,-1,38
 814 1476 814 1476 967 1476 c 0,0,1
EndSplineSet
EndChar

StartChar: g
Encoding: 103 103 75
Width: 754
GlyphClass: 2
Flags: W
LayerCount: 2
Fore
SplineSet
265 -18 m 0,0,1
 227 -18 227 -18 216 34 c 0,2,3
 206 77 206 77 206 153 c 128,-1,4
 206 229 206 229 225 326.5 c 128,-1,5
 244 424 244 424 284 520.5 c 128,-1,6
 324 617 324 617 380 694 c 128,-1,7
 436 771 436 771 517.5 818.5 c 128,-1,8
 599 866 599 866 693 866 c 2,9,-1
 871 866 l 1,10,11
 851 779 851 779 799 534 c 128,-1,12
 747 289 747 289 708 128 c 0,13,14
 651 -112 651 -112 526 -243.5 c 128,-1,15
 401 -375 401 -375 208 -375 c 0,16,17
 135 -375 135 -375 75 -360 c 1,18,19
 106 -287 106 -287 152 -254 c 1,20,21
 239 -277 239 -277 298 -277 c 128,-1,22
 357 -277 357 -277 397.5 -267.5 c 128,-1,23
 438 -258 438 -258 472.5 -230 c 128,-1,24
 507 -202 507 -202 529.5 -151 c 128,-1,25
 552 -100 552 -100 566 -38 c 128,-1,26
 580 24 580 24 597 104.5 c 128,-1,27
 614 185 614 185 624 230 c 0,28,29
 653 362 653 362 686 469 c 1,30,-1
 680 468 l 1,31,32
 637 364 637 364 562.5 252.5 c 128,-1,33
 488 141 488 141 404.5 61.5 c 128,-1,34
 321 -18 321 -18 265 -18 c 0,0,1
772 770 m 1,35,36
 652 782 652 782 595.5 782 c 128,-1,37
 539 782 539 782 488 743.5 c 128,-1,38
 437 705 437 705 404.5 643.5 c 128,-1,39
 372 582 372 582 350 502 c 0,40,41
 308 356 308 356 308 193 c 0,42,43
 308 111 308 111 345 111 c 0,44,45
 404 111 404 111 495 227 c 128,-1,46
 586 343 586 343 662.5 496.5 c 128,-1,47
 739 650 739 650 772 770 c 1,35,36
EndSplineSet
EndChar

StartChar: h
Encoding: 104 104 76
Width: 827
GlyphClass: 2
Flags: W
LayerCount: 2
Fore
SplineSet
832 1477 m 0,0,1
 883 1477 883 1477 910 1469 c 1,2,3
 876 1405 876 1405 833 1373 c 1,4,5
 785 1383 785 1383 737.5 1383 c 128,-1,6
 690 1383 690 1383 656.5 1363.5 c 128,-1,7
 623 1344 623 1344 597 1306 c 128,-1,8
 571 1268 571 1268 551.5 1230 c 128,-1,9
 532 1192 532 1192 515 1136 c 0,10,11
 491 1058 491 1058 474 985.5 c 128,-1,12
 457 913 457 913 424 760 c 128,-1,13
 391 607 391 607 363 477 c 128,-1,14
 335 347 335 347 335 343 c 1,15,-1
 428 504 l 1,16,17
 574 730 574 730 692 834 c 0,18,19
 762 895 762 895 807 895 c 0,20,21
 842 895 842 895 842 809.5 c 128,-1,22
 842 724 842 724 808 593 c 128,-1,23
 774 462 774 462 724 310.5 c 128,-1,24
 674 159 674 159 657 84 c 1,25,-1
 663 81 l 1,26,27
 737 113 737 113 808.5 177 c 128,-1,28
 880 241 880 241 935 327 c 1,29,-1
 959 309 l 1,30,31
 906 213 906 213 782.5 99.5 c 128,-1,32
 659 -14 659 -14 589 -14 c 0,33,34
 559 -14 559 -14 559 37 c 0,35,36
 559 116 559 116 619 322 c 0,37,38
 688 561 688 561 702 646 c 0,39,40
 704 655 704 655 706.5 668.5 c 128,-1,41
 709 682 709 682 709.5 691.5 c 128,-1,42
 710 701 710 701 710 710 c 0,43,44
 709 729 709 729 699 729 c 0,45,46
 651 729 651 729 553.5 603.5 c 128,-1,47
 456 478 456 478 359.5 301.5 c 128,-1,48
 263 125 263 125 212 -19 c 1,49,50
 174 13 174 13 174 69 c 0,51,52
 174 90 174 90 181 122 c 2,53,-1
 398 1044 l 2,54,55
 421 1141 421 1141 485 1239.5 c 128,-1,56
 549 1338 549 1338 643.5 1407.5 c 128,-1,57
 738 1477 738 1477 832 1477 c 0,0,1
EndSplineSet
EndChar

StartChar: i
Encoding: 105 105 77
Width: 449
GlyphClass: 2
Flags: W
LayerCount: 2
Fore
SplineSet
240 -22 m 0,0,1
 207 -22 207 -22 207 34 c 0,2,3
 207 95 207 95 230 184 c 0,4,5
 236 209 236 209 256 277 c 0,6,7
 380 697 380 697 397 803 c 1,8,-1
 391 804 l 1,9,10
 307 775 307 775 237 697 c 1,11,-1
 221 717 l 1,12,13
 283 797 283 797 349.5 846 c 128,-1,14
 416 895 416 895 473 895 c 0,15,16
 506 895 506 895 506 847 c 0,17,18
 506 775 506 775 458 600 c 0,19,20
 442 543 442 543 384.5 347 c 128,-1,21
 327 151 327 151 308 76 c 1,22,-1
 313 73 l 1,23,24
 472 141 472 141 586 319 c 1,25,-1
 610 301 l 1,26,27
 557 206 557 206 433 92 c 128,-1,28
 309 -22 309 -22 240 -22 c 0,0,1
616 1225 m 0,29,30
 616 1168 616 1168 571.5 1117.5 c 128,-1,31
 527 1067 527 1067 454 1048 c 1,32,33
 460 1153 460 1153 498 1204.5 c 128,-1,34
 536 1256 536 1256 603 1282 c 1,35,36
 616 1255 616 1255 616 1225 c 0,29,30
EndSplineSet
EndChar

StartChar: j
Encoding: 106 106 78
Width: 414
GlyphClass: 2
Flags: W
LayerCount: 2
Fore
SplineSet
482 894 m 0,0,1
 518 894 518 894 518 838 c 0,2,3
 518 751 518 751 483 601 c 1,4,-1
 412 280 l 2,5,6
 342 -38 342 -38 209.5 -205.5 c 128,-1,7
 77 -373 77 -373 -79 -373 c 0,8,9
 -116 -373 -116 -373 -156 -368 c 1,10,11
 -128 -269 -128 -269 -98 -240 c 1,12,13
 -29 -266 -29 -266 11.5 -266 c 128,-1,14
 52 -266 52 -266 76 -258.5 c 128,-1,15
 100 -251 100 -251 119.5 -239.5 c 128,-1,16
 139 -228 139 -228 156 -205.5 c 128,-1,17
 173 -183 173 -183 185.5 -161 c 128,-1,18
 198 -139 198 -139 211 -101.5 c 128,-1,19
 224 -64 224 -64 233.5 -32.5 c 128,-1,20
 243 -1 243 -1 254.5 51 c 128,-1,21
 266 103 266 103 275 144 c 128,-1,22
 284 185 284 185 298 250.5 c 128,-1,23
 312 316 312 316 323 366 c 0,24,25
 399 697 399 697 411 804 c 1,26,-1
 405 805 l 1,27,28
 353 786 353 786 313.5 753 c 128,-1,29
 274 720 274 720 233 668 c 1,30,-1
 217 680 l 1,31,32
 276 774 276 774 347 834 c 128,-1,33
 418 894 418 894 482 894 c 0,0,1
604 1219 m 0,34,35
 604 1162 604 1162 564 1114 c 128,-1,36
 524 1066 524 1066 453 1048 c 1,37,38
 453 1153 453 1153 487.5 1204 c 128,-1,39
 522 1255 522 1255 588 1281 c 1,40,41
 604 1249 604 1249 604 1219 c 0,34,35
EndSplineSet
EndChar

StartChar: k
Encoding: 107 107 79
Width: 823
GlyphClass: 2
Flags: W
LayerCount: 2
Fore
SplineSet
761.5 685 m 128,-1,1
 786 728 786 728 786 774.5 c 128,-1,2
 786 821 786 821 740 821 c 0,3,4
 652 821 652 821 556.5 717 c 128,-1,5
 461 613 461 613 406 482 c 0,6,7
 370 397 370 397 315 205.5 c 128,-1,8
 260 14 260 14 248 -20 c 1,9,10
 194 8 194 8 194 73 c 0,11,12
 194 101 194 101 209 159 c 2,13,-1
 440 1042 l 2,14,15
 459 1114 459 1114 502.5 1189 c 128,-1,16
 546 1264 546 1264 605 1327 c 128,-1,17
 664 1390 664 1390 739 1430.5 c 128,-1,18
 814 1471 814 1471 875.5 1471 c 128,-1,19
 937 1471 937 1471 965 1463 c 1,20,21
 928 1399 928 1399 888 1368 c 1,22,23
 838 1378 838 1378 796 1378 c 128,-1,24
 754 1378 754 1378 729 1367.5 c 128,-1,25
 704 1357 704 1357 684.5 1343 c 128,-1,26
 665 1329 665 1329 646 1301.5 c 128,-1,27
 627 1274 627 1274 614 1253.5 c 128,-1,28
 601 1233 601 1233 585.5 1194.5 c 128,-1,29
 570 1156 570 1156 562.5 1134.5 c 128,-1,30
 555 1113 555 1113 543 1070 c 0,31,32
 529 1020 529 1020 513 957 c 2,33,-1
 419 587 l 1,34,-1
 421 586 l 1,35,36
 508 731 508 731 599.5 810.5 c 128,-1,37
 691 890 691 890 808 890 c 0,38,39
 850 890 850 890 874.5 870.5 c 128,-1,40
 899 851 899 851 899 814 c 0,41,42
 899 696 899 696 804 617 c 0,43,44
 757 578 757 578 708 550 c 128,-1,45
 659 522 659 522 588 491 c 1,46,47
 648 113 648 113 690 -37 c 0,48,49
 739 -212 739 -212 781 -261 c 0,50,51
 807 -292 807 -292 832.5 -292 c 128,-1,52
 858 -292 858 -292 914.5 -241.5 c 128,-1,53
 971 -191 971 -191 1032 -100 c 1,54,-1
 1053 -120 l 1,55,56
 886 -367 886 -367 787 -367 c 0,57,58
 746 -367 746 -367 706 -321 c 128,-1,59
 666 -275 666 -275 633.5 -203 c 128,-1,60
 601 -131 601 -131 567 -17 c 0,61,62
 512 168 512 168 450 457 c 1,63,64
 538 491 538 491 601.5 533 c 128,-1,65
 665 575 665 575 701 608.5 c 128,-1,0
 737 642 737 642 761.5 685 c 128,-1,1
EndSplineSet
EndChar

StartChar: l
Encoding: 108 108 80
Width: 459
GlyphClass: 2
Flags: W
LayerCount: 2
Fore
SplineSet
853 1375 m 1,0,1
 793 1385 793 1385 754.5 1385 c 128,-1,2
 716 1385 716 1385 686.5 1370.5 c 128,-1,3
 657 1356 657 1356 635.5 1335.5 c 128,-1,4
 614 1315 614 1315 593 1279 c 128,-1,5
 572 1243 572 1243 559 1214 c 128,-1,6
 546 1185 546 1185 531.5 1139 c 128,-1,7
 517 1093 517 1093 509.5 1066 c 128,-1,8
 502 1039 502 1039 491 993.5 c 128,-1,9
 480 948 480 948 476 934 c 0,10,11
 433 779 433 779 366 470 c 128,-1,12
 299 161 299 161 279 84 c 1,13,-1
 284 80 l 1,14,15
 435 144 435 144 550 310 c 1,16,-1
 574 289 l 1,17,18
 509 186 509 186 391.5 86 c 128,-1,19
 274 -14 274 -14 210 -14 c 0,20,21
 170 -14 170 -14 170 25 c 0,22,23
 170 31 170 31 171 39 c 0,24,25
 261 495 261 495 403 1052 c 0,26,27
 427 1145 427 1145 493.5 1242.5 c 128,-1,28
 560 1340 560 1340 657.5 1409 c 128,-1,29
 755 1478 755 1478 849 1478 c 0,30,31
 903 1478 903 1478 931 1470 c 1,32,33
 905 1419 905 1419 853 1375 c 1,0,1
EndSplineSet
EndChar

StartChar: m
Encoding: 109 109 81
Width: 1167
GlyphClass: 2
Flags: W
LayerCount: 2
Fore
SplineSet
563 52 m 0,0,1
 563 118 563 118 586.5 204.5 c 128,-1,2
 610 291 610 291 645 402.5 c 128,-1,3
 680 514 680 514 695 591.5 c 128,-1,4
 710 669 710 669 710 699.5 c 128,-1,5
 710 730 710 730 700 730 c 0,6,7
 654 730 654 730 562.5 601 c 128,-1,8
 471 472 471 472 381 295.5 c 128,-1,9
 291 119 291 119 239 -29 c 1,10,11
 209 7 209 7 209 69 c 128,-1,12
 209 131 209 131 244.5 288 c 128,-1,13
 280 445 280 445 322.5 608 c 128,-1,14
 365 771 365 771 371 802 c 1,15,-1
 364 803 l 1,16,17
 290 781 290 781 208 691 c 1,18,-1
 195 708 l 1,19,20
 334 895 334 895 448 895 c 0,21,22
 480 895 480 895 480 846 c 0,23,24
 480 792 480 792 426 584 c 0,25,26
 396 469 396 469 364 343 c 1,27,-1
 369 339 l 1,28,29
 493 584 493 584 624 754 c 0,30,31
 672 815 672 815 721 856.5 c 128,-1,32
 770 898 770 898 804.5 898 c 128,-1,33
 839 898 839 898 839 827 c 128,-1,34
 839 756 839 756 818 662 c 128,-1,35
 797 568 797 568 778.5 509.5 c 128,-1,36
 760 451 760 451 720 332 c 1,37,-1
 723 328 l 1,38,39
 806 493 806 493 933 676 c 0,40,41
 998 770 998 770 1063.5 832.5 c 128,-1,42
 1129 895 1129 895 1173 895 c 0,43,44
 1207 895 1207 895 1207 810 c 128,-1,45
 1207 725 1207 725 1173.5 594 c 128,-1,46
 1140 463 1140 463 1091.5 311.5 c 128,-1,47
 1043 160 1043 160 1027 86 c 1,48,-1
 1032 82 l 1,49,50
 1180 153 1180 153 1287 319 c 1,51,-1
 1311 302 l 1,52,53
 1247 190 1247 190 1135 89 c 128,-1,54
 1023 -12 1023 -12 957 -12 c 0,55,56
 932 -12 932 -12 932 33 c 0,57,58
 932 116 932 116 990.5 319.5 c 128,-1,59
 1049 523 1049 523 1065 606 c 1,60,61
 1078 684 1078 684 1078 707 c 128,-1,62
 1078 730 1078 730 1068 730 c 0,63,64
 1021 730 1021 730 929.5 602.5 c 128,-1,65
 838 475 838 475 748 300 c 128,-1,66
 658 125 658 125 607 -20 c 1,67,68
 592 -20 592 -20 577.5 2.5 c 128,-1,69
 563 25 563 25 563 52 c 0,0,1
EndSplineSet
EndChar

StartChar: n
Encoding: 110 110 82
Width: 864
GlyphClass: 2
Flags: W
LayerCount: 2
Fore
SplineSet
869 895 m 0,0,1
 905 895 905 895 905 809.5 c 128,-1,2
 905 724 905 724 871 591 c 128,-1,3
 837 458 837 458 787 304.5 c 128,-1,4
 737 151 737 151 720 76 c 1,5,-1
 725 73 l 1,6,7
 884 141 884 141 998 319 c 1,8,-1
 1022 301 l 1,9,10
 969 206 969 206 845 92 c 128,-1,11
 721 -22 721 -22 652 -22 c 0,12,13
 622 -22 622 -22 622 22 c 0,14,15
 622 106 622 106 682.5 312.5 c 128,-1,16
 743 519 743 519 757.5 600 c 128,-1,17
 772 681 772 681 772 704.5 c 128,-1,18
 772 728 772 728 761 728 c 0,19,20
 713 728 713 728 614.5 600.5 c 128,-1,21
 516 473 516 473 418.5 295 c 128,-1,22
 321 117 321 117 270 -27 c 1,23,24
 232 6 232 6 232 70 c 128,-1,25
 232 134 232 134 266.5 291 c 128,-1,26
 301 448 301 448 342 610.5 c 128,-1,27
 383 773 383 773 389 805 c 1,28,-1
 383 807 l 1,29,30
 311 783 311 783 231 694 c 1,31,-1
 218 711 l 1,32,33
 353 897 353 897 465 897 c 0,34,35
 496 897 496 897 496 844.5 c 128,-1,36
 496 792 496 792 411 445 c 0,37,38
 406 421 406 421 402.5 408 c 128,-1,39
 399 395 399 395 394 373.5 c 128,-1,40
 389 352 389 352 384 333 c 1,41,-1
 389 329 l 1,42,43
 439 429 439 429 524 555.5 c 128,-1,44
 609 682 609 682 709.5 788.5 c 128,-1,45
 810 895 810 895 869 895 c 0,0,1
EndSplineSet
EndChar

StartChar: o
Encoding: 111 111 83
Width: 745
GlyphClass: 2
Flags: W
LayerCount: 2
Fore
SplineSet
678 894 m 0,0,1
 856 894 856 894 856 665 c 0,2,3
 856 541 856 541 810.5 415.5 c 128,-1,4
 765 290 765 290 694 196 c 128,-1,5
 623 102 623 102 532.5 43 c 128,-1,6
 442 -16 442 -16 355 -16 c 0,7,8
 201 -16 201 -16 201 204 c 0,9,10
 201 311 201 311 241 433.5 c 128,-1,11
 281 556 281 556 345.5 657.5 c 128,-1,12
 410 759 410 759 499 826.5 c 128,-1,13
 588 894 588 894 678 894 c 0,0,1
615 824 m 0,14,15
 538 824 538 824 468 736 c 128,-1,16
 398 648 398 648 357.5 513.5 c 128,-1,17
 317 379 317 379 317 244 c 0,18,19
 317 160 317 160 343.5 109 c 128,-1,20
 370 58 370 58 420 58 c 0,21,22
 496 58 496 58 571.5 130.5 c 128,-1,23
 647 203 647 203 696.5 331 c 128,-1,24
 746 459 746 459 746 603 c 0,25,26
 746 709 746 709 712.5 766.5 c 128,-1,27
 679 824 679 824 615 824 c 0,14,15
EndSplineSet
EndChar

StartChar: p
Encoding: 112 112 84
Width: 827
GlyphClass: 2
Flags: W
LayerCount: 2
Fore
SplineSet
816 629 m 0,0,1
 816 753 816 753 769 753 c 0,2,3
 717 753 717 753 646.5 684.5 c 128,-1,4
 576 616 576 616 525.5 538.5 c 128,-1,5
 475 461 475 461 450 403 c 1,6,7
 404 291 404 291 379 119 c 1,8,9
 394 108 394 108 448 99.5 c 128,-1,10
 502 91 502 91 527 91 c 0,11,12
 596 91 596 91 653.5 144 c 128,-1,13
 711 197 711 197 745 280 c 0,14,15
 816 453 816 453 816 629 c 0,0,1
-76 -369 m 0,16,17
 -123 -369 -123 -369 -160 -359 c 1,18,19
 -150 -327 -150 -327 -131 -299.5 c 128,-1,20
 -112 -272 -112 -272 -88 -261 c 1,21,22
 -42 -274 -42 -274 18 -274 c 0,23,24
 95 -274 95 -274 145 -220.5 c 128,-1,25
 195 -167 195 -167 228 -24 c 0,26,27
 240 30 240 30 300 329.5 c 128,-1,28
 360 629 360 629 405 800 c 1,29,-1
 400 801 l 1,30,31
 356 785 356 785 321.5 755 c 128,-1,32
 287 725 287 725 246 677 c 1,33,-1
 233 695 l 1,34,35
 263 739 263 739 296 778 c 128,-1,36
 329 817 329 817 380.5 853 c 128,-1,37
 432 889 432 889 472.5 889 c 128,-1,38
 513 889 513 889 513 856 c 0,39,40
 513 851 513 851 509 833 c 2,41,-1
 420 480 l 1,42,-1
 426 479 l 1,43,44
 529 638 529 638 650.5 763.5 c 128,-1,45
 772 889 772 889 845 890 c 0,46,47
 876 890 876 890 900 836 c 128,-1,48
 924 782 924 782 924 675 c 0,49,50
 924 531 924 531 858 373 c 128,-1,51
 792 215 792 215 683 106.5 c 128,-1,52
 574 -2 574 -2 464 -2 c 0,53,54
 397 -2 397 -2 344 47 c 1,55,56
 294 -129 294 -129 180.5 -249 c 128,-1,57
 67 -369 67 -369 -76 -369 c 0,16,17
EndSplineSet
EndChar

StartChar: q
Encoding: 113 113 85
Width: 754
GlyphClass: 2
Flags: W
LayerCount: 2
Fore
SplineSet
225 -21 m 0,0,1
 190 -21 190 -21 179 22.5 c 128,-1,2
 168 66 168 66 168 141 c 128,-1,3
 168 216 168 216 181.5 297.5 c 128,-1,4
 195 379 195 379 221.5 460.5 c 128,-1,5
 248 542 248 542 290 615 c 128,-1,6
 332 688 332 688 384 744.5 c 128,-1,7
 436 801 436 801 506.5 834 c 128,-1,8
 577 867 577 867 656 867 c 0,9,10
 674 867 674 867 715 861 c 128,-1,11
 756 855 756 855 777 855 c 0,12,13
 829 855 829 855 874 896 c 1,14,-1
 882 874 l 1,15,16
 831 832 831 832 819 771 c 1,17,-1
 713 311 l 1,18,-1
 677 170 l 2,19,20
 641 30 641 30 624 -47 c 1,21,22
 619 -64 619 -64 607 -112.5 c 128,-1,23
 595 -161 595 -161 588 -180 c 128,-1,24
 581 -199 581 -199 561 -234 c 128,-1,25
 541 -269 541 -269 511 -302 c 1,26,-1
 520 -309 l 1,27,28
 571 -284 571 -284 657 -228 c 1,29,-1
 668 -258 l 1,30,-1
 289 -466 l 1,31,-1
 273 -432 l 1,32,33
 394 -383 394 -383 438 -322 c 1,34,35
 469 -281 469 -281 479.5 -243 c 128,-1,36
 490 -205 490 -205 494 -184 c 0,37,38
 529 6 529 6 642 433 c 2,39,-1
 662 509 l 1,40,-1
 656 513 l 1,41,42
 600 381 600 381 468 192 c 0,43,44
 406 104 406 104 339 41.5 c 128,-1,45
 272 -21 272 -21 225 -21 c 0,0,1
714 780 m 1,46,47
 636 794 636 794 574.5 794 c 128,-1,48
 513 794 513 794 458.5 755 c 128,-1,49
 404 716 404 716 369.5 654 c 128,-1,50
 335 592 335 592 312 511 c 0,51,52
 269 365 269 365 269 191 c 0,53,54
 269 105 269 105 304 105 c 0,55,56
 361 105 361 105 447.5 223.5 c 128,-1,57
 534 342 534 342 607.5 499 c 128,-1,58
 681 656 681 656 714 780 c 1,46,47
EndSplineSet
EndChar

StartChar: r
Encoding: 114 114 86
Width: 569
GlyphClass: 2
Flags: W
LayerCount: 2
Fore
SplineSet
679 861 m 0,0,1
 724 896 724 896 762.5 896 c 128,-1,2
 801 896 801 896 818 884 c 1,3,4
 807 827 807 827 773 776 c 1,5,6
 640 776 640 776 539 602 c 0,7,8
 473 487 473 487 430 364 c 0,9,10
 361 168 361 168 307 -18 c 1,11,12
 277 -18 277 -18 254 1.5 c 128,-1,13
 231 21 231 21 231 47 c 0,14,15
 231 149 231 149 344 590 c 0,16,17
 386 754 386 754 392 785 c 1,18,-1
 386 786 l 1,19,20
 314 763 314 763 234 676 c 1,21,-1
 221 693 l 1,22,23
 357 875 357 875 468 875 c 0,24,25
 500 875 500 875 500 828 c 128,-1,26
 500 781 500 781 481 708 c 128,-1,27
 462 635 462 635 454 603.5 c 128,-1,28
 446 572 446 572 431 512.5 c 128,-1,29
 416 453 416 453 403 402 c 1,30,-1
 411 402 l 1,31,32
 567 774 567 774 679 861 c 0,0,1
EndSplineSet
EndChar

StartChar: s
Encoding: 115 115 87
Width: 602
GlyphClass: 2
Flags: W
LayerCount: 2
Fore
SplineSet
452.5 863 m 128,-1,1
 523 896 523 896 604.5 896 c 128,-1,2
 686 896 686 896 736 855 c 1,3,4
 714 794 714 794 668 755 c 1,5,6
 609 827 609 827 506 827 c 0,7,8
 458 827 458 827 428.5 795.5 c 128,-1,9
 399 764 399 764 399 707.5 c 128,-1,10
 399 651 399 651 429 601.5 c 128,-1,11
 459 552 459 552 511 497 c 1,12,13
 577 424 577 424 605 376.5 c 128,-1,14
 633 329 633 329 633 274 c 0,15,16
 633 167 633 167 538 76.5 c 128,-1,17
 443 -14 443 -14 316 -14 c 128,-1,18
 189 -14 189 -14 129 84 c 1,19,20
 129 123 129 123 147 159 c 128,-1,21
 165 195 165 195 193 211 c 1,22,23
 215 141 215 141 264.5 99.5 c 128,-1,24
 314 58 314 58 384.5 58 c 128,-1,25
 455 58 455 58 497 103 c 128,-1,26
 539 148 539 148 538.5 202 c 128,-1,27
 538 256 538 256 509 301 c 128,-1,28
 480 346 480 346 410 410 c 0,29,30
 289 521 289 521 289 637 c 0,31,32
 289 709 289 709 335.5 769.5 c 128,-1,0
 382 830 382 830 452.5 863 c 128,-1,1
EndSplineSet
EndChar

StartChar: t
Encoding: 116 116 88
Width: 598
GlyphClass: 2
Flags: W
LayerCount: 2
Fore
SplineSet
386 150 m 0,0,1
 386 85 386 85 425 85 c 0,2,3
 475 85 475 85 545 160 c 128,-1,4
 615 235 615 235 661 323 c 1,5,-1
 690 300 l 1,6,7
 600 149 600 149 513.5 66.5 c 128,-1,8
 427 -16 427 -16 366 -16 c 0,9,10
 318 -16 318 -16 293.5 16 c 128,-1,11
 269 48 269 48 269 120.5 c 128,-1,12
 269 193 269 193 299 312 c 0,13,14
 361 563 361 563 415 801 c 1,15,16
 336 801 336 801 270 792 c 1,17,18
 279 831 279 831 317 859 c 1,19,-1
 429 870 l 1,20,-1
 447 946 l 2,21,22
 453 974 453 974 494.5 995 c 128,-1,23
 536 1016 536 1016 575 1016 c 1,24,-1
 545 875 l 1,25,-1
 785 875 l 1,26,27
 779 831 779 831 728 801 c 1,28,-1
 525 801 l 1,29,-1
 402 261 l 2,30,31
 386 192 386 192 386 150 c 0,0,1
EndSplineSet
EndChar

StartChar: u
Encoding: 117 117 89
Width: 864
GlyphClass: 2
Flags: W
LayerCount: 2
Fore
SplineSet
475 894 m 0,0,1
 491 894 491 894 501 883 c 128,-1,2
 511 872 511 872 511 861 c 128,-1,3
 511 850 511 850 506 830 c 128,-1,4
 501 810 501 810 468.5 687.5 c 128,-1,5
 436 565 436 565 417 488 c 128,-1,6
 398 411 398 411 380 313 c 128,-1,7
 362 215 362 215 362 169 c 128,-1,8
 362 123 362 123 378 123 c 0,9,10
 430 124 430 124 522 237.5 c 128,-1,11
 614 351 614 351 701.5 513.5 c 128,-1,12
 789 676 789 676 833 816 c 0,13,14
 843 847 843 847 877 868 c 128,-1,15
 911 889 911 889 952 890 c 1,16,17
 913 709 913 709 837.5 436 c 128,-1,18
 762 163 762 163 740 79 c 1,19,-1
 745 75 l 1,20,21
 904 147 904 147 1025 327 c 1,22,-1
 1048 310 l 1,23,24
 988 204 988 204 864 91.5 c 128,-1,25
 740 -21 740 -21 670 -21 c 0,26,27
 652 -21 652 -21 646 -7.5 c 128,-1,28
 640 6 640 6 640 29.5 c 128,-1,29
 640 53 640 53 642 76 c 128,-1,30
 644 99 644 99 649.5 128 c 128,-1,31
 655 157 655 157 659 178.5 c 128,-1,32
 663 200 663 200 673 236.5 c 128,-1,33
 683 273 683 273 687.5 291.5 c 128,-1,34
 692 310 692 310 705 351.5 c 128,-1,35
 718 393 718 393 722 405 c 0,36,37
 745 487 745 487 755 511 c 1,38,-1
 750 514 l 1,39,40
 700 415 700 415 619 294.5 c 128,-1,41
 538 174 538 174 450.5 79 c 128,-1,42
 363 -16 363 -16 317 -16 c 0,43,44
 243 -16 243 -16 243 113 c 0,45,46
 243 215 243 215 282.5 381 c 128,-1,47
 322 547 322 547 397 803 c 1,48,-1
 391 804 l 1,49,50
 318 779 318 779 231 692 c 1,51,-1
 218 707 l 1,52,53
 281 790 281 790 348 842 c 128,-1,54
 415 894 415 894 475 894 c 0,0,1
EndSplineSet
EndChar

StartChar: v
Encoding: 118 118 90
Width: 823
GlyphClass: 2
Flags: W
LayerCount: 2
Fore
SplineSet
376 -20 m 1,0,1
 323 76 323 76 323 221 c 0,2,3
 323 299 323 299 340 412 c 0,4,5
 371 626 371 626 371 727 c 0,6,7
 371 755 371 755 369 781 c 1,8,-1
 363 782 l 1,9,10
 275 740 275 740 183 650 c 1,11,-1
 171 672 l 1,12,13
 234 756 234 756 325.5 813.5 c 128,-1,14
 417 871 417 871 480 871 c 0,15,16
 503 871 503 871 503 798.5 c 128,-1,17
 503 726 503 726 487 624 c 0,18,19
 438 312 438 312 438 197 c 0,20,21
 438 138 438 138 458 118 c 1,22,23
 520 159 520 159 591 225.5 c 128,-1,24
 662 292 662 292 707 344 c 128,-1,25
 752 396 752 396 795 458 c 0,26,27
 877 577 877 577 897 713 c 0,28,29
 900 734 900 734 900 766.5 c 128,-1,30
 900 799 900 799 885 842 c 1,31,32
 917 884 917 884 1026 887 c 1,33,34
 1030 866 1030 866 1030 849 c 0,35,36
 1030 748 1030 748 972 635.5 c 128,-1,37
 914 523 914 523 834.5 425 c 128,-1,38
 755 327 755 327 662 233 c 0,39,40
 490 57 490 57 376 -20 c 1,0,1
EndSplineSet
EndChar

StartChar: w
Encoding: 119 119 91
Width: 1272
GlyphClass: 2
Flags: W
LayerCount: 2
Fore
SplineSet
819 682 m 1,0,-1
 816 767 l 2,1,2
 815 777 815 777 850.5 811.5 c 128,-1,3
 886 846 886 846 923 865 c 0,4,5
 931 869 931 869 936 869 c 0,6,7
 949 869 949 869 949 831 c 0,8,9
 949 735 949 735 921 549.5 c 128,-1,10
 893 364 893 364 893 271.5 c 128,-1,11
 893 179 893 179 910 107 c 1,12,13
 950 121 950 121 1002.5 162 c 128,-1,14
 1055 203 1055 203 1110.5 267 c 128,-1,15
 1166 331 1166 331 1212.5 405.5 c 128,-1,16
 1259 480 1259 480 1289 570.5 c 128,-1,17
 1319 661 1319 661 1319 746 c 0,18,19
 1319 772 1319 772 1306 841 c 1,20,21
 1354 884 1354 884 1441 886 c 1,22,23
 1447 858 1447 858 1447 826 c 0,24,25
 1447 720 1447 720 1382.5 582 c 128,-1,26
 1318 444 1318 444 1225.5 325 c 128,-1,27
 1133 206 1133 206 1034 111 c 128,-1,28
 935 16 935 16 864 -20 c 1,29,30
 791 62 791 62 791 241 c 0,31,32
 791 296 791 296 799 382 c 1,33,34
 708 250 708 250 575.5 136 c 128,-1,35
 443 22 443 22 344 -21 c 1,36,37
 298 70 298 70 298 198 c 0,38,39
 298 280 298 280 325.5 458.5 c 128,-1,40
 353 637 353 637 353 727 c 0,41,42
 353 744 353 744 351 780 c 1,43,-1
 345 781 l 1,44,45
 257 739 257 739 165 649 c 1,46,-1
 153 671 l 1,47,48
 215 754 215 754 310.5 812 c 128,-1,49
 406 870 406 870 470 870 c 0,50,51
 491 870 491 870 491 806.5 c 128,-1,52
 491 743 491 743 452.5 506.5 c 128,-1,53
 414 270 414 270 414 200.5 c 128,-1,54
 414 131 414 131 431 117 c 1,55,56
 516 152 516 152 606 243.5 c 128,-1,57
 696 335 696 335 757.5 456.5 c 128,-1,58
 819 578 819 578 819 682 c 1,0,-1
EndSplineSet
EndChar

StartChar: x
Encoding: 120 120 92
Width: 784
GlyphClass: 2
Flags: W
LayerCount: 2
Fore
SplineSet
953 777 m 1,0,1
 928 788 928 788 895.5 788 c 128,-1,2
 863 788 863 788 829.5 771.5 c 128,-1,3
 796 755 796 755 775.5 729.5 c 128,-1,4
 755 704 755 704 699 604.5 c 128,-1,5
 643 505 643 505 610 432 c 1,6,7
 693 47 693 47 736 -119.5 c 128,-1,8
 779 -286 779 -286 862 -286 c 0,9,10
 885 -286 885 -286 943 -235.5 c 128,-1,11
 1001 -185 1001 -185 1063 -94 c 1,12,-1
 1084 -114 l 1,13,14
 1011 -220 1011 -220 930.5 -290.5 c 128,-1,15
 850 -361 850 -361 792.5 -361 c 128,-1,16
 735 -361 735 -361 697.5 -316 c 128,-1,17
 660 -271 660 -271 637 -174 c 1,18,19
 580 34 580 34 517 307 c 1,20,21
 436 186 436 186 346 86 c 0,22,23
 323 61 323 61 309.5 50 c 128,-1,24
 296 39 296 39 272 21.5 c 128,-1,25
 248 4 248 4 228 -3 c 0,26,27
 173 -23 173 -23 126 -23 c 128,-1,28
 79 -23 79 -23 53 -15 c 1,29,-1
 55 -12 l 1,30,-1
 55 -15 l 1,31,32
 57 -15 57 -15 85.5 22 c 128,-1,33
 114 59 114 59 130 78 c 1,34,35
 221 78 221 78 277 110 c 128,-1,36
 333 142 333 142 382 202 c 0,37,38
 470 309 470 309 502 371 c 1,39,40
 450 600 450 600 412 801 c 1,41,42
 356 779 356 779 248 692 c 1,43,-1
 233 705 l 1,44,45
 271 761 271 761 346.5 825 c 128,-1,46
 422 889 422 889 484 889 c 0,47,48
 505 889 505 889 512 857 c 1,49,50
 540 753 540 753 594 505 c 1,51,52
 684 671 684 671 735 732 c 0,53,54
 802 811 802 811 862 844 c 0,55,56
 944 888 944 888 1032 888 c 1,57,58
 1006 824 1006 824 953 777 c 1,0,1
EndSplineSet
EndChar

StartChar: y
Encoding: 121 121 93
Width: 748
GlyphClass: 2
Flags: W
LayerCount: 2
Fore
SplineSet
308 -26 m 0,0,1
 251 -26 251 -26 239 43 c 0,2,3
 233 78 233 78 233 120 c 128,-1,4
 233 162 233 162 243.5 224.5 c 128,-1,5
 254 287 254 287 266.5 346.5 c 128,-1,6
 279 406 279 406 300 488 c 0,7,8
 326 587 326 587 388 800 c 1,9,-1
 382 800 l 1,10,11
 313 779 313 779 220 688 c 1,12,-1
 207 703 l 1,13,14
 350 892 350 892 467 892 c 0,15,16
 484 892 484 892 493.5 877.5 c 128,-1,17
 503 863 503 863 499 844 c 0,18,19
 490 805 490 805 446 634 c 0,20,21
 353 277 353 277 353 150 c 0,22,23
 353 115 353 115 369 115 c 0,24,25
 421 116 421 116 507.5 232.5 c 128,-1,26
 594 349 594 349 674 512.5 c 128,-1,27
 754 676 754 676 795 816 c 0,28,29
 815 887 815 887 908 896 c 1,30,31
 892 832 892 832 877 787 c 1,32,33
 792 417 792 417 725 132 c 1,34,35
 670 -108 670 -108 548 -240 c 128,-1,36
 426 -372 426 -372 237 -372 c 0,37,38
 166 -372 166 -372 106 -357 c 1,39,40
 134 -286 134 -286 182 -251 c 1,41,42
 269 -274 269 -274 327 -274 c 128,-1,43
 385 -274 385 -274 424 -264.5 c 128,-1,44
 463 -255 463 -255 497 -227 c 128,-1,45
 531 -199 531 -199 553 -147.5 c 128,-1,46
 575 -96 575 -96 593 -11 c 0,47,48
 652 264 652 264 723 546 c 1,49,-1
 718 549 l 1,50,51
 674 442 674 442 599 311 c 128,-1,52
 524 180 524 180 440 77 c 128,-1,53
 356 -26 356 -26 308 -26 c 0,0,1
EndSplineSet
EndChar

StartChar: z
Encoding: 122 122 94
Width: 811
GlyphClass: 2
Flags: W
LayerCount: 2
Fore
SplineSet
395 873.5 m 128,-1,1
 435 887 435 887 476.5 887 c 128,-1,2
 518 887 518 887 618.5 876.5 c 128,-1,3
 719 866 719 866 773 866 c 0,4,5
 873 866 873 866 930 895 c 1,6,-1
 943 877 l 1,7,8
 853 783 853 783 629.5 535 c 128,-1,9
 406 287 406 287 258 147 c 1,10,-1
 265 145 l 1,11,12
 302 164 302 164 321.5 168 c 128,-1,13
 341 172 341 172 390 172 c 128,-1,14
 439 172 439 172 547.5 137 c 128,-1,15
 656 102 656 102 707 102 c 0,16,17
 733 102 733 102 781 113 c 0,18,19
 794 116 794 116 811 130 c 128,-1,20
 828 144 828 144 834.5 148 c 128,-1,21
 841 152 841 152 859 175.5 c 128,-1,22
 877 199 877 199 880 203.5 c 128,-1,23
 883 208 883 208 905 239 c 1,24,-1
 932 227 l 1,25,26
 849 -9 849 -9 678 -9 c 0,27,28
 629 -9 629 -9 498.5 38.5 c 128,-1,29
 368 86 368 86 293 86 c 0,30,31
 185 86 185 86 99 8 c 1,32,-1
 73 36 l 1,33,34
 189 159 189 159 435 414.5 c 128,-1,35
 681 670 681 670 782 772 c 1,36,37
 764 766 764 766 728.5 766 c 128,-1,38
 693 766 693 766 602 776.5 c 128,-1,39
 511 787 511 787 463 787 c 0,40,41
 315 787 315 787 271 701 c 1,42,-1
 252 715 l 1,43,44
 260 755 260 755 283.5 789 c 128,-1,45
 307 823 307 823 331 841.5 c 128,-1,0
 355 860 355 860 395 873.5 c 128,-1,1
EndSplineSet
EndChar

StartChar: braceleft
Encoding: 123 123 95
Width: 455
GlyphClass: 2
Flags: W
LayerCount: 2
Fore
SplineSet
387 388 m 0,0,1
 387 318 387 318 355 202 c 128,-1,2
 323 86 323 86 292 -27 c 128,-1,3
 261 -140 261 -140 261 -206 c 0,4,5
 261 -212 261 -212 261 -218 c 0,6,7
 264 -336 264 -336 378 -341 c 1,8,-1
 354 -369 l 1,9,10
 257 -353 257 -353 204 -301 c 0,11,12
 148 -245 148 -245 148 -163 c 0,13,14
 148 -108 148 -108 168.5 -25 c 128,-1,15
 189 58 189 58 216 132 c 0,16,17
 286 321 286 321 286 417 c 0,18,19
 286 479 286 479 254.5 517.5 c 128,-1,20
 223 556 223 556 163 560 c 1,21,-1
 139 563 l 1,22,-1
 174 615 l 1,23,24
 241 615 241 615 286 675 c 0,25,26
 317 715 317 715 332.5 769 c 128,-1,27
 348 823 348 823 358.5 888.5 c 128,-1,28
 369 954 369 954 378 1022.5 c 128,-1,29
 387 1091 387 1091 400 1158.5 c 128,-1,30
 413 1226 413 1226 438.5 1285.5 c 128,-1,31
 464 1345 464 1345 503 1390 c 128,-1,32
 542 1435 542 1435 606 1460.5 c 128,-1,33
 670 1486 670 1486 754 1486 c 0,34,35
 757 1486 757 1486 760 1486 c 1,36,-1
 773 1460 l 1,37,38
 701 1452 701 1452 651 1412 c 128,-1,39
 601 1372 601 1372 574.5 1311.5 c 128,-1,40
 548 1251 548 1251 530 1178.5 c 128,-1,41
 512 1106 512 1106 497 1026 c 128,-1,42
 482 946 482 946 464 874 c 128,-1,43
 446 802 446 802 411.5 737 c 128,-1,44
 377 672 377 672 322 630.5 c 128,-1,45
 267 589 267 589 204 588 c 1,46,-1
 203 584 l 1,47,48
 252 584 252 584 295 556 c 0,49,50
 387 494 387 494 387 388 c 0,0,1
EndSplineSet
EndChar

StartChar: bar
Encoding: 124 124 96
Width: 1065
GlyphClass: 2
Flags: W
LayerCount: 2
Fore
SplineSet
1143 1472 m 1,0,-1
 769 -342 l 1,1,-1
 668 -342 l 1,2,-1
 1041 1472 l 1,3,-1
 1143 1472 l 1,0,-1
EndSplineSet
EndChar

StartChar: braceright
Encoding: 125 125 97
Width: 442
GlyphClass: 2
Flags: W
LayerCount: 2
Fore
SplineSet
346 752 m 0,0,1
 344 770 344 770 344 803.5 c 128,-1,2
 344 837 344 837 356 897 c 128,-1,3
 368 957 368 957 389 1034.5 c 128,-1,4
 410 1112 410 1112 424.5 1183 c 128,-1,5
 439 1254 439 1254 439 1313.5 c 128,-1,6
 439 1373 439 1373 406.5 1415.5 c 128,-1,7
 374 1458 374 1458 305 1471 c 1,8,-1
 322 1496 l 1,9,10
 403 1490 403 1490 455.5 1465 c 128,-1,11
 508 1440 508 1440 530 1401 c 0,12,13
 558 1349 558 1349 558 1279 c 0,14,15
 558 1228 558 1228 531.5 1126.5 c 128,-1,16
 505 1025 505 1025 484 966 c 0,17,18
 444 859 444 859 435 750 c 0,19,20
 434 742 434 742 434 734 c 0,21,22
 434 698 434 698 449 669 c 0,23,24
 474 619 474 619 546 619 c 0,25,26
 551 619 551 619 557 619 c 1,27,-1
 531 565 l 1,28,29
 506 563 506 563 503 562 c 0,30,31
 445 558 445 558 400.5 523.5 c 128,-1,32
 356 489 356 489 326.5 429 c 128,-1,33
 297 369 297 369 283.5 249 c 128,-1,34
 270 129 270 129 253.5 8 c 128,-1,35
 237 -113 237 -113 197.5 -189 c 128,-1,36
 158 -265 158 -265 77.5 -314 c 128,-1,37
 -3 -363 -3 -363 -105 -363 c 0,38,39
 -107 -363 -107 -363 -109 -363 c 1,40,-1
 -93 -335 l 1,41,42
 -91 -335 -91 -335 -89 -335 c 0,43,44
 -34 -335 -34 -335 -0.5 -307.5 c 128,-1,45
 33 -280 33 -280 66.5 -217 c 128,-1,46
 100 -154 100 -154 121 -31.5 c 128,-1,47
 142 91 142 91 163.5 217 c 128,-1,48
 185 343 185 343 214 404 c 0,49,50
 269 518 269 518 374 563 c 1,51,52
 429 589 429 589 472 589 c 0,53,54
 479 589 479 589 486 588 c 1,55,-1
 487 592 l 1,56,57
 425 599 425 599 388 643 c 128,-1,58
 351 687 351 687 346 752 c 0,0,1
EndSplineSet
EndChar

StartChar: asciitilde
Encoding: 126 126 98
Width: 958
GlyphClass: 2
Flags: W
LayerCount: 2
Fore
SplineSet
682 548 m 0,0,1
 816 548 816 548 919 655 c 1,2,-1
 934 621 l 1,3,4
 781 444 781 444 671 444 c 0,5,6
 619 444 619 444 564.5 461.5 c 128,-1,7
 510 479 510 479 472 500 c 0,8,9
 370 557 370 557 300 557 c 0,10,11
 168 557 168 557 63 450 c 1,12,-1
 49 484 l 1,13,14
 202 661 202 661 312 661 c 0,15,16
 382 661 382 661 487 604 c 0,17,18
 527 583 527 583 581 565.5 c 128,-1,19
 635 548 635 548 682 548 c 0,0,1
EndSplineSet
EndChar

StartChar: exclamdown
Encoding: 161 161 100
Width: 526
GlyphClass: 2
Flags: W
LayerCount: 2
Fore
SplineSet
466 533 m 1,0,-1
 525 533 l 1,1,2
 404 -22 404 -22 309 -541 c 1,3,-1
 133 -578 l 1,4,-1
 466 533 l 1,0,-1
572 892 m 0,5,6
 637 892 637 892 637 811 c 0,7,8
 637 741 637 741 603.5 695.5 c 128,-1,9
 570 650 570 650 519 650 c 0,10,11
 491 650 491 650 473.5 669.5 c 128,-1,12
 456 689 456 689 456 728 c 0,13,14
 456 794 456 794 488.5 843 c 128,-1,15
 521 892 521 892 572 892 c 0,5,6
EndSplineSet
EndChar

StartChar: cent
Encoding: 162 162 101
Width: 811
GlyphClass: 2
Flags: W
LayerCount: 2
Fore
SplineSet
224 -18 m 0,0,1
 150 -18 150 -18 114 33.5 c 128,-1,2
 78 85 78 85 78 169 c 0,3,4
 78 286 78 286 135 428 c 128,-1,5
 192 570 192 570 282.5 686.5 c 128,-1,6
 373 803 373 803 467 856 c 1,7,-1
 511 1074 l 1,8,-1
 558 1074 l 1,9,-1
 518 878 l 1,10,11
 555 892 555 892 587 892 c 0,12,13
 669 892 669 892 711 850 c 1,14,15
 708 824 708 824 686.5 794 c 128,-1,16
 665 764 665 764 634 747 c 1,17,18
 581 808 581 808 516 808 c 0,19,20
 508 808 508 808 504 807 c 1,21,-1
 357 81 l 1,22,23
 493 129 493 129 611 295 c 1,24,-1
 627 281 l 1,25,26
 491 78 491 78 343 10 c 1,27,-1
 303 -188 l 1,28,-1
 256 -188 l 1,29,-1
 292 -7 l 1,30,31
 256 -18 256 -18 224 -18 c 0,0,1
284 68 m 0,32,33
 292 68 292 68 308 70 c 1,34,-1
 455 797 l 1,35,36
 359 759 359 759 297 608 c 128,-1,37
 235 457 235 457 211 264 c 0,38,39
 206 224 206 224 206 196 c 0,40,41
 206 68 206 68 284 68 c 0,32,33
EndSplineSet
EndChar

StartChar: sterling
Encoding: 163 163 102
Width: 897
GlyphClass: 2
Flags: W
LayerCount: 2
Fore
SplineSet
526 -84 m 0,0,1
 484 -63 484 -63 442 -42 c 0,2,3
 341 7 341 7 225 7 c 0,4,5
 176 7 176 7 90 -1 c 1,6,-1
 96 40 l 1,7,8
 283 84 283 84 370 235 c 0,9,10
 413 311 413 311 438.5 393 c 128,-1,11
 464 475 464 475 485 590 c 1,12,-1
 282 590 l 1,13,14
 317 648 317 648 363 670 c 1,15,-1
 502 670 l 1,16,-1
 519 789 l 2,17,18
 542 954 542 954 624 1082 c 0,19,20
 669 1151 669 1151 728.5 1201.5 c 128,-1,21
 788 1252 788 1252 874 1283 c 128,-1,22
 960 1314 960 1314 1063 1314 c 0,23,24
 1099 1314 1099 1314 1141 1299.5 c 128,-1,25
 1183 1285 1183 1285 1214 1263 c 1,26,27
 1199 1204 1199 1204 1140 1149 c 1,28,29
 1099 1186 1099 1186 1044 1211 c 128,-1,30
 989 1236 989 1236 935 1236 c 0,31,32
 825 1236 825 1236 761 1146 c 128,-1,33
 697 1056 697 1056 675 897 c 2,34,-1
 643 670 l 1,35,-1
 781 670 l 2,36,37
 860 670 860 670 920 686 c 1,38,-1
 928 676 l 1,39,40
 879 627 879 627 848 608.5 c 128,-1,41
 817 590 817 590 781 590 c 2,42,-1
 628 590 l 1,43,44
 591 403 591 403 517 276 c 128,-1,45
 443 149 443 149 294 60 c 1,46,-1
 296 56 l 1,47,48
 323 62 323 62 373 62 c 0,49,50
 472 62 472 62 624.5 23.5 c 128,-1,51
 777 -15 777 -15 842.5 -15 c 128,-1,52
 908 -15 908 -15 953 17 c 128,-1,53
 998 49 998 49 1014 106 c 1,54,-1
 1053 108 l 1,55,56
 1036 -6 1036 -6 954.5 -69.5 c 128,-1,57
 873 -133 873 -133 750 -133 c 128,-1,58
 627 -133 627 -133 526 -84 c 0,0,1
EndSplineSet
EndChar

StartChar: currency
Encoding: 164 164 103
Width: 1229
GlyphClass: 2
Flags: W
LayerCount: 2
Fore
SplineSet
389 423.5 m 128,-1,1
 370 480 370 480 370 551.5 c 128,-1,2
 370 623 370 623 387 679.5 c 128,-1,3
 404 736 404 736 455 801 c 1,4,-1
 362 893 l 1,5,-1
 433 965 l 1,6,-1
 526 872 l 1,7,8
 642 961 642 961 777 961 c 128,-1,9
 912 961 912 961 1031 872 c 1,10,-1
 1123 965 l 1,11,-1
 1192 893 l 1,12,-1
 1101 801 l 1,13,14
 1149 737 1149 737 1169.5 679 c 128,-1,15
 1190 621 1190 621 1190 550 c 128,-1,16
 1190 479 1190 479 1169.5 421.5 c 128,-1,17
 1149 364 1149 364 1101 303 c 1,18,-1
 1192 211 l 1,19,-1
 1123 139 l 1,20,-1
 1031 231 l 1,21,22
 916 139 916 139 780 139 c 128,-1,23
 644 139 644 139 526 231 c 1,24,-1
 433 139 l 1,25,-1
 362 211 l 1,26,-1
 455 303 l 1,27,0
 408 367 408 367 389 423.5 c 128,-1,1
991.5 762.5 m 128,-1,29
 903 851 903 851 780.5 851 c 128,-1,30
 658 851 658 851 569 763 c 128,-1,31
 480 675 480 675 480 550 c 128,-1,32
 480 425 480 425 568.5 336.5 c 128,-1,33
 657 248 657 248 780 248 c 128,-1,34
 903 248 903 248 991.5 337 c 128,-1,35
 1080 426 1080 426 1080 550 c 128,-1,28
 1080 674 1080 674 991.5 762.5 c 128,-1,29
EndSplineSet
EndChar

StartChar: yen
Encoding: 165 165 104
Width: 1339
GlyphClass: 2
Flags: W
LayerCount: 2
Fore
SplineSet
980 1322 m 0,0,1
 1047 1322 1047 1322 1100.5 1298 c 128,-1,2
 1154 1274 1154 1274 1188.5 1233 c 128,-1,3
 1223 1192 1223 1192 1246 1134 c 0,4,5
 1288 1028 1288 1028 1288 873 c 0,6,7
 1288 774 1288 774 1268 649 c 128,-1,8
 1248 524 1248 524 1225 452 c 1,9,-1
 1231 450 l 1,10,11
 1316 550 1316 550 1363 610.5 c 128,-1,12
 1410 671 1410 671 1474 766 c 0,13,14
 1597 947 1597 947 1623 1128 c 0,15,16
 1624 1139 1624 1139 1624 1149 c 0,17,18
 1624 1234 1624 1234 1532 1234 c 0,19,20
 1527 1234 1527 1234 1528 1242.5 c 128,-1,21
 1529 1251 1529 1251 1552.5 1276.5 c 128,-1,22
 1576 1302 1576 1302 1591 1312 c 1,23,24
 1605 1324 1605 1324 1635.5 1324 c 128,-1,25
 1666 1324 1666 1324 1720 1309.5 c 128,-1,26
 1774 1295 1774 1295 1774 1266 c 2,27,-1
 1774 1263 l 1,28,29
 1737 1000 1737 1000 1466 649 c 1,30,-1
 1696 649 l 2,31,32
 1775 649 1775 649 1835 665 c 1,33,-1
 1843 655 l 1,34,35
 1795 605 1795 605 1765.5 587 c 128,-1,36
 1736 569 1736 569 1700 569 c 2,37,-1
 1402 569 l 1,38,39
 1342 494 1342 494 1273 419 c 1,40,-1
 1560 419 l 2,41,42
 1639 419 1639 419 1699 435 c 1,43,-1
 1707 425 l 1,44,45
 1659 376 1659 376 1628.5 357.5 c 128,-1,46
 1598 339 1598 339 1562 339 c 2,47,-1
 1200 339 l 1,48,-1
 1197 335 l 1,49,-1
 1186 294 l 2,50,51
 1103 -17 1103 -17 985 -190.5 c 128,-1,52
 867 -364 867 -364 743 -364 c 0,53,54
 664 -364 664 -364 569.5 -339.5 c 128,-1,55
 475 -315 475 -315 401 -275 c 1,56,57
 419 -143 419 -143 454 -143 c 0,58,59
 492 -143 492 -143 582 -222 c 0,60,61
 617 -252 617 -252 667.5 -276.5 c 128,-1,62
 718 -301 718 -301 770.5 -301 c 128,-1,63
 823 -301 823 -301 875.5 -244 c 128,-1,64
 928 -187 928 -187 968 -90 c 0,65,66
 1044 95 1044 95 1089 339 c 1,67,-1
 681 339 l 1,68,69
 712 392 712 392 770 419 c 1,70,-1
 1104 419 l 1,71,72
 1107 437 1107 437 1117 507 c 2,73,-1
 1125 569 l 1,74,-1
 789 569 l 1,75,76
 819 621 819 621 878 649 c 1,77,-1
 1134 649 l 1,78,79
 1143 740 1143 740 1143 819 c 0,80,81
 1143 1026 1143 1026 1075.5 1131.5 c 128,-1,82
 1008 1237 1008 1237 858 1237 c 0,83,84
 733 1237 733 1237 670 1142.5 c 128,-1,85
 607 1048 607 1048 590 876 c 1,86,87
 571 852 571 852 535.5 835 c 128,-1,88
 500 818 500 818 465 813 c 1,89,90
 467 844 467 844 468 848 c 0,91,92
 498 1062 498 1062 635 1192 c 128,-1,93
 772 1322 772 1322 980 1322 c 0,0,1
EndSplineSet
EndChar

StartChar: brokenbar
Encoding: 166 166 105
Width: 1065
GlyphClass: 2
Flags: W
LayerCount: 2
Fore
SplineSet
769 -340 m 1,0,-1
 668 -340 l 1,1,-1
 820 400 l 1,2,-1
 921 400 l 1,3,-1
 769 -340 l 1,0,-1
1143 1474 m 1,4,-1
 1007 817 l 1,5,-1
 906 817 l 1,6,-1
 1041 1474 l 1,7,-1
 1143 1474 l 1,4,-1
EndSplineSet
EndChar

StartChar: section
Encoding: 167 167 106
Width: 774
GlyphClass: 2
Flags: W
LayerCount: 2
Fore
SplineSet
577 1052 m 0,0,1
 577 1161 577 1161 610 1252 c 1,2,3
 415 1046 415 1046 415 765 c 0,4,5
 415 649 415 649 461 414 c 128,-1,6
 507 179 507 179 507 58.5 c 128,-1,7
 507 -62 507 -62 459 -194 c 1,8,9
 575 -78 575 -78 624 48.5 c 128,-1,10
 673 175 673 175 673 331 c 0,11,12
 673 498 673 498 618 754 c 0,13,14
 592 877 592 877 587 918 c 0,15,16
 577 998 577 998 577 1052 c 0,0,1
133.5 -277 m 128,-1,18
 180 -298 180 -298 228.5 -298 c 128,-1,19
 277 -298 277 -298 316.5 -268.5 c 128,-1,20
 356 -239 356 -239 376 -190 c 0,21,22
 413 -101 413 -101 413 16 c 128,-1,23
 413 133 413 133 361 376.5 c 128,-1,24
 309 620 309 620 309 733.5 c 128,-1,25
 309 847 309 847 335.5 942 c 128,-1,26
 362 1037 362 1037 414 1121 c 128,-1,27
 466 1205 466 1205 536 1270.5 c 128,-1,28
 606 1336 606 1336 699.5 1374 c 128,-1,29
 793 1412 793 1412 897 1412 c 0,30,31
 945 1412 945 1412 998.5 1396 c 128,-1,32
 1052 1380 1052 1380 1085 1353 c 1,33,34
 1056 1291 1056 1291 998 1274 c 1,35,36
 969 1300 969 1300 916.5 1322.5 c 128,-1,37
 864 1345 864 1345 821 1345 c 0,38,39
 752 1345 752 1345 710.5 1291.5 c 128,-1,40
 669 1238 669 1238 669 1136 c 0,41,42
 669 1065 669 1065 678.5 1003.5 c 128,-1,43
 688 942 688 942 734 743 c 128,-1,44
 780 544 780 544 780 389 c 0,45,46
 780 32 780 32 551 -193 c 0,47,48
 373 -368 373 -368 158 -368 c 0,49,50
 110 -368 110 -368 56.5 -352 c 128,-1,51
 3 -336 3 -336 -30 -309 c 1,52,53
 -1 -247 -1 -247 57 -230 c 1,54,17
 87 -256 87 -256 133.5 -277 c 128,-1,18
EndSplineSet
EndChar

StartChar: dieresis
Encoding: 168 168 107
Width: 676
GlyphClass: 2
Flags: W
LayerCount: 2
Fore
SplineSet
504 1226 m 1,0,-1
 585 1310 l 1,1,2
 636 1277 636 1277 665 1222 c 1,3,4
 636 1172 636 1172 586 1129 c 1,5,6
 526 1177 526 1177 504 1226 c 1,0,-1
778 1226 m 1,7,-1
 859 1310 l 1,8,9
 910 1277 910 1277 939 1222 c 1,10,11
 910 1172 910 1172 860 1129 c 1,12,13
 800 1177 800 1177 778 1226 c 1,7,-1
EndSplineSet
EndChar

StartChar: copyright
Encoding: 169 169 108
Width: 1516
GlyphClass: 2
Flags: W
LayerCount: 2
Fore
SplineSet
882 1281 m 0,0,1
 1008 1281 1008 1281 1114 1233 c 128,-1,2
 1220 1185 1220 1185 1288 1106 c 128,-1,3
 1356 1027 1356 1027 1394 928.5 c 128,-1,4
 1432 830 1432 830 1432 727 c 0,5,6
 1432 513 1432 513 1348.5 349.5 c 128,-1,7
 1265 186 1265 186 1105.5 93.5 c 128,-1,8
 946 1 946 1 731 1 c 0,9,10
 615 1 615 1 512 50 c 128,-1,11
 409 99 409 99 340 178 c 128,-1,12
 271 257 271 257 231 355.5 c 128,-1,13
 191 454 191 454 191 554 c 0,14,15
 191 869 191 869 364 1070 c 0,16,17
 448 1169 448 1169 581 1225 c 128,-1,18
 714 1281 714 1281 882 1281 c 0,0,1
830 1193 m 0,19,20
 692 1193 692 1193 583 1147.5 c 128,-1,21
 474 1102 474 1102 408 1025 c 0,22,23
 275 870 275 870 275 655 c 0,24,25
 275 478 275 478 361 334 c 0,26,27
 453 181 453 181 606 121 c 0,28,29
 689 89 689 89 784 89 c 0,30,31
 924 89 924 89 1033.5 134.5 c 128,-1,32
 1143 180 1143 180 1210 257 c 0,33,34
 1344 413 1344 413 1344 628 c 0,35,36
 1344 805 1344 805 1258 948 c 0,37,38
 1165 1101 1165 1101 1010 1161 c 0,39,40
 926 1193 926 1193 830 1193 c 0,19,20
680 981 m 128,-1,42
 759 1015 759 1015 842 1015 c 128,-1,43
 925 1015 925 1015 990.5 994 c 128,-1,44
 1056 973 1056 973 1075 946 c 1,45,-1
 1075 824 l 1,46,-1
 1045 824 l 1,47,48
 1038 872 1038 872 1000 912 c 0,49,50
 952 961 952 961 842.5 961 c 128,-1,51
 733 961 733 961 663.5 875 c 128,-1,52
 594 789 594 789 594 655 c 128,-1,53
 594 521 594 521 664.5 424 c 128,-1,54
 735 327 735 327 863 327 c 0,55,56
 949 327 949 327 1002 373 c 1,57,58
 1044 408 1044 408 1074 456 c 1,59,-1
 1102 456 l 1,60,-1
 1075 333 l 1,61,62
 1055 312 1055 312 980 292.5 c 128,-1,63
 905 273 905 273 835 273 c 128,-1,64
 765 273 765 273 697 295 c 128,-1,65
 629 317 629 317 575 362 c 128,-1,66
 521 407 521 407 490 482.5 c 128,-1,67
 459 558 459 558 459 658 c 0,68,69
 459 784 459 784 554 894 c 0,70,41
 601 947 601 947 680 981 c 128,-1,42
EndSplineSet
EndChar

StartChar: ordfeminine
Encoding: 170 170 109
Width: 496
GlyphClass: 2
Flags: W
LayerCount: 2
Fore
SplineSet
546 742 m 0,0,1
 519 742 519 742 519 779 c 0,2,3
 519 815 519 815 535 865 c 0,4,5
 561 946 561 946 594 1055 c 1,6,-1
 585 1057 l 1,7,8
 562 1008 562 1008 517.5 938 c 128,-1,9
 473 868 473 868 415 805.5 c 128,-1,10
 357 743 357 743 324 743 c 128,-1,11
 291 743 291 743 276.5 775 c 128,-1,12
 262 807 262 807 262 861 c 128,-1,13
 262 915 262 915 276 984.5 c 128,-1,14
 290 1054 290 1054 319.5 1122.5 c 128,-1,15
 349 1191 349 1191 389.5 1245.5 c 128,-1,16
 430 1300 430 1300 490 1334 c 128,-1,17
 550 1368 550 1368 623 1368 c 128,-1,18
 696 1368 696 1368 763 1362 c 1,19,20
 723 1167 723 1167 614 826 c 1,21,-1
 618 823 l 1,22,23
 668 845 668 845 750 915 c 0,24,25
 757 921 757 921 761 924 c 1,26,-1
 778 903 l 1,27,28
 722 840 722 840 653.5 791 c 128,-1,29
 585 742 585 742 546 742 c 0,0,1
632 1285 m 1,30,31
 592 1298 592 1298 549.5 1298 c 128,-1,32
 507 1298 507 1298 468.5 1260 c 128,-1,33
 430 1222 430 1222 408 1162 c 0,34,35
 366 1043 366 1043 366 910 c 0,36,37
 366 865 366 865 378 865 c 0,38,39
 413 865 413 865 465.5 937 c 128,-1,40
 518 1009 518 1009 563 1105.5 c 128,-1,41
 608 1202 608 1202 632 1285 c 1,30,31
EndSplineSet
EndChar

StartChar: guillemotleft
Encoding: 171 171 110
Width: 639
GlyphClass: 2
Flags: W
LayerCount: 2
Fore
SplineSet
663 989 m 1,0,-1
 738 889 l 1,1,2
 674 823 674 823 552 725 c 128,-1,3
 430 627 430 627 331 569 c 1,4,5
 417 517 417 517 514.5 430.5 c 128,-1,6
 612 344 612 344 667 283 c 1,7,-1
 576 164 l 1,8,9
 522 253 522 253 421.5 363 c 128,-1,10
 321 473 321 473 188 569 c 1,11,12
 344 672 344 672 467.5 785 c 128,-1,13
 591 898 591 898 663 989 c 1,0,-1
1193 989 m 1,14,-1
 1268 889 l 1,15,16
 1206 824 1206 824 1083.5 725.5 c 128,-1,17
 961 627 961 627 861 569 c 1,18,19
 947 517 947 517 1046 430 c 128,-1,20
 1145 343 1145 343 1197 283 c 1,21,-1
 1106 164 l 1,22,23
 1054 251 1054 251 952 361.5 c 128,-1,24
 850 472 850 472 717 569 c 1,25,26
 874 672 874 672 998.5 786 c 128,-1,27
 1123 900 1123 900 1193 989 c 1,14,-1
EndSplineSet
EndChar

StartChar: logicalnot
Encoding: 172 172 111
Width: 1229
GlyphClass: 2
Flags: W
LayerCount: 2
Fore
SplineSet
296 661 m 1,0,-1
 1184 661 l 1,1,-1
 1124 110 l 1,2,-1
 1021 110 l 1,3,-1
 1066 559 l 1,4,-1
 238 559 l 1,5,-1
 296 661 l 1,0,-1
EndSplineSet
EndChar

StartChar: uni00AD
Encoding: 173 173 112
Width: 528
GlyphClass: 2
Flags: W
LayerCount: 2
Fore
SplineSet
243 533 m 1,0,1
 536 533 536 533 742 560 c 1,2,-1
 682 456 l 1,3,4
 477 431 477 431 188 431 c 1,5,-1
 243 533 l 1,0,1
EndSplineSet
EndChar

StartChar: registered
Encoding: 174 174 113
Width: 1516
GlyphClass: 2
Flags: W
LayerCount: 2
Fore
SplineSet
778 1006.5 m 128,-1,1
 862 1015 862 1015 899 1015 c 128,-1,2
 936 1015 936 1015 976.5 1004.5 c 128,-1,3
 1017 994 1017 994 1053.5 971 c 128,-1,4
 1090 948 1090 948 1111.5 905.5 c 128,-1,5
 1133 863 1133 863 1133 805 c 0,6,7
 1133 639 1133 639 949 605 c 1,8,-1
 940 592 l 1,9,10
 947 582 947 582 980.5 534 c 128,-1,11
 1014 486 1014 486 1024.5 471.5 c 128,-1,12
 1035 457 1035 457 1063 420 c 128,-1,13
 1091 383 1091 383 1107 366 c 0,14,15
 1155 313 1155 313 1192 286 c 1,16,-1
 1157 236 l 1,17,18
 974 354 974 354 782 631 c 1,19,-1
 790 638 l 1,20,21
 804 633 804 633 826 633 c 0,22,23
 923 633 923 633 969 687 c 128,-1,24
 1015 741 1015 741 1015 815.5 c 128,-1,25
 1015 890 1015 890 972.5 923 c 128,-1,26
 930 956 930 956 866.5 956 c 128,-1,27
 803 956 803 956 742 938 c 1,28,-1
 742 326 l 1,29,30
 752 321 752 321 792 313 c 1,31,-1
 792 282 l 1,32,-1
 553 282 l 1,33,-1
 553 313 l 1,34,35
 586 319 586 319 617 328 c 1,36,-1
 617 950 l 1,37,38
 591 960 591 960 553 967 c 1,39,-1
 553 998 l 1,40,-1
 634 998 l 2,41,0
 694 998 694 998 778 1006.5 c 128,-1,1
917 1281 m 0,42,43
 1043 1281 1043 1281 1149 1233 c 128,-1,44
 1255 1185 1255 1185 1323 1106 c 128,-1,45
 1391 1027 1391 1027 1429 928.5 c 128,-1,46
 1467 830 1467 830 1467 727 c 0,47,48
 1467 513 1467 513 1384 349.5 c 128,-1,49
 1301 186 1301 186 1141.5 93.5 c 128,-1,50
 982 1 982 1 767 1 c 0,51,52
 651 1 651 1 548 50 c 128,-1,53
 445 99 445 99 375.5 178 c 128,-1,54
 306 257 306 257 266 355.5 c 128,-1,55
 226 454 226 454 226 554 c 0,56,57
 226 869 226 869 398 1070 c 0,58,59
 483 1169 483 1169 616 1225 c 128,-1,60
 749 1281 749 1281 917 1281 c 0,42,43
865 1193 m 0,61,62
 727 1193 727 1193 618 1147.5 c 128,-1,63
 509 1102 509 1102 443 1024 c 0,64,65
 310 868 310 868 310 653 c 0,66,67
 310 546 310 546 344.5 446 c 128,-1,68
 379 346 379 346 442 266 c 128,-1,69
 505 186 505 186 603 137.5 c 128,-1,70
 701 89 701 89 816.5 89 c 128,-1,71
 932 89 932 89 1025.5 119 c 128,-1,72
 1119 149 1119 149 1183.5 200.5 c 128,-1,73
 1248 252 1248 252 1293 322 c 0,74,75
 1379 454 1379 454 1379 629 c 0,76,77
 1379 805 1379 805 1292 948 c 0,78,79
 1200 1101 1200 1101 1044 1161 c 0,80,81
 961 1193 961 1193 865 1193 c 0,61,62
EndSplineSet
EndChar

StartChar: macron
Encoding: 175 175 114
Width: 817
GlyphClass: 2
Flags: W
LayerCount: 2
Fore
SplineSet
597 1260 m 1,0,-1
 1048 1260 l 1,1,-1
 979 1176 l 1,2,-1
 530 1176 l 1,3,-1
 597 1260 l 1,0,-1
EndSplineSet
EndChar

StartChar: degree
Encoding: 176 176 115
Width: 819
GlyphClass: 2
Flags: W
LayerCount: 2
Fore
SplineSet
683 832 m 2,0,1
 751 832 751 832 796.5 888.5 c 128,-1,2
 842 945 842 945 842 1043 c 128,-1,3
 842 1141 842 1141 796 1197 c 128,-1,4
 750 1253 750 1253 678 1253 c 128,-1,5
 606 1253 606 1253 560.5 1196.5 c 128,-1,6
 515 1140 515 1140 515 1044 c 128,-1,7
 515 948 515 948 557.5 892.5 c 128,-1,8
 600 837 600 837 670 832 c 1,9,-1
 683 832 l 2,0,1
488.5 845.5 m 128,-1,11
 414 916 414 916 414 1037 c 128,-1,12
 414 1158 414 1158 491 1235 c 128,-1,13
 568 1312 568 1312 691 1314 c 1,14,15
 794 1311 794 1311 868.5 1241 c 128,-1,16
 943 1171 943 1171 943 1059 c 0,17,18
 943 928 943 928 865.5 851 c 128,-1,19
 788 774 788 774 666 774 c 1,20,10
 563 775 563 775 488.5 845.5 c 128,-1,11
EndSplineSet
EndChar

StartChar: plusminus
Encoding: 177 177 116
Width: 1124
GlyphClass: 2
Flags: W
LayerCount: 2
Fore
SplineSet
801 1129 m 1,0,-1
 751 710 l 1,1,-1
 1189 710 l 1,2,-1
 1132 612 l 1,3,-1
 744 612 l 1,4,-1
 698 229 l 1,5,-1
 595 229 l 1,6,-1
 641 612 l 1,7,-1
 212 612 l 1,8,-1
 269 710 l 1,9,-1
 648 710 l 1,10,-1
 692 1085 l 1,11,-1
 801 1129 l 1,0,-1
162 123 m 1,12,-1
 1108 123 l 1,13,-1
 1097 100 l 1,14,-1
 1276 100 l 1,15,-1
 1172 -4 l 1,16,-1
 246 -4 l 1,17,-1
 249 -1 l 1,18,-1
 105 -1 l 1,19,-1
 162 123 l 1,12,-1
EndSplineSet
EndChar

StartChar: twosuperior
Encoding: 178 178 117
Width: 492
GlyphClass: 2
Flags: W
LayerCount: 2
Fore
SplineSet
660 1342 m 0,0,1
 660 1246 660 1246 574 1147 c 0,2,3
 511 1074 511 1074 429.5 1000.5 c 128,-1,4
 348 927 348 927 323 903 c 1,5,-1
 323 895 l 1,6,-1
 487 895 l 2,7,8
 529 895 529 895 552 909 c 128,-1,9
 575 923 575 923 604 959 c 1,10,-1
 624 954 l 1,11,-1
 551 797 l 1,12,13
 469 805 469 805 421 805 c 2,14,-1
 159 805 l 1,15,-1
 156 830 l 1,16,17
 286 931 286 931 402 1057 c 0,18,19
 463 1124 463 1124 501 1191.5 c 128,-1,20
 539 1259 539 1259 539 1308.5 c 128,-1,21
 539 1358 539 1358 510.5 1384 c 128,-1,22
 482 1410 482 1410 441 1410 c 128,-1,23
 400 1410 400 1410 362.5 1372 c 128,-1,24
 325 1334 325 1334 325 1288 c 0,25,26
 325 1275 325 1275 333 1263 c 128,-1,27
 341 1251 341 1251 353.5 1251 c 128,-1,28
 366 1251 366 1251 375 1261 c 1,29,-1
 392 1243 l 1,30,31
 368 1214 368 1214 339 1214 c 128,-1,32
 310 1214 310 1214 292.5 1235 c 128,-1,33
 275 1256 275 1256 275 1289 c 0,34,35
 275 1372 275 1372 346 1423 c 128,-1,36
 417 1474 417 1474 505 1474 c 0,37,38
 571 1474 571 1474 615.5 1440.5 c 128,-1,39
 660 1407 660 1407 660 1342 c 0,0,1
EndSplineSet
EndChar

StartChar: threesuperior
Encoding: 179 179 118
Width: 496
GlyphClass: 2
Flags: W
LayerCount: 2
Fore
SplineSet
411 1441 m 128,-1,1
 472 1473 472 1473 530 1473 c 128,-1,2
 588 1473 588 1473 629.5 1439 c 128,-1,3
 671 1405 671 1405 671 1345 c 0,4,5
 671 1219 671 1219 520 1170 c 1,6,7
 578 1164 578 1164 610 1124 c 128,-1,8
 642 1084 642 1084 642 1030 c 0,9,10
 642 952 642 952 600 896 c 0,11,12
 520 790 520 790 361 790 c 0,13,14
 269 790 269 790 211 829 c 1,15,16
 215 849 215 849 231.5 873.5 c 128,-1,17
 248 898 248 898 266 909 c 1,18,19
 320 842 320 842 383.5 842 c 128,-1,20
 447 842 447 842 484 888.5 c 128,-1,21
 521 935 521 935 521 995 c 128,-1,22
 521 1055 521 1055 488 1091 c 128,-1,23
 455 1127 455 1127 385 1127 c 1,24,-1
 385 1158 l 1,25,26
 452 1166 452 1166 500 1213 c 128,-1,27
 548 1260 548 1260 548 1312 c 0,28,29
 548 1346 548 1346 527 1373 c 128,-1,30
 506 1400 506 1400 467 1400 c 0,31,32
 396 1400 396 1400 330 1345 c 1,33,-1
 315 1367 l 1,34,0
 350 1409 350 1409 411 1441 c 128,-1,1
EndSplineSet
EndChar

StartChar: acute
Encoding: 180 180 119
Width: 559
GlyphClass: 2
Flags: W
LayerCount: 2
Fore
SplineSet
759 1378 m 1,0,-1
 866 1360 l 1,1,2
 832 1265 832 1265 740 1190.5 c 128,-1,3
 648 1116 648 1116 543 1074 c 1,4,-1
 520 1096 l 1,5,6
 715 1224 715 1224 759 1378 c 1,0,-1
EndSplineSet
EndChar

StartChar: mu
Encoding: 181 181 120
Width: 864
GlyphClass: 2
Flags: W
LayerCount: 2
Fore
SplineSet
461 894 m 0,0,1
 477 894 477 894 487 883 c 128,-1,2
 497 872 497 872 497 861 c 128,-1,3
 497 850 497 850 496 847 c 0,4,5
 327 163 327 163 327 141.5 c 128,-1,6
 327 120 327 120 345 120 c 0,7,8
 400 121 400 121 495.5 235 c 128,-1,9
 591 349 591 349 682 512.5 c 128,-1,10
 773 676 773 676 819 816 c 0,11,12
 829 847 829 847 863 868 c 128,-1,13
 897 889 897 889 938 890 c 1,14,15
 899 709 899 709 823.5 436 c 128,-1,16
 748 163 748 163 726 79 c 1,17,-1
 731 75 l 1,18,19
 890 147 890 147 1011 327 c 1,20,-1
 1034 310 l 1,21,22
 974 204 974 204 850 91.5 c 128,-1,23
 726 -21 726 -21 656 -21 c 0,24,25
 638 -21 638 -21 632 -7.5 c 128,-1,26
 626 6 626 6 626 33 c 0,27,28
 626 161 626 161 741 511 c 1,29,-1
 736 514 l 1,30,31
 687 417 687 417 602 295 c 128,-1,32
 517 173 517 173 426 77.5 c 128,-1,33
 335 -18 335 -18 289 -20 c 1,34,-1
 218 -302 l 1,35,36
 104 -365 104 -365 12 -393 c 1,37,38
 -2 -363 -2 -363 -2 -360 c 1,39,40
 67 -310 67 -310 95.5 -260 c 128,-1,41
 124 -210 124 -210 144 -137 c 0,42,43
 259 291 259 291 383 803 c 1,44,-1
 377 804 l 1,45,46
 304 779 304 779 217 692 c 1,47,-1
 204 707 l 1,48,49
 267 790 267 790 334 842 c 128,-1,50
 401 894 401 894 461 894 c 0,0,1
EndSplineSet
EndChar

StartChar: paragraph
Encoding: 182 182 121
Width: 922
GlyphClass: 2
Flags: W
LayerCount: 2
Fore
SplineSet
217 -342 m 2,0,-1
 114 -342 l 1,1,2
 142 -259 142 -259 209 -229 c 1,3,4
 273 -246 273 -246 331 -246 c 128,-1,5
 389 -246 389 -246 417.5 -218.5 c 128,-1,6
 446 -191 446 -191 466 -104 c 2,7,-1
 535 193 l 1,8,9
 401 195 401 195 298 240 c 0,10,11
 238 267 238 267 195.5 308.5 c 128,-1,12
 153 350 153 350 125.5 420 c 128,-1,13
 98 490 98 490 98 580 c 0,14,15
 98 713 98 713 152.5 824 c 128,-1,16
 207 935 207 935 298.5 1006 c 128,-1,17
 390 1077 390 1077 504.5 1116 c 128,-1,18
 619 1155 619 1155 750.5 1155 c 128,-1,19
 882 1155 882 1155 1012 1105 c 1,20,21
 998 1031 998 1031 994 1031 c 1,22,23
 914 1058 914 1058 861 1067 c 1,24,25
 727 480 727 480 675 278 c 1,26,27
 753 281 753 281 830 294 c 1,28,-1
 810 220 l 1,29,30
 767 206 767 206 654 197 c 1,31,-1
 617 55 l 2,32,33
 513 -342 513 -342 217 -342 c 2,0,-1
347 569 m 0,34,35
 347 320 347 320 556 283 c 1,36,-1
 741 1078 l 1,37,38
 649 1076 649 1076 573 1033.5 c 128,-1,39
 497 991 497 991 448 921 c 0,40,41
 347 775 347 775 347 569 c 0,34,35
EndSplineSet
EndChar

StartChar: periodcentered
Encoding: 183 183 122
Width: 412
GlyphClass: 2
Flags: W
LayerCount: 2
Fore
SplineSet
422 851 m 0,0,1
 484 851 484 851 484 772 c 0,2,3
 484 703 484 703 451.5 658 c 128,-1,4
 419 613 419 613 371 613 c 0,5,6
 344 613 344 613 327 632.5 c 128,-1,7
 310 652 310 652 310 690 c 0,8,9
 310 755 310 755 341.5 803 c 128,-1,10
 373 851 373 851 422 851 c 0,0,1
EndSplineSet
EndChar

StartChar: cedilla
Encoding: 184 184 123
Width: 565
GlyphClass: 2
Flags: W
LayerCount: 2
Fore
SplineSet
382 -216 m 0,0,1
 382 -276 382 -276 328 -320.5 c 128,-1,2
 274 -365 274 -365 202.5 -365 c 128,-1,3
 131 -365 131 -365 84 -305 c 1,4,5
 111 -262 111 -262 161 -242 c 1,6,7
 191 -312 191 -312 250.5 -312 c 128,-1,8
 310 -312 310 -312 310 -266 c 0,9,10
 310 -224 310 -224 270.5 -184.5 c 128,-1,11
 231 -145 231 -145 171 -141 c 1,12,-1
 164 -124 l 1,13,-1
 311 3 l 1,14,-1
 369 2 l 1,15,16
 344 -20 344 -20 304.5 -53.5 c 128,-1,17
 265 -87 265 -87 261 -91 c 1,18,19
 382 -130 382 -130 382 -216 c 0,0,1
EndSplineSet
EndChar

StartChar: onesuperior
Encoding: 185 185 124
Width: 496
GlyphClass: 2
Flags: W
LayerCount: 2
Fore
SplineSet
465 866 m 0,0,1
 465 856 465 856 481 851 c 128,-1,2
 497 846 497 846 534.5 842 c 128,-1,3
 572 838 572 838 586 836 c 1,4,-1
 576 802 l 1,5,6
 518 807 518 807 408.5 807 c 128,-1,7
 299 807 299 807 212 801 c 1,8,-1
 219 832 l 1,9,10
 290 845 290 845 321.5 863 c 128,-1,11
 353 881 353 881 366 928 c 0,12,13
 464 1275 464 1275 473 1342 c 1,14,15
 414 1324 414 1324 345 1300 c 1,16,-1
 337 1326 l 1,17,18
 473 1395 473 1395 563 1468 c 1,19,-1
 616 1463 l 1,20,21
 611 1445 611 1445 597 1399 c 128,-1,22
 583 1353 583 1353 525.5 1125 c 128,-1,23
 468 897 468 897 466.5 884.5 c 128,-1,24
 465 872 465 872 465 866 c 0,0,1
EndSplineSet
EndChar

StartChar: ordmasculine
Encoding: 186 186 125
Width: 492
GlyphClass: 2
Flags: W
LayerCount: 2
Fore
SplineSet
663 1378 m 0,0,1
 804 1378 804 1378 804 1217 c 0,2,3
 804 1102 804 1102 747 990 c 128,-1,4
 690 878 690 878 601.5 809.5 c 128,-1,5
 513 741 513 741 425 741 c 0,6,7
 301 741 301 741 301 892 c 0,8,9
 301 994 301 994 351 1107 c 128,-1,10
 401 1220 401 1220 487 1299 c 128,-1,11
 573 1378 573 1378 663 1378 c 0,0,1
615 1311 m 0,12,13
 563 1311 563 1311 521.5 1269.5 c 128,-1,14
 480 1228 480 1228 457 1164 c 0,15,16
 410 1035 410 1035 408 915 c 0,17,18
 408 871 408 871 428.5 841.5 c 128,-1,19
 449 812 449 812 483 812 c 0,20,21
 537 812 537 812 580 849.5 c 128,-1,22
 623 887 623 887 646 946 c 0,23,24
 694 1064 694 1064 694 1187.5 c 128,-1,25
 694 1311 694 1311 615 1311 c 0,12,13
EndSplineSet
EndChar

StartChar: guillemotright
Encoding: 187 187 126
Width: 713
GlyphClass: 2
Flags: W
LayerCount: 2
Fore
SplineSet
695 889 m 1,0,-1
 792 989 l 1,1,2
 842 901 842 901 943.5 786.5 c 128,-1,3
 1045 672 1045 672 1180 569 c 1,4,5
 1026 472 1026 472 901.5 362 c 128,-1,6
 777 252 777 252 705 164 c 1,7,-1
 640 283 l 1,8,9
 701 340 701 340 819.5 427 c 128,-1,10
 938 514 938 514 1040 567 c 1,11,-1
 1038 567 l 1,12,13
 950 625 950 625 847 724.5 c 128,-1,14
 744 824 744 824 695 889 c 1,0,-1
164 889 m 1,15,-1
 261 989 l 1,16,17
 313 900 313 900 413.5 786 c 128,-1,18
 514 672 514 672 649 569 c 1,19,20
 496 473 496 473 372 363 c 128,-1,21
 248 253 248 253 174 164 c 1,22,-1
 109 283 l 1,23,24
 172 341 172 341 290 427.5 c 128,-1,25
 408 514 408 514 510 567 c 1,26,-1
 508 567 l 1,27,28
 420 625 420 625 317 724.5 c 128,-1,29
 214 824 214 824 164 889 c 1,15,-1
EndSplineSet
EndChar

StartChar: onequarter
Encoding: 188 188 127
Width: 1352
GlyphClass: 2
Flags: W
LayerCount: 2
Fore
SplineSet
1072 161 m 2,0,-1
 948 160 l 2,1,2
 915 160 915 160 904 161 c 1,3,-1
 901 182 l 1,4,5
 907 189 907 189 1068.5 360 c 128,-1,6
 1230 531 1230 531 1285 610 c 1,7,8
 1344 643 1344 643 1393 661 c 1,9,-1
 1410 657 l 1,10,11
 1346 432 1346 432 1298 223 c 1,12,13
 1378 223 1378 223 1418 240 c 1,14,-1
 1425 228 l 1,15,16
 1389 192 1389 192 1358 175.5 c 128,-1,17
 1327 159 1327 159 1286 159 c 1,18,-1
 1249 0 l 1,19,-1
 1127 -12 l 1,20,-1
 1174 159 l 1,21,22
 1149 161 1149 161 1072 161 c 2,0,-1
1018 223 m 1,23,-1
 1184 223 l 1,24,-1
 1256 489 l 1,25,-1
 1017 227 l 1,26,-1
 1018 223 l 1,23,-1
465 866 m 0,27,28
 465 856 465 856 481 851 c 128,-1,29
 497 846 497 846 534.5 842 c 128,-1,30
 572 838 572 838 586 836 c 1,31,-1
 576 802 l 1,32,33
 518 807 518 807 408.5 807 c 128,-1,34
 299 807 299 807 212 801 c 1,35,-1
 219 832 l 1,36,37
 290 845 290 845 321.5 863 c 128,-1,38
 353 881 353 881 366 928 c 0,39,40
 464 1275 464 1275 473 1342 c 1,41,42
 414 1324 414 1324 345 1300 c 1,43,-1
 337 1326 l 1,44,45
 473 1395 473 1395 563 1468 c 1,46,-1
 616 1463 l 1,47,48
 611 1445 611 1445 597 1399 c 128,-1,49
 583 1353 583 1353 525.5 1125 c 128,-1,50
 468 897 468 897 466.5 884.5 c 128,-1,51
 465 872 465 872 465 866 c 0,27,28
1582 1474 m 1,52,-1
 368 0 l 1,53,-1
 249 0 l 1,54,-1
 1462 1474 l 1,55,-1
 1582 1474 l 1,52,-1
EndSplineSet
EndChar

StartChar: onehalf
Encoding: 189 189 128
Width: 1352
GlyphClass: 2
Flags: W
LayerCount: 2
Fore
SplineSet
465 866 m 0,0,1
 465 856 465 856 481 851 c 128,-1,2
 497 846 497 846 534.5 842 c 128,-1,3
 572 838 572 838 586 836 c 1,4,-1
 576 802 l 1,5,6
 518 807 518 807 408.5 807 c 128,-1,7
 299 807 299 807 212 801 c 1,8,-1
 219 832 l 1,9,10
 290 845 290 845 321.5 863 c 128,-1,11
 353 881 353 881 366 928 c 0,12,13
 464 1275 464 1275 473 1342 c 1,14,15
 414 1324 414 1324 345 1300 c 1,16,-1
 337 1326 l 1,17,18
 473 1395 473 1395 563 1468 c 1,19,-1
 616 1463 l 1,20,21
 611 1445 611 1445 597 1399 c 128,-1,22
 583 1353 583 1353 525.5 1125 c 128,-1,23
 468 897 468 897 466.5 884.5 c 128,-1,24
 465 872 465 872 465 866 c 0,0,1
1582 1474 m 1,25,-1
 368 0 l 1,26,-1
 249 0 l 1,27,-1
 1462 1474 l 1,28,-1
 1582 1474 l 1,25,-1
1360 531 m 0,29,30
 1360 435 1360 435 1274 336 c 0,31,32
 1211 263 1211 263 1129.5 189.5 c 128,-1,33
 1048 116 1048 116 1023 92 c 1,34,-1
 1023 84 l 1,35,-1
 1187 84 l 2,36,37
 1229 84 1229 84 1252 98 c 128,-1,38
 1275 112 1275 112 1304 148 c 1,39,-1
 1324 143 l 1,40,-1
 1251 -14 l 1,41,42
 1169 -6 1169 -6 1121 -6 c 2,43,-1
 859 -6 l 1,44,-1
 856 19 l 1,45,46
 986 120 986 120 1102 246 c 0,47,48
 1163 313 1163 313 1201 380.5 c 128,-1,49
 1239 448 1239 448 1239 497.5 c 128,-1,50
 1239 547 1239 547 1210.5 573 c 128,-1,51
 1182 599 1182 599 1141 599 c 128,-1,52
 1100 599 1100 599 1062.5 561.5 c 128,-1,53
 1025 524 1025 524 1025 477 c 0,54,55
 1025 464 1025 464 1033 452 c 128,-1,56
 1041 440 1041 440 1053.5 440 c 128,-1,57
 1066 440 1066 440 1075 450 c 1,58,-1
 1092 432 l 1,59,60
 1068 403 1068 403 1039 403 c 128,-1,61
 1010 403 1010 403 992.5 424 c 128,-1,62
 975 445 975 445 975 478 c 0,63,64
 975 561 975 561 1046 612 c 128,-1,65
 1117 663 1117 663 1205 663 c 0,66,67
 1271 663 1271 663 1315.5 629.5 c 128,-1,68
 1360 596 1360 596 1360 531 c 0,29,30
EndSplineSet
EndChar

StartChar: threequarters
Encoding: 190 190 129
Width: 1352
GlyphClass: 2
Flags: W
LayerCount: 2
Fore
SplineSet
1043 161 m 2,0,-1
 919 160 l 2,1,2
 886 160 886 160 875 161 c 1,3,-1
 872 182 l 1,4,5
 878 189 878 189 1039.5 360 c 128,-1,6
 1201 531 1201 531 1256 610 c 1,7,8
 1315 643 1315 643 1364 661 c 1,9,-1
 1381 657 l 1,10,11
 1317 432 1317 432 1269 223 c 1,12,13
 1349 223 1349 223 1389 240 c 1,14,-1
 1396 228 l 1,15,16
 1360 192 1360 192 1329 175.5 c 128,-1,17
 1298 159 1298 159 1257 159 c 1,18,-1
 1220 0 l 1,19,-1
 1098 -12 l 1,20,-1
 1145 159 l 1,21,22
 1120 161 1120 161 1043 161 c 2,0,-1
989 223 m 1,23,-1
 1155 223 l 1,24,-1
 1227 489 l 1,25,-1
 988 227 l 1,26,-1
 989 223 l 1,23,-1
1582 1474 m 1,27,-1
 368 0 l 1,28,-1
 249 0 l 1,29,-1
 1462 1474 l 1,30,-1
 1582 1474 l 1,27,-1
411 1441 m 128,-1,32
 472 1473 472 1473 530 1473 c 128,-1,33
 588 1473 588 1473 629.5 1439 c 128,-1,34
 671 1405 671 1405 671 1345 c 0,35,36
 671 1219 671 1219 520 1170 c 1,37,38
 578 1164 578 1164 610 1124 c 128,-1,39
 642 1084 642 1084 642 1030 c 0,40,41
 642 952 642 952 600 896 c 0,42,43
 520 790 520 790 361 790 c 0,44,45
 269 790 269 790 211 829 c 1,46,47
 215 849 215 849 231.5 873.5 c 128,-1,48
 248 898 248 898 266 909 c 1,49,50
 320 842 320 842 383.5 842 c 128,-1,51
 447 842 447 842 484 888.5 c 128,-1,52
 521 935 521 935 521 995 c 128,-1,53
 521 1055 521 1055 488 1091 c 128,-1,54
 455 1127 455 1127 385 1127 c 1,55,-1
 385 1158 l 1,56,57
 452 1166 452 1166 500 1213 c 128,-1,58
 548 1260 548 1260 548 1312 c 0,59,60
 548 1346 548 1346 527 1373 c 128,-1,61
 506 1400 506 1400 467 1400 c 0,62,63
 396 1400 396 1400 330 1345 c 1,64,-1
 315 1367 l 1,65,31
 350 1409 350 1409 411 1441 c 128,-1,32
EndSplineSet
EndChar

StartChar: questiondown
Encoding: 191 191 130
Width: 748
GlyphClass: 2
Flags: W
LayerCount: 2
Fore
SplineSet
845 300 m 128,-1,1
 814 248 814 248 772 206.5 c 128,-1,2
 730 165 730 165 679.5 122.5 c 128,-1,3
 629 80 629 80 578.5 34 c 128,-1,4
 528 -12 528 -12 485.5 -59.5 c 128,-1,5
 443 -107 443 -107 414 -167 c 0,6,7
 377 -241 377 -241 377 -327 c 128,-1,8
 377 -413 377 -413 423.5 -465.5 c 128,-1,9
 470 -518 470 -518 552.5 -518 c 128,-1,10
 635 -518 635 -518 717 -471 c 128,-1,11
 799 -424 799 -424 847 -346 c 1,12,-1
 870 -361 l 1,13,14
 810 -470 810 -470 694.5 -537.5 c 128,-1,15
 579 -605 579 -605 468.5 -605 c 128,-1,16
 358 -605 358 -605 294 -538 c 0,17,18
 239 -481 239 -481 239 -376 c 0,19,20
 239 -275 239 -275 278 -193.5 c 128,-1,21
 317 -112 317 -112 366.5 -57.5 c 128,-1,22
 416 -3 416 -3 475 47 c 128,-1,23
 534 97 534 97 592 141 c 128,-1,24
 650 185 650 185 698 226 c 0,25,26
 815 327 815 327 815 420 c 0,27,28
 815 461 815 461 787 502 c 1,29,-1
 830 511 l 1,30,31
 876 471 876 471 876 411.5 c 128,-1,0
 876 352 876 352 845 300 c 128,-1,1
852 652 m 0,32,33
 784 652 784 652 784 729 c 0,34,35
 784 797 784 797 819.5 841 c 128,-1,36
 855 885 855 885 907 885 c 0,37,38
 936 885 936 885 955 866 c 128,-1,39
 974 847 974 847 974 809 c 0,40,41
 974 746 974 746 940 699 c 128,-1,42
 906 652 906 652 852 652 c 0,32,33
EndSplineSet
EndChar

StartChar: Agrave
Encoding: 192 192 131
Width: 1155
GlyphClass: 2
Flags: W
LayerCount: 2
Fore
SplineSet
1017 1208 m 1,0,-1
 833 1213 l 1,1,2
 702 1213 702 1213 646 1195 c 0,3,4
 572 1171 572 1171 534 1133 c 0,5,6
 476 1075 476 1075 450 1001 c 0,7,8
 416 907 416 907 406 769 c 1,9,10
 388 736 388 736 351.5 714.5 c 128,-1,11
 315 693 315 693 276 691 c 1,12,13
 311 1027 311 1027 551 1206 c 0,14,15
 689 1310 689 1310 915 1310 c 0,16,17
 979 1310 979 1310 1075 1303.5 c 128,-1,18
 1171 1297 1171 1297 1201 1295 c 1,19,20
 1171 1245 1171 1245 1142 1091 c 128,-1,21
 1113 937 1113 937 1087 678.5 c 128,-1,22
 1061 420 1061 420 1061 296 c 128,-1,23
 1061 172 1061 172 1077.5 133.5 c 128,-1,24
 1094 95 1094 95 1130 95 c 0,25,26
 1188 95 1188 95 1274 144 c 1,27,-1
 1279 130 l 1,28,29
 1212 76 1212 76 1172.5 49.5 c 128,-1,30
 1133 23 1133 23 1060 -20 c 1,31,32
 988 -20 988 -20 960 34 c 128,-1,33
 932 88 932 88 932 204 c 0,34,35
 932 247 932 247 947 477 c 1,36,-1
 670 477 l 1,37,38
 577 316 577 316 481 156 c 1,39,40
 368 6 368 6 261 -66 c 128,-1,41
 154 -138 154 -138 40 -138 c 2,42,-1
 -67 -138 l 1,43,44
 -40 -48 -40 -48 24 -15 c 1,45,46
 85 -32 85 -32 145 -32 c 128,-1,47
 205 -32 205 -32 238.5 -17 c 128,-1,48
 272 -2 272 -2 308.5 40.5 c 128,-1,49
 345 83 345 83 402 172.5 c 128,-1,50
 459 262 459 262 690 663.5 c 128,-1,51
 921 1065 921 1065 1017 1208 c 1,0,-1
1006 1059 m 1,52,53
 934 941 934 941 852 795.5 c 128,-1,54
 770 650 770 650 719 562 c 1,55,-1
 954 562 l 1,56,57
 978 864 978 864 1006 1059 c 1,52,53
925 1673 m 1,58,-1
 1032 1691 l 1,59,60
 1076 1537 1076 1537 1271 1409 c 1,61,-1
 1248 1387 l 1,62,63
 1143 1429 1143 1429 1051 1503.5 c 128,-1,64
 959 1578 959 1578 925 1673 c 1,58,-1
EndSplineSet
EndChar

StartChar: Aacute
Encoding: 193 193 132
Width: 1155
GlyphClass: 2
Flags: W
LayerCount: 2
Fore
SplineSet
1017 1208 m 1,0,-1
 833 1213 l 1,1,2
 702 1213 702 1213 646 1195 c 0,3,4
 572 1171 572 1171 534 1133 c 0,5,6
 476 1075 476 1075 450 1001 c 0,7,8
 416 907 416 907 406 769 c 1,9,10
 388 736 388 736 351.5 714.5 c 128,-1,11
 315 693 315 693 276 691 c 1,12,13
 311 1027 311 1027 551 1206 c 0,14,15
 689 1310 689 1310 915 1310 c 0,16,17
 979 1310 979 1310 1075 1303.5 c 128,-1,18
 1171 1297 1171 1297 1201 1295 c 1,19,20
 1171 1245 1171 1245 1142 1091 c 128,-1,21
 1113 937 1113 937 1087 678.5 c 128,-1,22
 1061 420 1061 420 1061 296 c 128,-1,23
 1061 172 1061 172 1077.5 133.5 c 128,-1,24
 1094 95 1094 95 1130 95 c 0,25,26
 1188 95 1188 95 1274 144 c 1,27,-1
 1279 130 l 1,28,29
 1212 76 1212 76 1172.5 49.5 c 128,-1,30
 1133 23 1133 23 1060 -20 c 1,31,32
 988 -20 988 -20 960 34 c 128,-1,33
 932 88 932 88 932 204 c 0,34,35
 932 247 932 247 947 477 c 1,36,-1
 670 477 l 1,37,38
 577 316 577 316 481 156 c 1,39,40
 368 6 368 6 261 -66 c 128,-1,41
 154 -138 154 -138 40 -138 c 2,42,-1
 -67 -138 l 1,43,44
 -40 -48 -40 -48 24 -15 c 1,45,46
 85 -32 85 -32 145 -32 c 128,-1,47
 205 -32 205 -32 238.5 -17 c 128,-1,48
 272 -2 272 -2 308.5 40.5 c 128,-1,49
 345 83 345 83 402 172.5 c 128,-1,50
 459 262 459 262 690 663.5 c 128,-1,51
 921 1065 921 1065 1017 1208 c 1,0,-1
1006 1059 m 1,52,53
 934 941 934 941 852 795.5 c 128,-1,54
 770 650 770 650 719 562 c 1,55,-1
 954 562 l 1,56,57
 978 864 978 864 1006 1059 c 1,52,53
1272 1693 m 1,58,-1
 1379 1675 l 1,59,60
 1345 1580 1345 1580 1253 1505.5 c 128,-1,61
 1161 1431 1161 1431 1056 1389 c 1,62,-1
 1033 1411 l 1,63,64
 1228 1539 1228 1539 1272 1693 c 1,58,-1
EndSplineSet
EndChar

StartChar: Acircumflex
Encoding: 194 194 133
Width: 1155
GlyphClass: 2
Flags: W
LayerCount: 2
Fore
SplineSet
1091 1665 m 1,0,1
 1107 1669 1107 1669 1133.5 1669 c 128,-1,2
 1160 1669 1160 1669 1185 1658 c 1,3,4
 1185 1531 1185 1531 1313 1419 c 1,5,-1
 1292 1395 l 1,6,7
 1168 1446 1168 1446 1115 1553 c 1,8,-1
 1111 1554 l 1,9,10
 1074 1504 1074 1504 1008 1462 c 128,-1,11
 942 1420 942 1420 869 1395 c 1,12,-1
 848 1419 l 1,13,14
 1041 1521 1041 1521 1091 1665 c 1,0,1
973 1208 m 1,15,-1
 789 1213 l 1,16,17
 658 1213 658 1213 602 1195 c 0,18,19
 528 1171 528 1171 490 1133 c 0,20,21
 432 1075 432 1075 406 1001 c 0,22,23
 372 907 372 907 362 769 c 1,24,25
 344 736 344 736 307.5 714.5 c 128,-1,26
 271 693 271 693 232 691 c 1,27,28
 267 1027 267 1027 507 1206 c 0,29,30
 645 1310 645 1310 871 1310 c 0,31,32
 935 1310 935 1310 1031 1303.5 c 128,-1,33
 1127 1297 1127 1297 1157 1295 c 1,34,35
 1127 1245 1127 1245 1098 1091 c 128,-1,36
 1069 937 1069 937 1043 678.5 c 128,-1,37
 1017 420 1017 420 1017 296 c 128,-1,38
 1017 172 1017 172 1033.5 133.5 c 128,-1,39
 1050 95 1050 95 1086 95 c 0,40,41
 1144 95 1144 95 1230 144 c 1,42,-1
 1235 130 l 1,43,44
 1168 76 1168 76 1128.5 49.5 c 128,-1,45
 1089 23 1089 23 1016 -20 c 1,46,47
 944 -20 944 -20 916 34 c 128,-1,48
 888 88 888 88 888 204 c 0,49,50
 888 247 888 247 903 477 c 1,51,-1
 626 477 l 1,52,53
 533 316 533 316 437 156 c 1,54,55
 324 6 324 6 217 -66 c 128,-1,56
 110 -138 110 -138 -4 -138 c 2,57,-1
 -111 -138 l 1,58,59
 -84 -48 -84 -48 -20 -15 c 1,60,61
 41 -32 41 -32 101 -32 c 128,-1,62
 161 -32 161 -32 194.5 -17 c 128,-1,63
 228 -2 228 -2 264.5 40.5 c 128,-1,64
 301 83 301 83 358 172.5 c 128,-1,65
 415 262 415 262 646 663.5 c 128,-1,66
 877 1065 877 1065 973 1208 c 1,15,-1
962 1059 m 1,67,68
 890 941 890 941 808 795.5 c 128,-1,69
 726 650 726 650 675 562 c 1,70,-1
 910 562 l 1,71,72
 934 864 934 864 962 1059 c 1,67,68
EndSplineSet
EndChar

StartChar: Atilde
Encoding: 195 195 134
Width: 1155
GlyphClass: 2
Flags: W
LayerCount: 2
Fore
SplineSet
1017 1208 m 1,0,-1
 833 1213 l 1,1,2
 702 1213 702 1213 646 1195 c 0,3,4
 572 1171 572 1171 534 1133 c 0,5,6
 476 1075 476 1075 450 1001 c 0,7,8
 416 907 416 907 406 769 c 1,9,10
 388 736 388 736 351.5 714.5 c 128,-1,11
 315 693 315 693 276 691 c 1,12,13
 311 1027 311 1027 551 1206 c 0,14,15
 689 1310 689 1310 915 1310 c 0,16,17
 979 1310 979 1310 1075 1303.5 c 128,-1,18
 1171 1297 1171 1297 1201 1295 c 1,19,20
 1171 1245 1171 1245 1142 1091 c 128,-1,21
 1113 937 1113 937 1087 678.5 c 128,-1,22
 1061 420 1061 420 1061 296 c 128,-1,23
 1061 172 1061 172 1077.5 133.5 c 128,-1,24
 1094 95 1094 95 1130 95 c 0,25,26
 1188 95 1188 95 1274 144 c 1,27,-1
 1279 130 l 1,28,29
 1212 76 1212 76 1172.5 49.5 c 128,-1,30
 1133 23 1133 23 1060 -20 c 1,31,32
 988 -20 988 -20 960 34 c 128,-1,33
 932 88 932 88 932 204 c 0,34,35
 932 247 932 247 947 477 c 1,36,-1
 670 477 l 1,37,38
 577 316 577 316 481 156 c 1,39,40
 368 6 368 6 261 -66 c 128,-1,41
 154 -138 154 -138 40 -138 c 2,42,-1
 -67 -138 l 1,43,44
 -40 -48 -40 -48 24 -15 c 1,45,46
 85 -32 85 -32 145 -32 c 128,-1,47
 205 -32 205 -32 238.5 -17 c 128,-1,48
 272 -2 272 -2 308.5 40.5 c 128,-1,49
 345 83 345 83 402 172.5 c 128,-1,50
 459 262 459 262 690 663.5 c 128,-1,51
 921 1065 921 1065 1017 1208 c 1,0,-1
1006 1059 m 1,52,53
 934 941 934 941 852 795.5 c 128,-1,54
 770 650 770 650 719 562 c 1,55,-1
 954 562 l 1,56,57
 978 864 978 864 1006 1059 c 1,52,53
1079 1485.5 m 128,-1,59
 1009 1515 1009 1515 970 1515 c 128,-1,60
 931 1515 931 1515 903.5 1501 c 128,-1,61
 876 1487 876 1487 844 1455 c 1,62,-1
 830 1473 l 1,63,64
 875 1528 875 1528 913 1560 c 128,-1,65
 951 1592 951 1592 1002 1609 c 1,66,67
 1037 1609 1037 1609 1118 1578 c 128,-1,68
 1199 1547 1199 1547 1223 1547 c 0,69,70
 1267 1547 1267 1547 1291.5 1556.5 c 128,-1,71
 1316 1566 1316 1566 1345 1589 c 1,72,-1
 1357 1575 l 1,73,74
 1277 1479 1277 1479 1186 1456 c 1,75,58
 1149 1456 1149 1456 1079 1485.5 c 128,-1,59
EndSplineSet
EndChar

StartChar: Adieresis
Encoding: 196 196 135
Width: 1155
GlyphClass: 2
Flags: W
LayerCount: 2
Fore
SplineSet
1017 1208 m 1,0,-1
 833 1213 l 1,1,2
 702 1213 702 1213 646 1195 c 0,3,4
 572 1171 572 1171 534 1133 c 0,5,6
 476 1075 476 1075 450 1001 c 0,7,8
 416 907 416 907 406 769 c 1,9,10
 388 736 388 736 351.5 714.5 c 128,-1,11
 315 693 315 693 276 691 c 1,12,13
 311 1027 311 1027 551 1206 c 0,14,15
 689 1310 689 1310 915 1310 c 0,16,17
 979 1310 979 1310 1075 1303.5 c 128,-1,18
 1171 1297 1171 1297 1201 1295 c 1,19,20
 1171 1245 1171 1245 1142 1091 c 128,-1,21
 1113 937 1113 937 1087 678.5 c 128,-1,22
 1061 420 1061 420 1061 296 c 128,-1,23
 1061 172 1061 172 1077.5 133.5 c 128,-1,24
 1094 95 1094 95 1130 95 c 0,25,26
 1188 95 1188 95 1274 144 c 1,27,-1
 1279 130 l 1,28,29
 1212 76 1212 76 1172.5 49.5 c 128,-1,30
 1133 23 1133 23 1060 -20 c 1,31,32
 988 -20 988 -20 960 34 c 128,-1,33
 932 88 932 88 932 204 c 0,34,35
 932 247 932 247 947 477 c 1,36,-1
 670 477 l 1,37,38
 577 316 577 316 481 156 c 1,39,40
 368 6 368 6 261 -66 c 128,-1,41
 154 -138 154 -138 40 -138 c 2,42,-1
 -67 -138 l 1,43,44
 -40 -48 -40 -48 24 -15 c 1,45,46
 85 -32 85 -32 145 -32 c 128,-1,47
 205 -32 205 -32 238.5 -17 c 128,-1,48
 272 -2 272 -2 308.5 40.5 c 128,-1,49
 345 83 345 83 402 172.5 c 128,-1,50
 459 262 459 262 690 663.5 c 128,-1,51
 921 1065 921 1065 1017 1208 c 1,0,-1
1006 1059 m 1,52,53
 934 941 934 941 852 795.5 c 128,-1,54
 770 650 770 650 719 562 c 1,55,-1
 954 562 l 1,56,57
 978 864 978 864 1006 1059 c 1,52,53
908 1568 m 1,58,-1
 989 1652 l 1,59,60
 1040 1619 1040 1619 1069 1564 c 1,61,62
 1040 1514 1040 1514 990 1471 c 1,63,64
 930 1519 930 1519 908 1568 c 1,58,-1
1182 1568 m 1,65,-1
 1263 1652 l 1,66,67
 1314 1619 1314 1619 1343 1564 c 1,68,69
 1314 1514 1314 1514 1264 1471 c 1,70,71
 1204 1519 1204 1519 1182 1568 c 1,65,-1
EndSplineSet
EndChar

StartChar: Aring
Encoding: 197 197 136
Width: 1155
GlyphClass: 2
Flags: W
LayerCount: 2
Fore
SplineSet
1017 1208 m 1,0,-1
 833 1213 l 1,1,2
 702 1213 702 1213 646 1195 c 0,3,4
 572 1171 572 1171 534 1133 c 0,5,6
 476 1075 476 1075 450 1001 c 0,7,8
 416 907 416 907 406 769 c 1,9,10
 388 736 388 736 351.5 714.5 c 128,-1,11
 315 693 315 693 276 691 c 1,12,13
 311 1027 311 1027 551 1206 c 0,14,15
 689 1310 689 1310 915 1310 c 0,16,17
 979 1310 979 1310 1075 1303.5 c 128,-1,18
 1171 1297 1171 1297 1201 1295 c 1,19,20
 1171 1245 1171 1245 1142 1091 c 128,-1,21
 1113 937 1113 937 1087 678.5 c 128,-1,22
 1061 420 1061 420 1061 296 c 128,-1,23
 1061 172 1061 172 1077.5 133.5 c 128,-1,24
 1094 95 1094 95 1130 95 c 0,25,26
 1188 95 1188 95 1274 144 c 1,27,-1
 1279 130 l 1,28,29
 1212 76 1212 76 1172.5 49.5 c 128,-1,30
 1133 23 1133 23 1060 -20 c 1,31,32
 988 -20 988 -20 960 34 c 128,-1,33
 932 88 932 88 932 204 c 0,34,35
 932 247 932 247 947 477 c 1,36,-1
 670 477 l 1,37,38
 577 316 577 316 481 156 c 1,39,40
 368 6 368 6 261 -66 c 128,-1,41
 154 -138 154 -138 40 -138 c 2,42,-1
 -67 -138 l 1,43,44
 -40 -48 -40 -48 24 -15 c 1,45,46
 85 -32 85 -32 145 -32 c 128,-1,47
 205 -32 205 -32 238.5 -17 c 128,-1,48
 272 -2 272 -2 308.5 40.5 c 128,-1,49
 345 83 345 83 402 172.5 c 128,-1,50
 459 262 459 262 690 663.5 c 128,-1,51
 921 1065 921 1065 1017 1208 c 1,0,-1
1006 1059 m 1,52,53
 934 941 934 941 852 795.5 c 128,-1,54
 770 650 770 650 719 562 c 1,55,-1
 954 562 l 1,56,57
 978 864 978 864 1006 1059 c 1,52,53
1116 1480.5 m 128,-1,59
 1086 1510 1086 1510 1086 1559.5 c 128,-1,60
 1086 1609 1086 1609 1128.5 1653 c 128,-1,61
 1171 1697 1171 1697 1223 1697 c 128,-1,62
 1275 1697 1275 1697 1304.5 1666.5 c 128,-1,63
 1334 1636 1334 1636 1334 1585.5 c 128,-1,64
 1334 1535 1334 1535 1290.5 1493 c 128,-1,65
 1247 1451 1247 1451 1196.5 1451 c 128,-1,58
 1146 1451 1146 1451 1116 1480.5 c 128,-1,59
1159.5 1623.5 m 128,-1,67
 1136 1600 1136 1600 1136 1575.5 c 128,-1,68
 1136 1551 1136 1551 1160.5 1526.5 c 128,-1,69
 1185 1502 1185 1502 1209.5 1502 c 128,-1,70
 1234 1502 1234 1502 1258.5 1524.5 c 128,-1,71
 1283 1547 1283 1547 1283 1571 c 128,-1,72
 1283 1595 1283 1595 1258 1621 c 128,-1,73
 1233 1647 1233 1647 1208 1647 c 128,-1,66
 1183 1647 1183 1647 1159.5 1623.5 c 128,-1,67
EndSplineSet
EndChar

StartChar: AE
Encoding: 198 198 137
Width: 1376
GlyphClass: 2
Flags: W
LayerCount: 2
Fore
SplineSet
1285 661 m 2,0,-1
 1053 664 l 1,1,2
 994 441 994 441 959 323 c 0,3,4
 942 268 942 268 909 219.5 c 128,-1,5
 876 171 876 171 809 113 c 1,6,-1
 814 99 l 1,7,-1
 1225 96 l 2,8,9
 1243 95 1243 95 1260 95 c 0,10,11
 1382 95 1382 95 1486 163 c 1,12,-1
 1490 149 l 1,13,14
 1336 39 1336 39 1271 -2 c 1,15,-1
 607 0 l 1,16,-1
 602 14 l 1,17,18
 642 22 642 22 676.5 45.5 c 128,-1,19
 711 69 711 69 734 97 c 128,-1,20
 757 125 757 125 777 164 c 0,21,22
 810 230 810 230 835.5 322 c 128,-1,23
 861 414 861 414 895 541 c 1,24,-1
 657 541 l 1,25,26
 541 357 541 357 437 230 c 0,27,28
 250 -1 250 -1 32 -1 c 2,29,-1
 -66 -1 l 1,30,31
 -41 80 -41 80 20 110 c 1,32,33
 77 95 77 95 145 95 c 128,-1,34
 213 95 213 95 254 127.5 c 128,-1,35
 295 160 295 160 386 292 c 0,36,37
 423 345 423 345 655.5 705.5 c 128,-1,38
 888 1066 888 1066 987 1199 c 1,39,-1
 792 1204 l 1,40,41
 738 1204 738 1204 705 1202.5 c 128,-1,42
 672 1201 672 1201 621.5 1192 c 128,-1,43
 571 1183 571 1183 539 1166.5 c 128,-1,44
 507 1150 507 1150 468.5 1117.5 c 128,-1,45
 430 1085 430 1085 407 1039 c 0,46,47
 352 929 352 929 341 761 c 1,48,49
 323 728 323 728 286.5 706.5 c 128,-1,50
 250 685 250 685 211 683 c 1,51,52
 247 1022 247 1022 492 1197 c 0,53,54
 637 1301 637 1301 879 1301 c 1,55,-1
 1108 1306 l 1,56,-1
 1157 1305 l 1,57,-1
 1714 1305 l 1,58,59
 1688 1272 1688 1272 1643 1237.5 c 128,-1,60
 1598 1203 1598 1203 1564 1203 c 2,61,-1
 1202 1204 l 1,62,63
 1185 1174 1185 1174 1180 1145 c 1,64,-1
 1082 772 l 1,65,-1
 1107 772 l 1,66,-1
 1311 766 l 1,67,68
 1410 766 1410 766 1481 784 c 1,69,-1
 1490 776 l 1,70,71
 1454 731 1454 731 1399 696 c 128,-1,72
 1344 661 1344 661 1285 661 c 2,0,-1
1084 1195 m 1,73,-1
 1078 1196 l 1,74,75
 993 1089 993 1089 933 993 c 128,-1,76
 873 897 873 897 851.5 862.5 c 128,-1,77
 830 828 830 828 776 737.5 c 128,-1,78
 722 647 722 647 709 626 c 1,79,-1
 918 626 l 1,80,81
 946 735 946 735 975 860 c 128,-1,82
 1004 985 1004 985 1015 1029 c 0,83,84
 1043 1139 1043 1139 1084 1195 c 1,73,-1
EndSplineSet
EndChar

StartChar: Ccedilla
Encoding: 199 199 138
Width: 967
GlyphClass: 2
Flags: W
LayerCount: 2
Fore
SplineSet
841 768 m 0,0,1
 934 768 934 768 993.5 847 c 128,-1,2
 1053 926 1053 926 1053 1015.5 c 128,-1,3
 1053 1105 1053 1105 1008.5 1159.5 c 128,-1,4
 964 1214 964 1214 872.5 1214 c 128,-1,5
 781 1214 781 1214 688 1149.5 c 128,-1,6
 595 1085 595 1085 524.5 979 c 128,-1,7
 454 873 454 873 410 726.5 c 128,-1,8
 366 580 366 580 366 425 c 0,9,10
 366 290 366 290 418 195 c 0,11,12
 444 146 444 146 490 117 c 128,-1,13
 536 88 536 88 596 88 c 0,14,15
 700 88 700 88 793.5 155.5 c 128,-1,16
 887 223 887 223 960 343 c 1,17,-1
 986 327 l 1,18,19
 926 218 926 218 839 127.5 c 128,-1,20
 752 37 752 37 652 0 c 1,21,22
 631 -19 631 -19 594 -50 c 128,-1,23
 557 -81 557 -81 546 -91 c 1,24,25
 667 -130 667 -130 667 -216 c 0,26,27
 667 -276 667 -276 613 -320.5 c 128,-1,28
 559 -365 559 -365 487.5 -365 c 128,-1,29
 416 -365 416 -365 369 -305 c 1,30,31
 396 -262 396 -262 446 -242 c 1,32,33
 476 -312 476 -312 535.5 -312 c 128,-1,34
 595 -312 595 -312 595 -266 c 0,35,36
 595 -224 595 -224 555.5 -184.5 c 128,-1,37
 516 -145 516 -145 456 -141 c 1,38,-1
 449 -124 l 1,39,-1
 571 -18 l 1,40,41
 551 -20 551 -20 541 -20 c 0,42,43
 472 -20 472 -20 418.5 1 c 128,-1,44
 365 22 365 22 331.5 56.5 c 128,-1,45
 298 91 298 91 276 139 c 0,46,47
 237 224 237 224 237 343.5 c 128,-1,48
 237 463 237 463 266 585.5 c 128,-1,49
 295 708 295 708 344.5 813 c 128,-1,50
 394 918 394 918 462 1009.5 c 128,-1,51
 530 1101 530 1101 606 1165.5 c 128,-1,52
 682 1230 682 1230 766 1267 c 128,-1,53
 850 1304 850 1304 930 1304 c 0,54,55
 1042 1304 1042 1304 1098 1246.5 c 128,-1,56
 1154 1189 1154 1189 1154 1101.5 c 128,-1,57
 1154 1014 1154 1014 1111 926.5 c 128,-1,58
 1068 839 1068 839 992.5 779 c 128,-1,59
 917 719 917 719 836 719 c 0,60,61
 778 719 778 719 742.5 752.5 c 128,-1,62
 707 786 707 786 707 833 c 0,63,64
 707 843 707 843 708 853 c 1,65,-1
 728 862 l 1,66,67
 733 819 733 819 760.5 793.5 c 128,-1,68
 788 768 788 768 841 768 c 0,0,1
EndSplineSet
EndChar

StartChar: Egrave
Encoding: 200 200 139
Width: 1147
GlyphClass: 2
Flags: W
LayerCount: 2
Fore
SplineSet
925 661 m 2,0,-1
 693 664 l 1,1,2
 611 362 611 362 599 323 c 0,3,4
 563 201 563 201 451 105 c 1,5,-1
 454 98 l 1,6,-1
 904 98 l 2,7,8
 1035 98 1035 98 1194 222 c 1,9,-1
 1211 199 l 1,10,11
 1193 182 1193 182 1141.5 131.5 c 128,-1,12
 1090 81 1090 81 1051.5 50.5 c 128,-1,13
 1013 20 1013 20 984.5 5.5 c 128,-1,14
 956 -9 956 -9 934.5 -9 c 128,-1,15
 913 -9 913 -9 869.5 -4.5 c 128,-1,16
 826 0 826 0 787 0 c 2,17,-1
 247 0 l 1,18,-1
 242 14 l 1,19,20
 282 22 282 22 316.5 45.5 c 128,-1,21
 351 69 351 69 374 97 c 128,-1,22
 397 125 397 125 417 164 c 0,23,24
 450 230 450 230 484 349.5 c 128,-1,25
 518 469 518 469 564.5 650 c 128,-1,26
 611 831 611 831 633 920 c 0,27,28
 686 1133 686 1133 739 1204 c 1,29,-1
 667 1204 l 2,30,31
 492 1204 492 1204 412.5 1110 c 128,-1,32
 333 1016 333 1016 311 785 c 1,33,34
 285 695 285 695 182 691 c 1,35,36
 201 887 201 887 287 1029 c 128,-1,37
 373 1171 373 1171 553 1269 c 0,38,39
 590 1289 590 1289 647 1297 c 128,-1,40
 704 1305 704 1305 815 1305 c 2,41,-1
 1354 1305 l 1,42,43
 1328 1272 1328 1272 1283 1237.5 c 128,-1,44
 1238 1203 1238 1203 1204 1203 c 2,45,-1
 842 1204 l 1,46,47
 825 1174 825 1174 820 1145 c 1,48,-1
 722 772 l 1,49,-1
 747 772 l 1,50,-1
 951 766 l 1,51,52
 1050 766 1050 766 1121 784 c 1,53,-1
 1130 776 l 1,54,55
 1094 731 1094 731 1039 696 c 128,-1,56
 984 661 984 661 925 661 c 2,0,-1
791 1680 m 1,57,-1
 898 1698 l 1,58,59
 942 1544 942 1544 1137 1416 c 1,60,-1
 1114 1394 l 1,61,62
 1009 1436 1009 1436 917 1510.5 c 128,-1,63
 825 1585 825 1585 791 1680 c 1,57,-1
EndSplineSet
EndChar

StartChar: Eacute
Encoding: 201 201 140
Width: 1147
GlyphClass: 2
Flags: W
LayerCount: 2
Fore
SplineSet
925 661 m 2,0,-1
 693 664 l 1,1,2
 611 362 611 362 599 323 c 0,3,4
 563 201 563 201 451 105 c 1,5,-1
 454 98 l 1,6,-1
 904 98 l 2,7,8
 1035 98 1035 98 1194 222 c 1,9,-1
 1211 199 l 1,10,11
 1193 182 1193 182 1141.5 131.5 c 128,-1,12
 1090 81 1090 81 1051.5 50.5 c 128,-1,13
 1013 20 1013 20 984.5 5.5 c 128,-1,14
 956 -9 956 -9 934.5 -9 c 128,-1,15
 913 -9 913 -9 869.5 -4.5 c 128,-1,16
 826 0 826 0 787 0 c 2,17,-1
 247 0 l 1,18,-1
 242 14 l 1,19,20
 282 22 282 22 316.5 45.5 c 128,-1,21
 351 69 351 69 374 97 c 128,-1,22
 397 125 397 125 417 164 c 0,23,24
 450 230 450 230 484 349.5 c 128,-1,25
 518 469 518 469 564.5 650 c 128,-1,26
 611 831 611 831 633 920 c 0,27,28
 686 1133 686 1133 739 1204 c 1,29,-1
 667 1204 l 2,30,31
 492 1204 492 1204 412.5 1110 c 128,-1,32
 333 1016 333 1016 311 785 c 1,33,34
 285 695 285 695 182 691 c 1,35,36
 201 887 201 887 287 1029 c 128,-1,37
 373 1171 373 1171 553 1269 c 0,38,39
 590 1289 590 1289 647 1297 c 128,-1,40
 704 1305 704 1305 815 1305 c 2,41,-1
 1354 1305 l 1,42,43
 1328 1272 1328 1272 1283 1237.5 c 128,-1,44
 1238 1203 1238 1203 1204 1203 c 2,45,-1
 842 1204 l 1,46,47
 825 1174 825 1174 820 1145 c 1,48,-1
 722 772 l 1,49,-1
 747 772 l 1,50,-1
 951 766 l 1,51,52
 1050 766 1050 766 1121 784 c 1,53,-1
 1130 776 l 1,54,55
 1094 731 1094 731 1039 696 c 128,-1,56
 984 661 984 661 925 661 c 2,0,-1
1148 1695 m 1,57,-1
 1255 1677 l 1,58,59
 1221 1582 1221 1582 1129 1507.5 c 128,-1,60
 1037 1433 1037 1433 932 1391 c 1,61,-1
 909 1413 l 1,62,63
 1104 1541 1104 1541 1148 1695 c 1,57,-1
EndSplineSet
EndChar

StartChar: Ecircumflex
Encoding: 202 202 141
Width: 1147
GlyphClass: 2
Flags: W
LayerCount: 2
Fore
SplineSet
925 661 m 2,0,-1
 693 664 l 1,1,2
 611 362 611 362 599 323 c 0,3,4
 563 201 563 201 451 105 c 1,5,-1
 454 98 l 1,6,-1
 904 98 l 2,7,8
 1035 98 1035 98 1194 222 c 1,9,-1
 1211 199 l 1,10,11
 1193 182 1193 182 1141.5 131.5 c 128,-1,12
 1090 81 1090 81 1051.5 50.5 c 128,-1,13
 1013 20 1013 20 984.5 5.5 c 128,-1,14
 956 -9 956 -9 934.5 -9 c 128,-1,15
 913 -9 913 -9 869.5 -4.5 c 128,-1,16
 826 0 826 0 787 0 c 2,17,-1
 247 0 l 1,18,-1
 242 14 l 1,19,20
 282 22 282 22 316.5 45.5 c 128,-1,21
 351 69 351 69 374 97 c 128,-1,22
 397 125 397 125 417 164 c 0,23,24
 450 230 450 230 484 349.5 c 128,-1,25
 518 469 518 469 564.5 650 c 128,-1,26
 611 831 611 831 633 920 c 0,27,28
 686 1133 686 1133 739 1204 c 1,29,-1
 667 1204 l 2,30,31
 492 1204 492 1204 412.5 1110 c 128,-1,32
 333 1016 333 1016 311 785 c 1,33,34
 285 695 285 695 182 691 c 1,35,36
 201 887 201 887 287 1029 c 128,-1,37
 373 1171 373 1171 553 1269 c 0,38,39
 590 1289 590 1289 647 1297 c 128,-1,40
 704 1305 704 1305 815 1305 c 2,41,-1
 1354 1305 l 1,42,43
 1328 1272 1328 1272 1283 1237.5 c 128,-1,44
 1238 1203 1238 1203 1204 1203 c 2,45,-1
 842 1204 l 1,46,47
 825 1174 825 1174 820 1145 c 1,48,-1
 722 772 l 1,49,-1
 747 772 l 1,50,-1
 951 766 l 1,51,52
 1050 766 1050 766 1121 784 c 1,53,-1
 1130 776 l 1,54,55
 1094 731 1094 731 1039 696 c 128,-1,56
 984 661 984 661 925 661 c 2,0,-1
1081 1667 m 1,57,58
 1097 1671 1097 1671 1123.5 1671 c 128,-1,59
 1150 1671 1150 1671 1175 1660 c 1,60,61
 1175 1533 1175 1533 1303 1421 c 1,62,-1
 1282 1397 l 1,63,64
 1158 1448 1158 1448 1105 1555 c 1,65,-1
 1101 1556 l 1,66,67
 1064 1506 1064 1506 998 1464 c 128,-1,68
 932 1422 932 1422 859 1397 c 1,69,-1
 838 1421 l 1,70,71
 1031 1523 1031 1523 1081 1667 c 1,57,58
EndSplineSet
EndChar

StartChar: Edieresis
Encoding: 203 203 142
Width: 1147
GlyphClass: 2
Flags: W
LayerCount: 2
Fore
SplineSet
925 661 m 2,0,-1
 693 664 l 1,1,2
 611 362 611 362 599 323 c 0,3,4
 563 201 563 201 451 105 c 1,5,-1
 454 98 l 1,6,-1
 904 98 l 2,7,8
 1035 98 1035 98 1194 222 c 1,9,-1
 1211 199 l 1,10,11
 1193 182 1193 182 1141.5 131.5 c 128,-1,12
 1090 81 1090 81 1051.5 50.5 c 128,-1,13
 1013 20 1013 20 984.5 5.5 c 128,-1,14
 956 -9 956 -9 934.5 -9 c 128,-1,15
 913 -9 913 -9 869.5 -4.5 c 128,-1,16
 826 0 826 0 787 0 c 2,17,-1
 247 0 l 1,18,-1
 242 14 l 1,19,20
 282 22 282 22 316.5 45.5 c 128,-1,21
 351 69 351 69 374 97 c 128,-1,22
 397 125 397 125 417 164 c 0,23,24
 450 230 450 230 484 349.5 c 128,-1,25
 518 469 518 469 564.5 650 c 128,-1,26
 611 831 611 831 633 920 c 0,27,28
 686 1133 686 1133 739 1204 c 1,29,-1
 667 1204 l 2,30,31
 492 1204 492 1204 412.5 1110 c 128,-1,32
 333 1016 333 1016 311 785 c 1,33,34
 285 695 285 695 182 691 c 1,35,36
 201 887 201 887 287 1029 c 128,-1,37
 373 1171 373 1171 553 1269 c 0,38,39
 590 1289 590 1289 647 1297 c 128,-1,40
 704 1305 704 1305 815 1305 c 2,41,-1
 1354 1305 l 1,42,43
 1328 1272 1328 1272 1283 1237.5 c 128,-1,44
 1238 1203 1238 1203 1204 1203 c 2,45,-1
 842 1204 l 1,46,47
 825 1174 825 1174 820 1145 c 1,48,-1
 722 772 l 1,49,-1
 747 772 l 1,50,-1
 951 766 l 1,51,52
 1050 766 1050 766 1121 784 c 1,53,-1
 1130 776 l 1,54,55
 1094 731 1094 731 1039 696 c 128,-1,56
 984 661 984 661 925 661 c 2,0,-1
847 1568 m 1,57,-1
 928 1652 l 1,58,59
 979 1619 979 1619 1008 1564 c 1,60,61
 979 1514 979 1514 929 1471 c 1,62,63
 869 1519 869 1519 847 1568 c 1,57,-1
1121 1568 m 1,64,-1
 1202 1652 l 1,65,66
 1253 1619 1253 1619 1282 1564 c 1,67,68
 1253 1514 1253 1514 1203 1471 c 1,69,70
 1143 1519 1143 1519 1121 1568 c 1,64,-1
EndSplineSet
EndChar

StartChar: Igrave
Encoding: 204 204 143
Width: 713
GlyphClass: 2
Flags: W
LayerCount: 2
Fore
SplineSet
667 1204 m 2,0,1
 498 1204 498 1204 418.5 1117.5 c 128,-1,2
 339 1031 339 1031 314 820 c 1,3,4
 311 810 311 810 311 764 c 1,5,6
 275 694 275 694 183 691 c 1,7,8
 202 888 202 888 287 1029.5 c 128,-1,9
 372 1171 372 1171 554 1269 c 0,10,11
 621 1305 621 1305 808 1305 c 2,12,-1
 964 1305 l 1,13,-1
 966 1298 l 1,14,15
 938 1283 938 1283 908.5 1243 c 128,-1,16
 879 1203 879 1203 861.5 1137 c 128,-1,17
 844 1071 844 1071 774 816 c 128,-1,18
 704 561 704 561 657.5 379.5 c 128,-1,19
 611 198 611 198 495.5 89 c 128,-1,20
 380 -20 380 -20 261 -20 c 2,21,-1
 121 -20 l 1,22,23
 144 66 144 66 216 101 c 1,24,25
 304 81 304 81 374 81 c 0,26,27
 468 81 468 81 524 306 c 0,28,29
 575 507 575 507 608 644.5 c 128,-1,30
 641 782 641 782 661.5 862.5 c 128,-1,31
 682 943 682 943 695 988.5 c 128,-1,32
 708 1034 708 1034 724 1080 c 0,33,34
 752 1165 752 1165 781 1204 c 1,35,-1
 667 1204 l 2,0,1
620 1677 m 1,36,-1
 727 1695 l 1,37,38
 771 1541 771 1541 966 1413 c 1,39,-1
 943 1391 l 1,40,41
 838 1433 838 1433 746 1507.5 c 128,-1,42
 654 1582 654 1582 620 1677 c 1,36,-1
EndSplineSet
EndChar

StartChar: Iacute
Encoding: 205 205 144
Width: 713
GlyphClass: 2
Flags: W
LayerCount: 2
Fore
SplineSet
667 1204 m 2,0,1
 498 1204 498 1204 418.5 1117.5 c 128,-1,2
 339 1031 339 1031 314 820 c 1,3,4
 311 810 311 810 311 764 c 1,5,6
 275 694 275 694 183 691 c 1,7,8
 202 888 202 888 287 1029.5 c 128,-1,9
 372 1171 372 1171 554 1269 c 0,10,11
 621 1305 621 1305 808 1305 c 2,12,-1
 964 1305 l 1,13,-1
 966 1298 l 1,14,15
 938 1283 938 1283 908.5 1243 c 128,-1,16
 879 1203 879 1203 861.5 1137 c 128,-1,17
 844 1071 844 1071 774 816 c 128,-1,18
 704 561 704 561 657.5 379.5 c 128,-1,19
 611 198 611 198 495.5 89 c 128,-1,20
 380 -20 380 -20 261 -20 c 2,21,-1
 121 -20 l 1,22,23
 144 66 144 66 216 101 c 1,24,25
 304 81 304 81 374 81 c 0,26,27
 468 81 468 81 524 306 c 0,28,29
 575 507 575 507 608 644.5 c 128,-1,30
 641 782 641 782 661.5 862.5 c 128,-1,31
 682 943 682 943 695 988.5 c 128,-1,32
 708 1034 708 1034 724 1080 c 0,33,34
 752 1165 752 1165 781 1204 c 1,35,-1
 667 1204 l 2,0,1
1017 1693 m 1,36,-1
 1124 1675 l 1,37,38
 1090 1580 1090 1580 998 1505.5 c 128,-1,39
 906 1431 906 1431 801 1389 c 1,40,-1
 778 1411 l 1,41,42
 973 1539 973 1539 1017 1693 c 1,36,-1
EndSplineSet
EndChar

StartChar: Icircumflex
Encoding: 206 206 145
Width: 713
GlyphClass: 2
Flags: W
LayerCount: 2
Fore
SplineSet
667 1204 m 2,0,1
 498 1204 498 1204 418.5 1117.5 c 128,-1,2
 339 1031 339 1031 314 820 c 1,3,4
 311 810 311 810 311 764 c 1,5,6
 275 694 275 694 183 691 c 1,7,8
 202 888 202 888 287 1029.5 c 128,-1,9
 372 1171 372 1171 554 1269 c 0,10,11
 621 1305 621 1305 808 1305 c 2,12,-1
 964 1305 l 1,13,-1
 966 1298 l 1,14,15
 938 1283 938 1283 908.5 1243 c 128,-1,16
 879 1203 879 1203 861.5 1137 c 128,-1,17
 844 1071 844 1071 774 816 c 128,-1,18
 704 561 704 561 657.5 379.5 c 128,-1,19
 611 198 611 198 495.5 89 c 128,-1,20
 380 -20 380 -20 261 -20 c 2,21,-1
 121 -20 l 1,22,23
 144 66 144 66 216 101 c 1,24,25
 304 81 304 81 374 81 c 0,26,27
 468 81 468 81 524 306 c 0,28,29
 575 507 575 507 608 644.5 c 128,-1,30
 641 782 641 782 661.5 862.5 c 128,-1,31
 682 943 682 943 695 988.5 c 128,-1,32
 708 1034 708 1034 724 1080 c 0,33,34
 752 1165 752 1165 781 1204 c 1,35,-1
 667 1204 l 2,0,1
813 1667 m 1,36,37
 829 1671 829 1671 855.5 1671 c 128,-1,38
 882 1671 882 1671 907 1660 c 1,39,40
 907 1533 907 1533 1035 1421 c 1,41,-1
 1014 1397 l 1,42,43
 890 1448 890 1448 837 1555 c 1,44,-1
 833 1556 l 1,45,46
 796 1506 796 1506 730 1464 c 128,-1,47
 664 1422 664 1422 591 1397 c 1,48,-1
 570 1421 l 1,49,50
 763 1523 763 1523 813 1667 c 1,36,37
EndSplineSet
EndChar

StartChar: Idieresis
Encoding: 207 207 146
Width: 713
GlyphClass: 2
Flags: W
LayerCount: 2
Fore
SplineSet
667 1204 m 2,0,1
 498 1204 498 1204 418.5 1117.5 c 128,-1,2
 339 1031 339 1031 314 820 c 1,3,4
 311 810 311 810 311 764 c 1,5,6
 275 694 275 694 183 691 c 1,7,8
 202 888 202 888 287 1029.5 c 128,-1,9
 372 1171 372 1171 554 1269 c 0,10,11
 621 1305 621 1305 808 1305 c 2,12,-1
 964 1305 l 1,13,-1
 966 1298 l 1,14,15
 938 1283 938 1283 908.5 1243 c 128,-1,16
 879 1203 879 1203 861.5 1137 c 128,-1,17
 844 1071 844 1071 774 816 c 128,-1,18
 704 561 704 561 657.5 379.5 c 128,-1,19
 611 198 611 198 495.5 89 c 128,-1,20
 380 -20 380 -20 261 -20 c 2,21,-1
 121 -20 l 1,22,23
 144 66 144 66 216 101 c 1,24,25
 304 81 304 81 374 81 c 0,26,27
 468 81 468 81 524 306 c 0,28,29
 575 507 575 507 608 644.5 c 128,-1,30
 641 782 641 782 661.5 862.5 c 128,-1,31
 682 943 682 943 695 988.5 c 128,-1,32
 708 1034 708 1034 724 1080 c 0,33,34
 752 1165 752 1165 781 1204 c 1,35,-1
 667 1204 l 2,0,1
609 1570 m 1,36,-1
 690 1654 l 1,37,38
 741 1621 741 1621 770 1566 c 1,39,40
 741 1516 741 1516 691 1473 c 1,41,42
 631 1521 631 1521 609 1570 c 1,36,-1
883 1570 m 1,43,-1
 964 1654 l 1,44,45
 1015 1621 1015 1621 1044 1566 c 1,46,47
 1015 1516 1015 1516 965 1473 c 1,48,49
 905 1521 905 1521 883 1570 c 1,43,-1
EndSplineSet
EndChar

StartChar: Eth
Encoding: 208 208 147
Width: 1303
GlyphClass: 2
Flags: W
LayerCount: 2
Fore
SplineSet
650 100 m 2,0,1
 756 100 756 100 853 145.5 c 128,-1,2
 950 191 950 191 1022.5 266.5 c 128,-1,3
 1095 342 1095 342 1149.5 436 c 128,-1,4
 1204 530 1204 530 1231.5 631 c 128,-1,5
 1259 732 1259 732 1259 822.5 c 128,-1,6
 1259 913 1259 913 1234 984 c 128,-1,7
 1209 1055 1209 1055 1156.5 1110 c 128,-1,8
 1104 1165 1104 1165 1014.5 1195.5 c 128,-1,9
 925 1226 925 1226 805 1226 c 0,10,11
 595 1226 595 1226 459.5 1091 c 128,-1,12
 324 956 324 956 299 702 c 1,13,14
 265 640 265 640 180 635 c 1,15,16
 209 919 209 919 392 1106 c 0,17,18
 484 1200 484 1200 629 1254.5 c 128,-1,19
 774 1309 774 1309 956 1309 c 0,20,21
 1071 1309 1071 1309 1157 1278.5 c 128,-1,22
 1243 1248 1243 1248 1292 1193 c 0,23,24
 1388 1085 1388 1085 1388 919 c 0,25,26
 1388 734 1388 734 1276 516 c 0,27,28
 1223 415 1223 415 1146 321 c 128,-1,29
 1069 227 1069 227 979.5 156 c 128,-1,30
 890 85 890 85 781.5 42.5 c 128,-1,31
 673 0 673 0 563 0 c 2,32,-1
 187 0 l 1,33,-1
 181 14 l 1,34,35
 221 22 221 22 255.5 45.5 c 128,-1,36
 290 69 290 69 313 97 c 128,-1,37
 336 125 336 125 356 164 c 0,38,39
 386 223 386 223 412.5 317.5 c 128,-1,40
 439 412 439 412 479 569 c 1,41,-1
 365 569 l 1,42,-1
 398 644 l 1,43,-1
 497 644 l 1,44,45
 518 733 518 733 562 941 c 0,46,47
 576 1010 576 1010 627.5 1082 c 128,-1,48
 679 1154 679 1154 744 1179 c 1,49,-1
 753 1173 l 1,50,51
 714 1126 714 1126 688 1011 c 0,52,53
 666 918 666 918 647 804 c 128,-1,54
 628 690 628 690 620 644 c 1,55,-1
 826 644 l 1,56,57
 826 619 826 619 809.5 597.5 c 128,-1,58
 793 576 793 576 776 569 c 1,59,-1
 606 569 l 1,60,61
 571 400 571 400 520 283.5 c 128,-1,62
 469 167 469 167 386 113 c 1,63,-1
 392 100 l 1,64,-1
 650 100 l 2,0,1
EndSplineSet
EndChar

StartChar: Ntilde
Encoding: 209 209 148
Width: 1303
GlyphClass: 2
Flags: W
LayerCount: 2
Fore
SplineSet
921 1280 m 0,0,1
 940 1124 940 1124 985.5 938.5 c 128,-1,2
 1031 753 1031 753 1050 681 c 0,3,4
 1105 465 1105 465 1156 278 c 1,5,-1
 1162 278 l 1,6,7
 1295 811 1295 811 1372 1053 c 0,8,9
 1390 1108 1390 1108 1410.5 1152.5 c 128,-1,10
 1431 1197 1431 1197 1466.5 1242.5 c 128,-1,11
 1502 1288 1502 1288 1547 1318.5 c 128,-1,12
 1592 1349 1592 1349 1658.5 1368.5 c 128,-1,13
 1725 1388 1725 1388 1783.5 1388 c 128,-1,14
 1842 1388 1842 1388 1877 1382 c 1,15,16
 1877 1302 1877 1302 1831 1260 c 1,17,18
 1819 1264 1819 1264 1795.5 1272 c 128,-1,19
 1772 1280 1772 1280 1762 1283 c 128,-1,20
 1752 1286 1752 1286 1736 1290 c 0,21,22
 1708 1298 1708 1298 1681 1298 c 0,23,24
 1600 1298 1600 1298 1538.5 1231.5 c 128,-1,25
 1477 1165 1477 1165 1439 1053.5 c 128,-1,26
 1401 942 1401 942 1303.5 555 c 128,-1,27
 1206 168 1206 168 1141 -17 c 1,28,29
 1129 -22 1129 -22 1114 -22 c 128,-1,30
 1099 -22 1099 -22 1091 -17 c 1,31,32
 1064 92 1064 92 997 330.5 c 128,-1,33
 930 569 930 569 885 757.5 c 128,-1,34
 840 946 840 946 814 1126 c 1,35,-1
 808 1127 l 1,36,37
 689 510 689 510 555 153 c 0,38,39
 511 35 511 35 407 -39.5 c 128,-1,40
 303 -114 303 -114 153 -114 c 0,41,42
 120 -114 120 -114 80 -108 c 1,43,44
 80 -26 80 -26 122 9 c 1,45,46
 224 -28 224 -28 268 -28 c 0,47,48
 339 -28 339 -28 400.5 29.5 c 128,-1,49
 462 87 462 87 494 180 c 0,50,51
 644 624 644 624 737 1087 c 0,52,53
 756 1181 756 1181 770 1209 c 1,54,-1
 618 1209 l 2,55,56
 472 1209 472 1209 393 1107 c 128,-1,57
 314 1005 314 1005 292 785 c 1,58,59
 281 741 281 741 243.5 716 c 128,-1,60
 206 691 206 691 164 691 c 1,61,62
 182 888 182 888 267.5 1030 c 128,-1,63
 353 1172 353 1172 535 1269 c 0,64,65
 572 1288 572 1288 627.5 1295.5 c 128,-1,66
 683 1303 683 1303 795 1303 c 1,67,-1
 887 1298 l 2,68,69
 905 1298 905 1298 923 1301 c 1,70,71
 921 1287 921 1287 921 1280 c 0,0,1
1230 1485.5 m 128,-1,73
 1160 1515 1160 1515 1121 1515 c 128,-1,74
 1082 1515 1082 1515 1054.5 1501 c 128,-1,75
 1027 1487 1027 1487 995 1455 c 1,76,-1
 981 1473 l 1,77,78
 1026 1528 1026 1528 1064 1560 c 128,-1,79
 1102 1592 1102 1592 1153 1609 c 1,80,81
 1188 1609 1188 1609 1269 1578 c 128,-1,82
 1350 1547 1350 1547 1374 1547 c 0,83,84
 1418 1547 1418 1547 1442.5 1556.5 c 128,-1,85
 1467 1566 1467 1566 1496 1589 c 1,86,-1
 1508 1575 l 1,87,88
 1428 1479 1428 1479 1337 1456 c 1,89,72
 1300 1456 1300 1456 1230 1485.5 c 128,-1,73
EndSplineSet
EndChar

StartChar: Ograve
Encoding: 210 210 149
Width: 1122
GlyphClass: 2
Flags: W
LayerCount: 2
Fore
SplineSet
998 1283 m 0,0,1
 1213 1283 1213 1283 1213 963 c 0,2,3
 1213 785 1213 785 1151 604.5 c 128,-1,4
 1089 424 1089 424 991 288 c 128,-1,5
 893 152 893 152 764 66.5 c 128,-1,6
 635 -19 635 -19 507 -19 c 128,-1,7
 379 -19 379 -19 305 97 c 128,-1,8
 231 213 231 213 231 407 c 0,9,10
 231 543 231 543 281 695.5 c 128,-1,11
 331 848 331 848 414.5 982.5 c 128,-1,12
 498 1117 498 1117 620.5 1217.5 c 128,-1,13
 743 1318 743 1318 875 1347 c 1,14,-1
 883 1321 l 1,15,16
 759 1284 759 1284 659 1198 c 128,-1,17
 559 1112 559 1112 498 999 c 0,18,19
 371 767 371 767 371 501 c 0,20,21
 371 331 371 331 423 213 c 0,22,23
 449 154 449 154 493 120 c 128,-1,24
 537 86 537 86 595 86 c 0,25,26
 685 86 685 86 783.5 159 c 128,-1,27
 882 232 882 232 940 341.5 c 128,-1,28
 998 451 998 451 1034.5 606 c 128,-1,29
 1071 761 1071 761 1071 920 c 0,30,31
 1071 1042 1071 1042 1029.5 1113 c 128,-1,32
 988 1184 988 1184 907 1184 c 128,-1,33
 826 1184 826 1184 754.5 1102.5 c 128,-1,34
 683 1021 683 1021 683 907 c 0,35,36
 683 833 683 833 710.5 783.5 c 128,-1,37
 738 734 738 734 796 734 c 0,38,39
 833 734 833 734 871 755 c 1,40,-1
 875 740 l 1,41,42
 831 697 831 697 772.5 697 c 128,-1,43
 714 697 714 697 672 743.5 c 128,-1,44
 630 790 630 790 630 880 c 128,-1,45
 630 970 630 970 684 1066 c 128,-1,46
 738 1162 738 1162 824 1222.5 c 128,-1,47
 910 1283 910 1283 998 1283 c 0,0,1
874 1678 m 1,48,-1
 981 1696 l 1,49,50
 1025 1542 1025 1542 1220 1414 c 1,51,-1
 1197 1392 l 1,52,53
 1092 1434 1092 1434 1000 1508.5 c 128,-1,54
 908 1583 908 1583 874 1678 c 1,48,-1
EndSplineSet
EndChar

StartChar: Oacute
Encoding: 211 211 150
Width: 1122
GlyphClass: 2
Flags: W
LayerCount: 2
Fore
SplineSet
998 1283 m 0,0,1
 1213 1283 1213 1283 1213 963 c 0,2,3
 1213 785 1213 785 1151 604.5 c 128,-1,4
 1089 424 1089 424 991 288 c 128,-1,5
 893 152 893 152 764 66.5 c 128,-1,6
 635 -19 635 -19 507 -19 c 128,-1,7
 379 -19 379 -19 305 97 c 128,-1,8
 231 213 231 213 231 407 c 0,9,10
 231 543 231 543 281 695.5 c 128,-1,11
 331 848 331 848 414.5 982.5 c 128,-1,12
 498 1117 498 1117 620.5 1217.5 c 128,-1,13
 743 1318 743 1318 875 1347 c 1,14,-1
 883 1321 l 1,15,16
 759 1284 759 1284 659 1198 c 128,-1,17
 559 1112 559 1112 498 999 c 0,18,19
 371 767 371 767 371 501 c 0,20,21
 371 331 371 331 423 213 c 0,22,23
 449 154 449 154 493 120 c 128,-1,24
 537 86 537 86 595 86 c 0,25,26
 685 86 685 86 783.5 159 c 128,-1,27
 882 232 882 232 940 341.5 c 128,-1,28
 998 451 998 451 1034.5 606 c 128,-1,29
 1071 761 1071 761 1071 920 c 0,30,31
 1071 1042 1071 1042 1029.5 1113 c 128,-1,32
 988 1184 988 1184 907 1184 c 128,-1,33
 826 1184 826 1184 754.5 1102.5 c 128,-1,34
 683 1021 683 1021 683 907 c 0,35,36
 683 833 683 833 710.5 783.5 c 128,-1,37
 738 734 738 734 796 734 c 0,38,39
 833 734 833 734 871 755 c 1,40,-1
 875 740 l 1,41,42
 831 697 831 697 772.5 697 c 128,-1,43
 714 697 714 697 672 743.5 c 128,-1,44
 630 790 630 790 630 880 c 128,-1,45
 630 970 630 970 684 1066 c 128,-1,46
 738 1162 738 1162 824 1222.5 c 128,-1,47
 910 1283 910 1283 998 1283 c 0,0,1
1250 1696 m 1,48,-1
 1357 1678 l 1,49,50
 1323 1583 1323 1583 1231 1508.5 c 128,-1,51
 1139 1434 1139 1434 1034 1392 c 1,52,-1
 1011 1414 l 1,53,54
 1206 1542 1206 1542 1250 1696 c 1,48,-1
EndSplineSet
EndChar

StartChar: Ocircumflex
Encoding: 212 212 151
Width: 1122
GlyphClass: 2
Flags: W
LayerCount: 2
Fore
SplineSet
998 1283 m 0,0,1
 1213 1283 1213 1283 1213 963 c 0,2,3
 1213 785 1213 785 1151 604.5 c 128,-1,4
 1089 424 1089 424 991 288 c 128,-1,5
 893 152 893 152 764 66.5 c 128,-1,6
 635 -19 635 -19 507 -19 c 128,-1,7
 379 -19 379 -19 305 97 c 128,-1,8
 231 213 231 213 231 407 c 0,9,10
 231 543 231 543 281 695.5 c 128,-1,11
 331 848 331 848 414.5 982.5 c 128,-1,12
 498 1117 498 1117 620.5 1217.5 c 128,-1,13
 743 1318 743 1318 875 1347 c 1,14,-1
 883 1321 l 1,15,16
 759 1284 759 1284 659 1198 c 128,-1,17
 559 1112 559 1112 498 999 c 0,18,19
 371 767 371 767 371 501 c 0,20,21
 371 331 371 331 423 213 c 0,22,23
 449 154 449 154 493 120 c 128,-1,24
 537 86 537 86 595 86 c 0,25,26
 685 86 685 86 783.5 159 c 128,-1,27
 882 232 882 232 940 341.5 c 128,-1,28
 998 451 998 451 1034.5 606 c 128,-1,29
 1071 761 1071 761 1071 920 c 0,30,31
 1071 1042 1071 1042 1029.5 1113 c 128,-1,32
 988 1184 988 1184 907 1184 c 128,-1,33
 826 1184 826 1184 754.5 1102.5 c 128,-1,34
 683 1021 683 1021 683 907 c 0,35,36
 683 833 683 833 710.5 783.5 c 128,-1,37
 738 734 738 734 796 734 c 0,38,39
 833 734 833 734 871 755 c 1,40,-1
 875 740 l 1,41,42
 831 697 831 697 772.5 697 c 128,-1,43
 714 697 714 697 672 743.5 c 128,-1,44
 630 790 630 790 630 880 c 128,-1,45
 630 970 630 970 684 1066 c 128,-1,46
 738 1162 738 1162 824 1222.5 c 128,-1,47
 910 1283 910 1283 998 1283 c 0,0,1
1042 1664 m 1,48,49
 1058 1668 1058 1668 1084.5 1668 c 128,-1,50
 1111 1668 1111 1668 1136 1657 c 1,51,52
 1136 1530 1136 1530 1264 1418 c 1,53,-1
 1243 1394 l 1,54,55
 1119 1445 1119 1445 1066 1552 c 1,56,-1
 1062 1553 l 1,57,58
 1025 1503 1025 1503 959 1461 c 128,-1,59
 893 1419 893 1419 820 1394 c 1,60,-1
 799 1418 l 1,61,62
 992 1520 992 1520 1042 1664 c 1,48,49
EndSplineSet
EndChar

StartChar: Otilde
Encoding: 213 213 152
Width: 1122
GlyphClass: 2
Flags: W
LayerCount: 2
Fore
SplineSet
998 1283 m 0,0,1
 1213 1283 1213 1283 1213 963 c 0,2,3
 1213 785 1213 785 1151 604.5 c 128,-1,4
 1089 424 1089 424 991 288 c 128,-1,5
 893 152 893 152 764 66.5 c 128,-1,6
 635 -19 635 -19 507 -19 c 128,-1,7
 379 -19 379 -19 305 97 c 128,-1,8
 231 213 231 213 231 407 c 0,9,10
 231 543 231 543 281 695.5 c 128,-1,11
 331 848 331 848 414.5 982.5 c 128,-1,12
 498 1117 498 1117 620.5 1217.5 c 128,-1,13
 743 1318 743 1318 875 1347 c 1,14,-1
 883 1321 l 1,15,16
 759 1284 759 1284 659 1198 c 128,-1,17
 559 1112 559 1112 498 999 c 0,18,19
 371 767 371 767 371 501 c 0,20,21
 371 331 371 331 423 213 c 0,22,23
 449 154 449 154 493 120 c 128,-1,24
 537 86 537 86 595 86 c 0,25,26
 685 86 685 86 783.5 159 c 128,-1,27
 882 232 882 232 940 341.5 c 128,-1,28
 998 451 998 451 1034.5 606 c 128,-1,29
 1071 761 1071 761 1071 920 c 0,30,31
 1071 1042 1071 1042 1029.5 1113 c 128,-1,32
 988 1184 988 1184 907 1184 c 128,-1,33
 826 1184 826 1184 754.5 1102.5 c 128,-1,34
 683 1021 683 1021 683 907 c 0,35,36
 683 833 683 833 710.5 783.5 c 128,-1,37
 738 734 738 734 796 734 c 0,38,39
 833 734 833 734 871 755 c 1,40,-1
 875 740 l 1,41,42
 831 697 831 697 772.5 697 c 128,-1,43
 714 697 714 697 672 743.5 c 128,-1,44
 630 790 630 790 630 880 c 128,-1,45
 630 970 630 970 684 1066 c 128,-1,46
 738 1162 738 1162 824 1222.5 c 128,-1,47
 910 1283 910 1283 998 1283 c 0,0,1
1062 1494.5 m 128,-1,49
 992 1524 992 1524 953 1524 c 128,-1,50
 914 1524 914 1524 886.5 1510 c 128,-1,51
 859 1496 859 1496 827 1464 c 1,52,-1
 813 1482 l 1,53,54
 858 1537 858 1537 896 1569 c 128,-1,55
 934 1601 934 1601 985 1618 c 1,56,57
 1020 1618 1020 1618 1101 1587 c 128,-1,58
 1182 1556 1182 1556 1206 1556 c 0,59,60
 1250 1556 1250 1556 1274.5 1565.5 c 128,-1,61
 1299 1575 1299 1575 1328 1598 c 1,62,-1
 1340 1584 l 1,63,64
 1260 1488 1260 1488 1169 1465 c 1,65,48
 1132 1465 1132 1465 1062 1494.5 c 128,-1,49
EndSplineSet
EndChar

StartChar: Odieresis
Encoding: 214 214 153
Width: 1122
GlyphClass: 2
Flags: W
LayerCount: 2
Fore
SplineSet
998 1283 m 0,0,1
 1213 1283 1213 1283 1213 963 c 0,2,3
 1213 785 1213 785 1151 604.5 c 128,-1,4
 1089 424 1089 424 991 288 c 128,-1,5
 893 152 893 152 764 66.5 c 128,-1,6
 635 -19 635 -19 507 -19 c 128,-1,7
 379 -19 379 -19 305 97 c 128,-1,8
 231 213 231 213 231 407 c 0,9,10
 231 543 231 543 281 695.5 c 128,-1,11
 331 848 331 848 414.5 982.5 c 128,-1,12
 498 1117 498 1117 620.5 1217.5 c 128,-1,13
 743 1318 743 1318 875 1347 c 1,14,-1
 883 1321 l 1,15,16
 759 1284 759 1284 659 1198 c 128,-1,17
 559 1112 559 1112 498 999 c 0,18,19
 371 767 371 767 371 501 c 0,20,21
 371 331 371 331 423 213 c 0,22,23
 449 154 449 154 493 120 c 128,-1,24
 537 86 537 86 595 86 c 0,25,26
 685 86 685 86 783.5 159 c 128,-1,27
 882 232 882 232 940 341.5 c 128,-1,28
 998 451 998 451 1034.5 606 c 128,-1,29
 1071 761 1071 761 1071 920 c 0,30,31
 1071 1042 1071 1042 1029.5 1113 c 128,-1,32
 988 1184 988 1184 907 1184 c 128,-1,33
 826 1184 826 1184 754.5 1102.5 c 128,-1,34
 683 1021 683 1021 683 907 c 0,35,36
 683 833 683 833 710.5 783.5 c 128,-1,37
 738 734 738 734 796 734 c 0,38,39
 833 734 833 734 871 755 c 1,40,-1
 875 740 l 1,41,42
 831 697 831 697 772.5 697 c 128,-1,43
 714 697 714 697 672 743.5 c 128,-1,44
 630 790 630 790 630 880 c 128,-1,45
 630 970 630 970 684 1066 c 128,-1,46
 738 1162 738 1162 824 1222.5 c 128,-1,47
 910 1283 910 1283 998 1283 c 0,0,1
819 1568 m 1,48,-1
 900 1652 l 1,49,50
 951 1619 951 1619 980 1564 c 1,51,52
 951 1514 951 1514 901 1471 c 1,53,54
 841 1519 841 1519 819 1568 c 1,48,-1
1093 1568 m 1,55,-1
 1174 1652 l 1,56,57
 1225 1619 1225 1619 1254 1564 c 1,58,59
 1225 1514 1225 1514 1175 1471 c 1,60,61
 1115 1519 1115 1519 1093 1568 c 1,55,-1
EndSplineSet
EndChar

StartChar: multiply
Encoding: 215 215 154
Width: 1065
GlyphClass: 2
Flags: W
LayerCount: 2
Fore
SplineSet
781 608 m 1,0,-1
 1038 315 l 1,1,-1
 958 243 l 1,2,-1
 701 536 l 1,3,-1
 374 245 l 1,4,-1
 307 315 l 1,5,-1
 637 608 l 1,6,-1
 380 902 l 1,7,-1
 460 974 l 1,8,-1
 718 680 l 1,9,-1
 1047 974 l 1,10,-1
 1108 899 l 1,11,-1
 781 608 l 1,0,-1
EndSplineSet
EndChar

StartChar: Oslash
Encoding: 216 216 155
Width: 1231
GlyphClass: 2
Flags: W
LayerCount: 2
Fore
SplineSet
1284 1388 m 1,0,1
 1248 1331 1248 1331 1160 1195 c 1,2,3
 1230 1079 1230 1079 1230 898 c 128,-1,4
 1230 717 1230 717 1169.5 548.5 c 128,-1,5
 1109 380 1109 380 1014 256.5 c 128,-1,6
 919 133 919 133 796.5 57 c 128,-1,7
 674 -19 674 -19 555 -19 c 0,8,9
 472 -19 472 -19 407 35 c 1,10,11
 352 -50 352 -50 296 -139 c 1,12,-1
 233 -35 l 1,13,-1
 337 118 l 1,14,15
 269 235 269 235 269 400.5 c 128,-1,16
 269 566 269 566 323 731 c 128,-1,17
 377 896 377 896 463.5 1028 c 128,-1,18
 550 1160 550 1160 670.5 1245 c 128,-1,19
 791 1330 791 1330 912 1330 c 128,-1,20
 1033 1330 1033 1330 1111 1257 c 1,21,-1
 1234 1438 l 1,22,-1
 1284 1388 l 1,0,1
830 1235 m 0,23,24
 725 1235 725 1235 630.5 1132 c 128,-1,25
 536 1029 536 1029 480 862.5 c 128,-1,26
 424 696 424 696 424 515 c 0,27,28
 424 385 424 385 450 285 c 1,29,-1
 1016 1117 l 1,30,31
 951 1235 951 1235 830 1235 c 0,23,24
1052 1027 m 1,32,33
 622 371 622 371 495 174 c 1,34,35
 550 83 550 83 641 83 c 0,36,37
 715 83 715 83 794 136 c 128,-1,38
 873 189 873 189 937 277.5 c 128,-1,39
 1001 366 1001 366 1042 494 c 128,-1,40
 1083 622 1083 622 1083 770.5 c 128,-1,41
 1083 919 1083 919 1052 1027 c 1,32,33
EndSplineSet
EndChar

StartChar: Ugrave
Encoding: 217 217 156
Width: 1374
GlyphClass: 2
Flags: W
LayerCount: 2
Fore
SplineSet
922 1677 m 1,0,-1
 1029 1695 l 1,1,2
 1073 1541 1073 1541 1268 1413 c 1,3,-1
 1245 1391 l 1,4,5
 1140 1433 1140 1433 1048 1507.5 c 128,-1,6
 956 1582 956 1582 922 1677 c 1,0,-1
1298.5 595 m 128,-1,8
 1247 381 1247 381 1234 329.5 c 128,-1,9
 1221 278 1221 278 1221 235 c 128,-1,10
 1221 192 1221 192 1248 153.5 c 128,-1,11
 1275 115 1275 115 1332.5 115 c 128,-1,12
 1390 115 1390 115 1467 163 c 1,13,-1
 1471 149 l 1,14,15
 1404 93 1404 93 1364 66 c 128,-1,16
 1324 39 1324 39 1253 0 c 1,17,18
 1097 3 1097 3 1097 188 c 0,19,20
 1097 278 1097 278 1140 444 c 1,21,-1
 1132 444 l 1,22,23
 1053 277 1053 277 898.5 137.5 c 128,-1,24
 744 -2 744 -2 635 -2 c 0,25,26
 497 -2 497 -2 497 202 c 0,27,28
 497 319 497 319 529 442 c 128,-1,29
 561 565 561 565 591.5 692 c 128,-1,30
 622 819 622 819 638.5 886.5 c 128,-1,31
 655 954 655 954 674 1024 c 0,32,33
 710 1153 710 1153 749 1207 c 1,34,-1
 611 1207 l 2,35,36
 447 1207 447 1207 368 1109 c 128,-1,37
 289 1011 289 1011 266 785 c 1,38,39
 222 698 222 698 139 691 c 1,40,41
 158 888 158 888 243 1029.5 c 128,-1,42
 328 1171 328 1171 509 1269 c 0,43,44
 544 1289 544 1289 599.5 1296 c 128,-1,45
 655 1303 655 1303 769 1303 c 2,46,-1
 933 1303 l 1,47,-1
 933 1296 l 1,48,49
 915 1284 915 1284 887 1244.5 c 128,-1,50
 859 1205 859 1205 840 1156 c 1,51,52
 723 741 723 741 675.5 542.5 c 128,-1,53
 628 344 628 344 628 271 c 0,54,55
 628 113 628 113 749 113 c 0,56,57
 808 113 808 113 880 175 c 128,-1,58
 952 237 952 237 1011 324.5 c 128,-1,59
 1070 412 1070 412 1115 499 c 128,-1,60
 1160 586 1160 586 1177 644 c 2,61,-1
 1328 1173 l 2,62,63
 1358 1280 1358 1280 1522 1303 c 1,64,-1
 1532 1282 l 1,65,66
 1481 1239 1481 1239 1450 1153 c 128,-1,67
 1419 1067 1419 1067 1384.5 938 c 128,-1,7
 1350 809 1350 809 1298.5 595 c 128,-1,8
EndSplineSet
EndChar

StartChar: Uacute
Encoding: 218 218 157
Width: 1374
GlyphClass: 2
Flags: W
LayerCount: 2
Fore
SplineSet
1350 1696 m 1,0,-1
 1457 1678 l 1,1,2
 1423 1583 1423 1583 1331 1508.5 c 128,-1,3
 1239 1434 1239 1434 1134 1392 c 1,4,-1
 1111 1414 l 1,5,6
 1306 1542 1306 1542 1350 1696 c 1,0,-1
1298.5 595 m 128,-1,8
 1247 381 1247 381 1234 329.5 c 128,-1,9
 1221 278 1221 278 1221 235 c 128,-1,10
 1221 192 1221 192 1248 153.5 c 128,-1,11
 1275 115 1275 115 1332.5 115 c 128,-1,12
 1390 115 1390 115 1467 163 c 1,13,-1
 1471 149 l 1,14,15
 1404 93 1404 93 1364 66 c 128,-1,16
 1324 39 1324 39 1253 0 c 1,17,18
 1097 3 1097 3 1097 188 c 0,19,20
 1097 278 1097 278 1140 444 c 1,21,-1
 1132 444 l 1,22,23
 1053 277 1053 277 898.5 137.5 c 128,-1,24
 744 -2 744 -2 635 -2 c 0,25,26
 497 -2 497 -2 497 202 c 0,27,28
 497 319 497 319 529 442 c 128,-1,29
 561 565 561 565 591.5 692 c 128,-1,30
 622 819 622 819 638.5 886.5 c 128,-1,31
 655 954 655 954 674 1024 c 0,32,33
 710 1153 710 1153 749 1207 c 1,34,-1
 611 1207 l 2,35,36
 447 1207 447 1207 368 1109 c 128,-1,37
 289 1011 289 1011 266 785 c 1,38,39
 222 698 222 698 139 691 c 1,40,41
 158 888 158 888 243 1029.5 c 128,-1,42
 328 1171 328 1171 509 1269 c 0,43,44
 544 1289 544 1289 599.5 1296 c 128,-1,45
 655 1303 655 1303 769 1303 c 2,46,-1
 933 1303 l 1,47,-1
 933 1296 l 1,48,49
 915 1284 915 1284 887 1244.5 c 128,-1,50
 859 1205 859 1205 840 1156 c 1,51,52
 723 741 723 741 675.5 542.5 c 128,-1,53
 628 344 628 344 628 271 c 0,54,55
 628 113 628 113 749 113 c 0,56,57
 808 113 808 113 880 175 c 128,-1,58
 952 237 952 237 1011 324.5 c 128,-1,59
 1070 412 1070 412 1115 499 c 128,-1,60
 1160 586 1160 586 1177 644 c 2,61,-1
 1328 1173 l 2,62,63
 1358 1280 1358 1280 1522 1303 c 1,64,-1
 1532 1282 l 1,65,66
 1481 1239 1481 1239 1450 1153 c 128,-1,67
 1419 1067 1419 1067 1384.5 938 c 128,-1,7
 1350 809 1350 809 1298.5 595 c 128,-1,8
EndSplineSet
EndChar

StartChar: Ucircumflex
Encoding: 219 219 158
Width: 1374
GlyphClass: 2
Flags: W
LayerCount: 2
Fore
SplineSet
1208 1664 m 1,0,1
 1224 1668 1224 1668 1250.5 1668 c 128,-1,2
 1277 1668 1277 1668 1302 1657 c 1,3,4
 1302 1530 1302 1530 1430 1418 c 1,5,-1
 1409 1394 l 1,6,7
 1285 1445 1285 1445 1232 1552 c 1,8,-1
 1228 1553 l 1,9,10
 1191 1503 1191 1503 1125 1461 c 128,-1,11
 1059 1419 1059 1419 986 1394 c 1,12,-1
 965 1418 l 1,13,14
 1158 1520 1158 1520 1208 1664 c 1,0,1
1298.5 595 m 128,-1,16
 1247 381 1247 381 1234 329.5 c 128,-1,17
 1221 278 1221 278 1221 235 c 128,-1,18
 1221 192 1221 192 1248 153.5 c 128,-1,19
 1275 115 1275 115 1332.5 115 c 128,-1,20
 1390 115 1390 115 1467 163 c 1,21,-1
 1471 149 l 1,22,23
 1404 93 1404 93 1364 66 c 128,-1,24
 1324 39 1324 39 1253 0 c 1,25,26
 1097 3 1097 3 1097 188 c 0,27,28
 1097 278 1097 278 1140 444 c 1,29,-1
 1132 444 l 1,30,31
 1053 277 1053 277 898.5 137.5 c 128,-1,32
 744 -2 744 -2 635 -2 c 0,33,34
 497 -2 497 -2 497 202 c 0,35,36
 497 319 497 319 529 442 c 128,-1,37
 561 565 561 565 591.5 692 c 128,-1,38
 622 819 622 819 638.5 886.5 c 128,-1,39
 655 954 655 954 674 1024 c 0,40,41
 710 1153 710 1153 749 1207 c 1,42,-1
 611 1207 l 2,43,44
 447 1207 447 1207 368 1109 c 128,-1,45
 289 1011 289 1011 266 785 c 1,46,47
 222 698 222 698 139 691 c 1,48,49
 158 888 158 888 243 1029.5 c 128,-1,50
 328 1171 328 1171 509 1269 c 0,51,52
 544 1289 544 1289 599.5 1296 c 128,-1,53
 655 1303 655 1303 769 1303 c 2,54,-1
 933 1303 l 1,55,-1
 933 1296 l 1,56,57
 915 1284 915 1284 887 1244.5 c 128,-1,58
 859 1205 859 1205 840 1156 c 1,59,60
 723 741 723 741 675.5 542.5 c 128,-1,61
 628 344 628 344 628 271 c 0,62,63
 628 113 628 113 749 113 c 0,64,65
 808 113 808 113 880 175 c 128,-1,66
 952 237 952 237 1011 324.5 c 128,-1,67
 1070 412 1070 412 1115 499 c 128,-1,68
 1160 586 1160 586 1177 644 c 2,69,-1
 1328 1173 l 2,70,71
 1358 1280 1358 1280 1522 1303 c 1,72,-1
 1532 1282 l 1,73,74
 1481 1239 1481 1239 1450 1153 c 128,-1,75
 1419 1067 1419 1067 1384.5 938 c 128,-1,15
 1350 809 1350 809 1298.5 595 c 128,-1,16
EndSplineSet
EndChar

StartChar: Udieresis
Encoding: 220 220 159
Width: 1374
GlyphClass: 2
Flags: W
LayerCount: 2
Fore
SplineSet
979 1568 m 1,0,-1
 1060 1652 l 1,1,2
 1111 1619 1111 1619 1140 1564 c 1,3,4
 1111 1514 1111 1514 1061 1471 c 1,5,6
 1001 1519 1001 1519 979 1568 c 1,0,-1
1253 1568 m 1,7,-1
 1334 1652 l 1,8,9
 1385 1619 1385 1619 1414 1564 c 1,10,11
 1385 1514 1385 1514 1335 1471 c 1,12,13
 1275 1519 1275 1519 1253 1568 c 1,7,-1
1298.5 595 m 128,-1,15
 1247 381 1247 381 1234 329.5 c 128,-1,16
 1221 278 1221 278 1221 235 c 128,-1,17
 1221 192 1221 192 1248 153.5 c 128,-1,18
 1275 115 1275 115 1332.5 115 c 128,-1,19
 1390 115 1390 115 1467 163 c 1,20,-1
 1471 149 l 1,21,22
 1404 93 1404 93 1364 66 c 128,-1,23
 1324 39 1324 39 1253 0 c 1,24,25
 1097 3 1097 3 1097 188 c 0,26,27
 1097 278 1097 278 1140 444 c 1,28,-1
 1132 444 l 1,29,30
 1053 277 1053 277 898.5 137.5 c 128,-1,31
 744 -2 744 -2 635 -2 c 0,32,33
 497 -2 497 -2 497 202 c 0,34,35
 497 319 497 319 529 442 c 128,-1,36
 561 565 561 565 591.5 692 c 128,-1,37
 622 819 622 819 638.5 886.5 c 128,-1,38
 655 954 655 954 674 1024 c 0,39,40
 710 1153 710 1153 749 1207 c 1,41,-1
 611 1207 l 2,42,43
 447 1207 447 1207 368 1109 c 128,-1,44
 289 1011 289 1011 266 785 c 1,45,46
 222 698 222 698 139 691 c 1,47,48
 158 888 158 888 243 1029.5 c 128,-1,49
 328 1171 328 1171 509 1269 c 0,50,51
 544 1289 544 1289 599.5 1296 c 128,-1,52
 655 1303 655 1303 769 1303 c 2,53,-1
 933 1303 l 1,54,-1
 933 1296 l 1,55,56
 915 1284 915 1284 887 1244.5 c 128,-1,57
 859 1205 859 1205 840 1156 c 1,58,59
 723 741 723 741 675.5 542.5 c 128,-1,60
 628 344 628 344 628 271 c 0,61,62
 628 113 628 113 749 113 c 0,63,64
 808 113 808 113 880 175 c 128,-1,65
 952 237 952 237 1011 324.5 c 128,-1,66
 1070 412 1070 412 1115 499 c 128,-1,67
 1160 586 1160 586 1177 644 c 2,68,-1
 1328 1173 l 2,69,70
 1358 1280 1358 1280 1522 1303 c 1,71,-1
 1532 1282 l 1,72,73
 1481 1239 1481 1239 1450 1153 c 128,-1,74
 1419 1067 1419 1067 1384.5 938 c 128,-1,14
 1350 809 1350 809 1298.5 595 c 128,-1,15
EndSplineSet
EndChar

StartChar: Yacute
Encoding: 221 221 160
Width: 1044
GlyphClass: 2
Flags: W
LayerCount: 2
Fore
SplineSet
593 1322 m 0,0,1
 660 1322 660 1322 713.5 1298 c 128,-1,2
 767 1274 767 1274 801.5 1233 c 128,-1,3
 836 1192 836 1192 859 1134 c 0,4,5
 901 1028 901 1028 901 873 c 0,6,7
 901 774 901 774 881 649 c 128,-1,8
 861 524 861 524 838 452 c 1,9,-1
 844 450 l 1,10,11
 929 550 929 550 976 610.5 c 128,-1,12
 1023 671 1023 671 1087 766 c 0,13,14
 1210 947 1210 947 1236 1128 c 0,15,16
 1238 1146 1238 1146 1238 1154 c 0,17,18
 1238 1234 1238 1234 1145 1234 c 0,19,20
 1140 1234 1140 1234 1141 1242.5 c 128,-1,21
 1142 1251 1142 1251 1165.5 1276.5 c 128,-1,22
 1189 1302 1189 1302 1204 1312 c 1,23,24
 1218 1324 1218 1324 1248.5 1324 c 128,-1,25
 1279 1324 1279 1324 1333 1309.5 c 128,-1,26
 1387 1295 1387 1295 1387 1266 c 2,27,-1
 1387 1263 l 1,28,29
 1359 1062 1359 1062 1212 836.5 c 128,-1,30
 1065 611 1065 611 810 335 c 1,31,-1
 799 294 l 2,32,33
 716 -17 716 -17 598 -190.5 c 128,-1,34
 480 -364 480 -364 356 -364 c 0,35,36
 277 -364 277 -364 182.5 -339.5 c 128,-1,37
 88 -315 88 -315 14 -275 c 1,38,39
 32 -143 32 -143 67 -143 c 0,40,41
 105 -143 105 -143 196 -222 c 0,42,43
 230 -252 230 -252 280.5 -276.5 c 128,-1,44
 331 -301 331 -301 382.5 -301 c 128,-1,45
 434 -301 434 -301 485.5 -246 c 128,-1,46
 537 -191 537 -191 574.5 -106.5 c 128,-1,47
 612 -22 612 -22 644 90 c 0,48,49
 699 281 699 281 727.5 489 c 128,-1,50
 756 697 756 697 756 819 c 0,51,52
 756 1026 756 1026 688.5 1131.5 c 128,-1,53
 621 1237 621 1237 471 1237 c 0,54,55
 346 1237 346 1237 283 1142.5 c 128,-1,56
 220 1048 220 1048 203 876 c 1,57,58
 184 852 184 852 148.5 835 c 128,-1,59
 113 818 113 818 78 813 c 1,60,61
 80 844 80 844 81 848 c 0,62,63
 111 1062 111 1062 248 1192 c 128,-1,64
 385 1322 385 1322 593 1322 c 0,0,1
1122 1692 m 1,65,-1
 1229 1674 l 1,66,67
 1195 1579 1195 1579 1103 1504.5 c 128,-1,68
 1011 1430 1011 1430 906 1388 c 1,69,-1
 883 1410 l 1,70,71
 1078 1538 1078 1538 1122 1692 c 1,65,-1
EndSplineSet
EndChar

